<?xml version="1.0" standalone="no"?>
<!DOCTYPE svg PUBLIC "-//W3C//DTD SVG 1.1//EN" "http://www.w3.org/Graphics/SVG/1.1/DTD/svg11.dtd" >
<svg xmlns="http://www.w3.org/2000/svg" xmlns:xlink="http://www.w3.org/1999/xlink" version="1.1">
<metadata>
Created by FontForge 20161003 at Fri Nov 16 09:17:07 2018
 By www-data
</metadata>
<defs>
<font id="SVNBira" horiz-adv-x="1014" >
  <font-face 
    font-family="SVNBira"
    font-weight="400"
    font-stretch="normal"
    units-per-em="2048"
    panose-1="2 4 6 3 5 5 6 2 2 4"
    ascent="1638"
    descent="-410"
    x-height="1023"
    cap-height="1664"
    bbox="-755.871 -533.626 1969.51 2446.11"
    underline-thickness="109"
    underline-position="-359"
    unicode-range="U+0020-2026"
  />
<missing-glyph horiz-adv-x="3864" 
 />
    <glyph glyph-name=".notdef" horiz-adv-x="3864" 
 />
    <glyph glyph-name=".null" horiz-adv-x="0" 
 />
    <glyph glyph-name="nonmarkingreturn" horiz-adv-x="571" 
 />
    <glyph glyph-name="space" unicode=" " horiz-adv-x="825" 
 />
    <glyph glyph-name="exclam" unicode="!" horiz-adv-x="883" 
d="M379 78q0 -62 -44 -106t-106 -44q-63 0 -106 44t-43 106q0 63 43 106t106 43q62 0 106 -43t44 -106zM705 1688q14 34 42.5 39.5t61.5 -11t65.5 -48.5t57 -72t36 -81.5t1.5 -78.5q-8 -31 -48 -99.5t-95.5 -159t-119 -191.5t-120 -197.5t-96 -178.5t-50.5 -131
q-8 -39 -34.5 -52t-54 -5t-46 36.5t-12.5 73.5q16 121 50 246t75 244t87 227.5t86 196.5t70.5 150.5t43.5 91.5z" />
    <glyph glyph-name="quotedbl" unicode="&#x22;" horiz-adv-x="727" 
d="M520 1440q-4 -37 -24.5 -89.5t-52 -117t-70.5 -141t-76 -158.5q-14 -31 -37.5 -36t-44 5t-32 32.5t-1.5 49.5q23 57 31 114.5t13 111t9.5 101.5t16.5 89q14 43 60 72.5t93.5 39t83 -7t31.5 -65.5zM827 1440q-4 -37 -24.5 -89.5t-52 -117t-70.5 -141t-76 -158.5
q-14 -31 -37.5 -36t-44 5t-32 32.5t-1.5 49.5q23 57 31 114.5t13.5 111t9.5 101.5t16 89q14 43 60.5 72.5t93.5 39t82.5 -7t31.5 -65.5z" />
    <glyph glyph-name="numbersign" unicode="#" horiz-adv-x="995" 
d="M774 950q21 49 54.5 42t64.5 -46t50.5 -98.5t10.5 -114.5q47 -4 63.5 -22.5t7.5 -41t-43 -46t-89 -37.5q-19 -33 -40.5 -68t-43.5 -69q68 0 91.5 -20.5t7 -48.5t-68 -55.5t-130.5 -37.5q-23 -41 -41.5 -78t-28.5 -66q-12 -37 -40 -50t-53.5 -6t-43 36t-10.5 74
q4 20 7 39.5t9 42.5l-160 8q-22 -41 -40.5 -78t-28.5 -66q-13 -37 -40.5 -50t-54 -6t-44 36t-9.5 74q4 22 8 47.5t13 52.5q-9 0 -17 1t-16 1q-62 2 -78 18.5t-3 36t53 36t93 20.5q17 45 33 88t33 86q-4 0 -7 1t-7 1q-62 2 -79.5 18.5t-3 34.5t52.5 35.5t91 21.5
q37 86 68.5 152.5t48.5 101.5q22 51 58 41t67.5 -54t48 -108.5t2.5 -119.5l76 6zM428 418l125 12q10 35 23.5 67.5t27.5 67.5l-82 4q-20 -34 -44.5 -72t-49.5 -79z" />
    <glyph glyph-name="dollar" unicode="$" horiz-adv-x="1229" 
d="M1126 1513q-14 -38 -32.5 -81t-42.5 -84q82 -31 115.5 -82.5t30.5 -110.5t-36 -119.5t-87 -106.5t-121.5 -70.5t-137.5 -14.5q-67 10 -101 47t-41 77t10 70.5t52 24.5q47 -6 98.5 2t96.5 27.5t77.5 44t45 48t0 44t-59.5 28.5q-41 -55 -80 -83q-53 -41 -83.5 -26t-6.5 83
q0 2 1 3t1 5q-57 -22 -108 -61t-89 -85t-59.5 -95.5t-21.5 -90.5t24.5 -70.5t79.5 -37.5q168 -25 252 -94.5t98.5 -158.5t-31.5 -185.5t-135.5 -175.5t-214 -127t-268.5 -40q-4 -28 -9 -56t-24 -66q-26 -52 -73 -72.5t-89 -15t-68 37t-7 84.5q10 33 26.5 69t34.5 71
q-63 39 -83.5 99t-7 128t54 135.5t98 118.5t126 79.5t136.5 18.5t101.5 -47t40.5 -77t-10 -69.5t-52 -23.5q-66 8 -141.5 -23.5t-134 -78.5t-83 -96.5t10.5 -73.5q22 35 46.5 62.5t51.5 47.5q53 41 83 26t7 -83q-12 -37 -18 -57q67 20 129.5 65t113 102.5t83 119t38.5 114.5
t-17.5 90t-84.5 47q-150 23 -228.5 84.5t-99 139t12 162.5t107.5 155t185.5 112t245.5 37q4 41 7 77t30 87q24 51 71.5 71.5t90.5 15.5t67.5 -36.5t5.5 -85.5z" />
    <glyph glyph-name="percent" unicode="%" horiz-adv-x="1434" 
d="M582 1513q135 15 203.5 -28t83 -116t-19.5 -161t-101.5 -165.5t-166 -130t-210.5 -52.5q-68 0 -100.5 46t-37 116t19 151.5t70 154.5t112 124t147.5 61zM424 1014q29 0 57.5 26.5t52 65.5t40 85t22.5 85t1 64.5t-26 25.5q-36 -4 -70 -30.5t-59.5 -65.5t-42 -84t-19.5 -83
t6 -63.5t38 -25.5zM938 592q135 14 203.5 -28t83 -114.5t-19.5 -160.5t-101.5 -166t-165.5 -130t-211 -52q-65 0 -99 46t-38 115.5t19.5 151.5t69.5 153.5t111.5 124t147.5 60.5zM780 94q29 0 57.5 26.5t52 65.5t40 85t22.5 85t1 64.5t-25 23.5q-37 -2 -71 -29.5
t-59.5 -66.5t-42 -83t-19.5 -82t6.5 -63.5t37.5 -25.5zM1210 1475q27 26 55.5 20t53 -32.5t44 -68.5t28 -88t3.5 -89t-28 -74q-14 -19 -69.5 -72t-136.5 -128t-180 -166t-202.5 -186t-205 -189.5t-184.5 -175.5t-142.5 -143.5t-79.5 -94.5q-21 -35 -50.5 -37t-52 15.5
t-30.5 51t16 74.5q60 107 163 244t225 283.5t250 290t236.5 262t186.5 199.5t100 104z" />
    <glyph glyph-name="ampersand" unicode="&#x26;" horiz-adv-x="1274" 
d="M934 1513q108 -10 162.5 -59t66 -118.5t-14.5 -147.5t-77 -143.5t-121.5 -108.5t-148.5 -43q-72 0 -112 34t-53 73.5t0 73.5t50 34q51 0 104.5 21.5t99.5 54.5t78.5 70.5t43 70.5t-7 54.5t-70.5 21.5q-70 0 -133.5 -31t-114.5 -80t-89 -110.5t-56.5 -121t-15.5 -112.5
t32 -86q2 -2 4 -2q43 -39 120 -34t168 25.5t189.5 43t184.5 16.5q37 -2 33.5 -41t-27 -82t-60 -75.5t-69.5 -22.5q-41 10 -77 20.5t-95 14.5q47 -31 78.5 -73t25.5 -81q-4 -24 -28.5 -70t-58.5 -104.5t-74 -124t-73.5 -128t-57 -117t-25.5 -91.5q-2 -28 -24.5 -46.5
t-49.5 -21.5t-48.5 9t-21.5 45q-2 23 -1 45.5t3 44.5q-24 -6 -51.5 -8t-58.5 -2q-135 0 -229.5 58.5t-146.5 147.5t-59.5 192.5t30.5 193.5t123 150.5t220 64.5q-82 35 -120.5 104.5t-36.5 153.5t46 170t130 152.5t215 103.5t299 22zM489 113q29 0 52.5 2t42.5 8
q14 100 37.5 193.5t48 172t47 139t33.5 91.5l-117 -10q-96 -11 -163 -58t-104.5 -113.5t-48 -141t5 -137t57.5 -104.5t109 -42z" />
    <glyph glyph-name="quotesingle" unicode="'" horiz-adv-x="451" 
d="M520 1440q-4 -37 -24.5 -89.5t-52 -117t-70.5 -141t-76 -158.5q-14 -31 -37.5 -36t-44 5t-32 32.5t-1.5 49.5q23 57 31 114.5t13 111t9.5 101.5t16.5 89q14 43 60 72.5t93.5 39t83 -7t31.5 -65.5z" />
    <glyph glyph-name="parenleft" unicode="(" horiz-adv-x="780" 
d="M874 1438q64 24 97 18t40 -27.5t-9.5 -51t-53.5 -50.5q-80 -45 -165 -159.5t-161.5 -266t-135 -321.5t-86 -326t-15.5 -281t78 -182q35 -37 33 -65.5t-26 -42t-60.5 -7t-69.5 40.5q-141 127 -207.5 262.5t-78 270.5t26.5 268t105.5 256t156.5 231.5t184.5 194.5
t186.5 147.5t160 90.5z" />
    <glyph glyph-name="parenright" unicode=")" horiz-adv-x="838" 
d="M-59 -305q-64 -25 -96.5 -18.5t-40 28t9 51t53.5 49.5q59 33 122.5 108t125 175t116 220t97.5 245t70.5 247t33.5 228.5t-12.5 188t-67.5 124.5q-35 37 -32.5 66t26 42t60 6t69.5 -40q141 -127 208 -262t78 -270t-27 -268.5t-105.5 -256t-156.5 -231.5t-184 -195
t-186.5 -147t-160.5 -90z" />
    <glyph glyph-name="asterisk" unicode="*" horiz-adv-x="920" 
d="M266 1221q23 -13 63 -35.5t81 -48.5q-11 32 -24 65t-3 55q10 25 42 38.5t65.5 13.5t59 -14.5t23.5 -45.5q-4 -26 -23.5 -65t-39.5 -76q43 41 91 80t83 57q35 19 62.5 6.5t42 -39t12.5 -58.5t-27 -52q-31 -27 -90 -48.5t-111 -43.5q37 -17 71 -33t52 -31q29 -22 33 -52
t-9 -54.5t-43 -33.5t-69 9q-22 10 -54 30.5t-65 47.5q5 -31 9 -61.5t-6 -49.5q-15 -24 -48.5 -33.5t-67.5 -5t-56.5 20.5t-16.5 47q4 18 20.5 44t38.5 54q-40 -28 -80 -54t-69 -36q-37 -14 -67.5 -1t-48 38t-17.5 55.5t26 49.5q15 10 40.5 18t56 15t63.5 14.5t64 13.5
q-45 12 -89 25.5t-65 29.5q-26 21 -28.5 52.5t13 58t43 39t62.5 -5.5z" />
    <glyph glyph-name="plus" unicode="+" horiz-adv-x="926" 
d="M686 403q-16 -4 -31.5 -5t-29.5 -3q-15 -28 -32.5 -65t-39.5 -86q-18 -39 -45 -36t-48.5 28.5t-32.5 66.5t3 78l12 35l-133 20q-43 6 -48 33t13.5 55.5t54.5 50t74 19.5q21 -2 40.5 -2h37.5q6 49 13.5 95t21.5 87q12 41 42 43t60.5 -23.5t54 -71.5t23.5 -101q29 4 55.5 6
t53.5 2q45 0 54 -32t-9.5 -71t-62.5 -75.5t-101 -47.5z" />
    <glyph glyph-name="comma" unicode="," horiz-adv-x="451" 
d="M303 127q-14 -43 -37.5 -93t-51.5 -96.5t-59.5 -86t-64.5 -64.5q-53 -41 -84 -25.5t-8 82.5q20 62 26.5 103t8.5 74.5t7 65.5t28 75q24 51 71 72.5t90 15.5t68 -38t6 -85z" />
    <glyph glyph-name="hyphen" unicode="-" horiz-adv-x="946" 
d="M686 403q-43 -8 -74.5 -8t-69.5 6.5t-92.5 15.5t-140.5 19q-43 6 -48 33t13.5 55.5t54.5 50t74 19.5q62 -4 116 1t103.5 13t94.5 14.5t88 6.5q45 0 54 -32t-9.5 -71t-62.5 -75.5t-101 -47.5z" />
    <glyph glyph-name="period" unicode="." horiz-adv-x="459" 
d="M299 125q0 -49 -35 -84t-84 -35t-84 35t-35 84t35 84t84 35t84 -35t35 -84z" />
    <glyph glyph-name="slash" unicode="/" horiz-adv-x="1167" 
d="M1124 1475q27 26 55.5 20t53 -32.5t44 -68.5t28 -88t3.5 -89t-28 -74q-14 -19 -69.5 -72t-136.5 -128t-180 -166t-202.5 -186t-205 -189.5t-184.5 -175.5t-142.5 -143.5t-79.5 -94.5q-21 -35 -50.5 -37t-52 15.5t-30.5 51t16 74.5q60 107 163 244t225 283.5t250 290
t236.5 262t187.5 199.5t99 104z" />
    <glyph glyph-name="zero" unicode="0" horiz-adv-x="1151" 
d="M815 1462q146 0 224.5 -63.5t102 -166t-1 -234.5t-83 -270t-144.5 -270t-186 -234.5t-208.5 -166t-211.5 -63.5q-108 0 -178 63.5t-101.5 166t-27.5 234.5t41 270t105.5 270t167 234.5t224.5 166t277 63.5zM295 160q53 0 109.5 47t110.5 124t103.5 176t85 201.5t56 202
t18.5 176t-28.5 123.5t-85.5 47q-84 0 -159 -47t-136.5 -123.5t-109.5 -176t-78.5 -202t-42 -201.5t2 -176t51 -124t103.5 -47z" />
    <glyph glyph-name="one" unicode="1" horiz-adv-x="836" 
d="M72 90q18 131 62 280.5t101.5 298t119 286t110.5 241.5q-45 -37 -91 -84t-93 -96q-35 -37 -65 -41t-45 14.5t-10 53t40 75.5q55 68 118.5 124t120 99t97.5 70t53 35q33 24 83 6t95 -61t71.5 -99.5t12.5 -105.5q-8 -31 -53 -108t-109.5 -179t-139.5 -223t-142.5 -237.5
t-118.5 -222t-70 -179.5q-10 -39 -36.5 -53.5t-54.5 -6t-46.5 37t-9.5 75.5z" />
    <glyph glyph-name="two" unicode="2" horiz-adv-x="1133" 
d="M12 14q-28 -14 -45.5 -6t-23.5 26.5t0 41t28 37.5q185 125 330 267t246.5 281.5t160 266.5t72 225t-19.5 155.5t-113 57.5q-53 0 -94 -34t-67.5 -84t-38 -109.5t-3 -109.5t35 -84t77.5 -34q37 0 29 -32.5t-47 -71.5t-100.5 -72t-129.5 -33q-78 0 -112.5 55.5t-30.5 138.5
t44 181.5t110.5 183.5t171 145t225.5 69q168 10 268 -42.5t133 -148.5t-3 -227t-138.5 -279.5t-271 -304.5t-404.5 -301q117 27 197 13.5t139 -32t107.5 -23.5t103.5 38q29 27 52.5 29t35.5 -13.5t8 -40t-29 -49.5q-104 -86 -193 -119.5t-169 -33.5t-150.5 20.5t-136 41
t-128 28.5t-126.5 -17z" />
    <glyph glyph-name="three" unicode="3" horiz-adv-x="1126" 
d="M662 1475q174 14 278 -22t149.5 -100.5t36 -148.5t-59.5 -165t-137 -149.5t-198 -101.5q141 -4 201.5 -63t57.5 -146t-60.5 -188.5t-150.5 -187.5t-215 -143.5t-253 -57.5q-55 0 -109.5 17.5t-98.5 49t-72.5 78t-30.5 103.5q-2 37 16.5 60.5t41 30.5t42 -4t19.5 -44
q2 -45 19.5 -78t46 -54.5t65.5 -32.5t76 -11q65 0 126.5 43t107.5 106.5t72.5 138t20.5 138t-49 106.5t-133 43q-31 0 -44 16.5t-10 37t19.5 37t42.5 16.5q76 0 135.5 42t99.5 105.5t55 136t3 136t-56 105.5t-124 42t-109.5 -45t-19.5 -98.5t58 -98.5t124 -45q37 0 29 -32.5
t-47 -71.5t-100.5 -72t-129.5 -33q-78 0 -118.5 42t-49 105.5t17 139.5t80 143.5t139.5 115.5t196 59z" />
    <glyph glyph-name="four" unicode="4" horiz-adv-x="1061" 
d="M819 657q35 11 48.5 -4.5t12.5 -44t-15.5 -64.5t-37 -70t-51 -59.5t-57.5 -29.5q-21 -4 -54.5 0t-78.5 14q-60 -106 -105 -200.5t-61 -161.5q-10 -39 -37 -53.5t-54.5 -6t-46 37t-10.5 75.5q11 80 32.5 166t49.5 178q-78 8 -161.5 4t-163.5 -32q-37 -15 -60.5 -7.5
t-29.5 23.5q-11 20 -4.5 52t36.5 71q234 286 434.5 509.5t376.5 383.5q29 32 80 17t98.5 -58t77 -101.5t15.5 -109.5q-6 -25 -37 -79t-77 -129t-102.5 -164t-113.5 -183zM403 580q54 151 116.5 292.5t115.5 257.5q-55 -61 -120.5 -136.5t-131.5 -155.5t-128 -156t-112 -133
q74 18 132.5 22t127.5 9z" />
    <glyph glyph-name="five" unicode="5" horiz-adv-x="1145" 
d="M1171 1434q29 -4 38.5 -28t4 -56.5t-21.5 -69.5t-40 -69.5t-50.5 -57.5t-52.5 -31q-31 -8 -76 -1t-97.5 20.5t-111.5 31t-117 29.5q-2 -4 -12 -14q-66 -58 -126 -132.5t-108 -191.5q68 -2 157 -3t157 -1q141 -4 200.5 -68.5t53.5 -159.5t-66.5 -206t-158 -205
t-220.5 -156.5t-254 -62.5q-55 0 -104 15.5t-87 46t-61.5 74.5t-25.5 102q-2 36 16.5 60t41 31t42 -4.5t21.5 -43.5q4 -90 49 -128t123 -38q63 0 124.5 45t109.5 113.5t79 149.5t33 152.5t-30 123t-109 61.5h-30.5h-56t-57 -1t-33.5 -1q-30 0 -43.5 15.5t-11.5 33.5
q-4 27 14 59q33 80 59.5 134.5t51.5 92.5t48.5 64.5t47.5 54.5q-30 -4 -55 -12q-37 -14 -62.5 2.5t-31.5 44t9 59t58 48.5q115 45 233 65.5t223.5 25.5t188 -1t127.5 -12z" />
    <glyph glyph-name="six" unicode="6" horiz-adv-x="1155" 
d="M330 -16q-115 8 -189.5 80.5t-109.5 185t-30 253t48 282t123 271.5t197.5 223t272.5 136t343 10q92 -16 147.5 -64t78 -111.5t12 -132t-47 -125t-101 -91.5t-152.5 -29q-78 5 -123 49t-59.5 92t0 85t55.5 28q86 -16 142 7.5t80.5 59.5t15.5 68.5t-52 36.5q-80 7 -162 -32
t-161.5 -106.5t-152.5 -159t-132 -191.5q35 12 75.5 19.5t88.5 5.5q182 -9 277 -77.5t118.5 -165.5t-15 -208t-122.5 -202t-205 -148.5t-260 -48.5zM332 115q78 -4 138 38t102 107.5t61.5 144t13.5 147.5t-40 117t-99 52q-78 4 -130 -15.5t-89 -50.5q-47 -102 -74 -197.5
t-24.5 -170t36 -121.5t105.5 -51z" />
    <glyph glyph-name="seven" unicode="7" horiz-adv-x="967" 
d="M57 530q-32 -10 -41.5 15.5t-2.5 62.5t28.5 71t50.5 40q21 4 85.5 -4t150.5 -17q108 160 215.5 301.5t185.5 239.5q-96 -29 -185 -48.5t-167 -29.5t-139.5 -11t-98.5 5q-28 4 -37.5 27.5t-4.5 56.5t21.5 70t40 69.5t50.5 57t53 30.5q45 11 120 -5.5t160 -36t170 -31
t152 11.5q37 27 80 12.5t75 -51.5t45 -88t-11 -96q-13 -23 -54 -68t-102 -108.5t-136 -141.5t-155 -166q51 7 84 21q25 10 43.5 0t25.5 -28.5t1 -38t-31 -29.5q-59 -27 -114.5 -35t-112.5 -8q-115 -136 -215.5 -278t-159.5 -282q-16 -36 -45 -43.5t-54.5 6t-38 46t4.5 75.5
q39 105 104.5 225t143.5 242q-41 -6 -87 -15t-98 -26z" />
    <glyph glyph-name="eight" unicode="8" horiz-adv-x="1155" 
d="M752 1464q155 0 250.5 -37.5t139.5 -99t41 -138.5t-43 -154t-114 -147.5t-170 -117.5q78 -49 103.5 -128t9 -168t-70.5 -178t-134 -161t-180.5 -117t-210.5 -45q-117 0 -198 49.5t-125 127t-50 173t28.5 186.5t111.5 169t198 119q-37 51 -49.5 120.5t-1 144.5t47.5 146.5
t94 129t139 92t184 34.5zM358 123q68 0 121 39t90 99.5t55.5 132t15.5 135t-29.5 110.5t-80.5 59l-34 4q-105 0 -178.5 -43t-117.5 -107.5t-56.5 -139t7 -139t70.5 -107.5t137 -43zM569 836q64 0 115 38.5t87 96t53.5 124t15.5 123t-25.5 92.5t-71.5 33q-81 -6 -143.5 -46
t-101.5 -96t-56.5 -120.5t-9.5 -119t42 -90t95 -35.5z" />
    <glyph glyph-name="nine" unicode="9" horiz-adv-x="1085" 
d="M649 1438q172 0 270.5 -63.5t137.5 -167t23.5 -235.5t-73 -269.5t-148.5 -268.5t-205.5 -231.5t-244.5 -158.5t-266 -52q-57 2 -80.5 23.5t-19.5 46t31.5 42t70.5 15.5q84 -6 162 39t147.5 122.5t126 180t97.5 211.5q-51 -35 -115.5 -58.5t-148.5 -23.5q-109 0 -190 62.5
t-122 156.5t-36.5 204.5t67 205t189.5 157t327 62.5zM616 1309q-73 0 -132.5 -45t-101.5 -113t-62.5 -145.5t-15.5 -145t38 -113t98 -45.5q70 0 121 18.5t87 46.5t57.5 61.5t33.5 64.5q17 86 20 160.5t-11.5 132t-47 90.5t-84.5 33z" />
    <glyph glyph-name="colon" unicode=":" horiz-adv-x="612" 
d="M299 125q0 -49 -35 -84t-84 -35t-84 35t-35 84t35 84t84 35t84 -35t35 -84zM539 836q0 -50 -35 -84.5t-84 -34.5t-84 34.5t-35 84.5q0 49 35 83.5t84 34.5t84 -34.5t35 -83.5z" />
    <glyph glyph-name="semicolon" unicode=";" horiz-adv-x="621" 
d="M539 836q0 -50 -35 -84.5t-84 -34.5t-84 34.5t-35 84.5q0 49 35 83.5t84 34.5t84 -34.5t35 -83.5zM303 127q19 53 -6 85t-68 38t-90 -15.5t-71 -72.5q-23 -43 -28 -75t-7 -65.5t-8.5 -74.5t-26.5 -103q-23 -67 8 -82.5t84 25.5q33 25 64.5 64.5t59.5 86t51.5 96.5
t37.5 93z" />
    <glyph glyph-name="less.001" unicode="&#x3c;" horiz-adv-x="729" 
d="M360 168q-28 33 -54.5 65.5t-50.5 70.5t-45.5 83t-41.5 102q-10 29 -6 50.5t18 38.5q6 10 23 24q86 68 154.5 115t125 78.5t103.5 51t88 34.5q57 20 77.5 -6.5t11.5 -71.5t-41 -96.5t-77 -79.5q-37 -25 -72.5 -36t-73.5 -21.5t-79 -24t-90 -39.5q20 -31 42.5 -52.5
t46 -40t48.5 -37t51 -44.5q17 -19 20 -46.5t-6.5 -56t-27 -53t-41 -37t-50 -7.5t-53.5 36z" />
    <glyph glyph-name="equal.001" unicode="=" horiz-adv-x="854" 
d="M500 225q-43 -8 -75 -8t-70 6t-92 15.5t-140 19.5q-43 6 -48 32.5t13 55.5t54 50.5t75 19.5q62 -4 116 1t103 13t94 14.5t88 6.5q46 0 55 -32t-9.5 -71t-62.5 -75.5t-101 -47.5zM586 494q-43 -9 -75 -9t-70 6.5t-92 15.5t-140 19q-43 6 -48 33t13.5 55.5t54 50t74.5 19.5
q62 -4 116 1t103 13.5t94.5 14.5t88.5 6q45 0 54 -32t-9.5 -70.5t-62.5 -75.5t-101 -47z" />
    <glyph glyph-name="greater" unicode="&#x3e;" horiz-adv-x="743" 
d="M506 811q57 -66 104 -137.5t88 -184.5q11 -28 5.5 -49.5t-17.5 -38.5q-4 -6 -10 -13t-12 -11q-86 -68 -155 -115t-125 -78.5t-103.5 -51t-87.5 -34.5q-60 -20 -79.5 6.5t-10 71.5t41 96.5t76.5 79.5q37 25 73 36t74 21.5t78.5 23.5t90.5 40q-21 31 -43.5 52.5t-46 40
t-48 37t-51.5 44.5q-26 27 -20 73t32.5 82t65.5 45t80 -36z" />
    <glyph glyph-name="question" unicode="?" horiz-adv-x="1130" 
d="M827 1739q142 8 243 -22.5t159.5 -90t74 -142.5t-17.5 -178.5t-112.5 -198.5t-212.5 -204q-66 -49 -127.5 -88t-122 -84t-122 -108.5t-124.5 -161.5q-16 -27 -45 -31t-52.5 9.5t-34.5 41t5 66.5q41 100 100.5 168.5t122 124t122.5 105.5t103 112q88 125 132.5 231.5
t47.5 183t-37 119.5t-120 43q-53 0 -96 -29.5t-73 -74.5t-44 -97.5t-9 -97.5t30.5 -74.5t74.5 -29.5q37 0 29 -33t-47 -72t-99.5 -71.5t-130.5 -32.5q-77 0 -113 51t-35 128t37 168t104.5 170t166.5 135.5t223 64.5zM377 78q0 -62 -43 -106t-107 -44q-61 0 -105 44t-44 106
q0 63 44 106t105 43q64 0 107 -43t43 -106z" />
    <glyph glyph-name="at.001" unicode="@" horiz-adv-x="1454" 
d="M897 688q14 35 58 41t87 -10.5t71 -53t13 -85.5q-10 -33 -32.5 -77t-49 -90t-52 -91.5t-40 -80t-13.5 -54t30 -17.5q53 4 100 52t82 110l10 20l47 90l11 23l8 16q55 123 73.5 232.5t-5 190.5t-93 129t-194.5 48q-158 0 -291 -51t-237.5 -136t-178.5 -192.5t-114 -221
t-46 -221t28 -192.5t106.5 -136.5t189.5 -51.5q80 0 158.5 29t154.5 78q31 20 61.5 17t45 -21.5t5.5 -49t-61 -69.5q-88 -68 -196.5 -93.5t-208.5 -25.5q-156 0 -257 63.5t-151.5 167t-52.5 235.5t42 269t130 269.5t212 235.5t289 166.5t359 63.5q138 0 232 -33.5t149.5 -95
t74.5 -144.5t7 -180t-53 -207t-105 -220q-26 -49 -65 -103.5t-86 -98.5t-104.5 -73.5t-120.5 -29.5q-78 0 -109 56t-31 142q-51 -84 -119.5 -139t-156.5 -49q-94 8 -147.5 59.5t-72 130t-1 173t66.5 186.5t127 173t183.5 131t235.5 60.5t282 -37.5q37 -12 54 -35.5t14 -46
t-27.5 -36t-73.5 -0.5q-115 26 -214 -7.5t-179 -101t-136.5 -156t-84 -168t-22.5 -137t48 -65.5q39 -8 78 23.5t75 85t66.5 119t55.5 126.5q16 55 32.5 99t28.5 71l53 -27q-18 -71 -41 -147q-20 -66 -51 -141.5t-74 -143.5q0 68 15.5 145t36.5 144q14 35 24 66.5t19 54.5
q8 27 16 51l2 -2v2z" />
    <glyph glyph-name="A" unicode="A" horiz-adv-x="1489" 
d="M90 397q-35 -10 -48 5.5t-12 45t15 65.5t36.5 69.5t50.5 58.5t56 31q35 4 139.5 -11.5t237.5 -29.5q105 162 210.5 329.5t193.5 313t148.5 253t76.5 148.5q10 27 25 37q20 29 58 33t82 -11.5t89 -45t79 -66.5t52 -77t8 -75q-8 -30 -37.5 -124.5t-69.5 -224.5t-85 -282.5
t-84 -298t-66.5 -269.5t-32.5 -197q-2 -25 -22.5 -48.5t-46 -30.5t-51 6t-37.5 60q-23 86 -28 206t1 259q-57 -16 -110.5 -25t-106.5 -14.5t-106.5 -7.5t-110.5 -4q-72 -108 -139.5 -205.5t-124 -174.5t-98.5 -128t-64 -65q-39 -27 -65.5 -28t-36 15.5t0 43t42.5 55.5
q18 16 53 58t81 105.5t101 143.5t115 170q-80 -8 -170 -23.5t-199 -44.5zM1118 1303q-84 -142 -196.5 -322t-231.5 -363q92 -6 181.5 -3t162.5 24q13 172 35.5 344t48.5 320z" />
    <glyph glyph-name="B" unicode="B" horiz-adv-x="1483" 
d="M383 1077q12 -28 0 -56t-39 -49.5t-61.5 -36.5t-69.5 -20.5t-63.5 1t-40.5 26.5q-19 31 -8.5 97.5t52.5 148.5t115.5 170t182 160.5t254 118.5t329.5 46q183 0 295.5 -51t165.5 -132t53 -182t-43 -201.5t-125 -188.5t-190 -144q100 -47 134 -131t12.5 -184t-94.5 -204.5
t-185.5 -189.5t-261 -139.5t-320.5 -54.5q-55 0 -76.5 19.5t-18.5 42t25.5 42t57.5 19.5q123 0 225.5 52.5t178 131t119.5 171t51 171t-25.5 131t-114.5 52.5h-2q-39 0 -57.5 18.5t-15.5 40t29 39.5t73 18q61 0 119.5 55.5t101.5 139.5t63.5 180t6 180t-69.5 139.5
t-166 55.5q-168 0 -291 -56.5t-198.5 -135t-103.5 -164.5t-3 -146zM592 1366q14 35 48 40t74 -10.5t81 -47t72.5 -70.5t48 -81t6.5 -79q-9 -31 -56 -107.5t-112.5 -177t-141 -215t-142.5 -222t-114 -196.5t-57 -139q-8 -38 -34.5 -52.5t-54.5 -6.5t-46.5 37t-11.5 76
q16 121 52 253t81 261t93 249.5t92 220t77 169t45 98.5z" />
    <glyph glyph-name="C" unicode="C" horiz-adv-x="1042" 
d="M1081 1675q140 -22 208.5 -82.5t81.5 -136.5t-19.5 -159t-95 -151.5t-145.5 -112.5t-171 -44q-78 0 -126 37t-66.5 82t-6 82t55.5 37q57 0 117.5 23.5t112.5 58t91 74.5t52.5 75t-4 58.5t-76.5 23.5q-89 0 -181 -60.5t-178 -159.5t-161.5 -226t-133 -260.5t-90.5 -260.5
t-32 -226t39 -159.5t124 -60.5q139 0 238.5 38t166 93t105.5 115.5t60 105.5q18 45 46.5 61.5t50 8.5t30 -40t-10.5 -83q-20 -51 -70.5 -124t-134.5 -140.5t-202.5 -114.5t-272.5 -47q-129 0 -218 80t-136 208t-52 290.5t30.5 327.5t114.5 318.5t201 265.5t285.5 166
t372.5 19z" />
    <glyph glyph-name="D" unicode="D" horiz-adv-x="1440" 
d="M522 1366q15 35 48.5 40t73.5 -10.5t82 -47t73.5 -70.5t48 -81t6.5 -79q-8 -31 -55 -107.5t-114 -177t-142.5 -215t-141 -222t-112.5 -196.5t-58 -139q-8 -38 -34.5 -52.5t-54 -6.5t-47 37t-11.5 76q16 121 52 253t80 261t93 249.5t92 220t76 169t45 98.5zM1366 651
q-80 -172 -189.5 -324.5t-232.5 -266t-250 -179t-241 -65.5q-58 0 -81.5 19.5t-21.5 42t26.5 42t63.5 19.5q80 0 157 54t149.5 150.5t140 228.5t129.5 287q43 109 72.5 219.5t42 213t8.5 190.5t-31 154.5t-75 104.5t-122 38q-168 0 -290.5 -56.5t-198.5 -135t-103.5 -164.5
t-3.5 -146q17 -43 -17 -82t-85 -61.5t-102.5 -22.5t-69.5 31t-8 97.5t51 148.5t115.5 170t183.5 160.5t254 118.5t330 46q229 0 355 -86t167 -229t5 -329.5t-128 -387.5z" />
    <glyph glyph-name="E" unicode="E" horiz-adv-x="1073" 
d="M1081 1675q119 -10 179.5 -65.5t73 -131t-15.5 -161.5t-84 -159t-134 -121t-166 -48q-78 0 -123 37t-60.5 82t0 82t56.5 37q57 0 116.5 24.5t109.5 60.5t87 78t48.5 77.5t-8 60t-79.5 24.5q-92 0 -173 -48t-142 -119.5t-98 -154.5t-39 -154.5t34.5 -120t122.5 -48.5
q31 0 42.5 -18.5t6 -42t-27 -42t-57.5 -18.5q-105 0 -177.5 -49t-114.5 -121.5t-54.5 -158.5t4 -159t62.5 -122t120 -49q94 0 174 38t143.5 93t107.5 115.5t66 105.5q23 45 51.5 61.5t50 8.5t28 -40t-16.5 -83q-25 -51 -82 -124t-140 -140.5t-187.5 -114.5t-223.5 -47
q-149 0 -253.5 65.5t-162 163t-66.5 213t34 215t136 167t243 71.5q-91 39 -134 115.5t-41 170t51.5 187.5t144.5 169t237.5 115t330.5 23z" />
    <glyph glyph-name="F" unicode="F" horiz-adv-x="1028" 
d="M969 782q45 0 50 -40t-14.5 -87t-55.5 -87t-72 -40q-84 0 -199 -4t-240 -30q-43 -66 -82 -130.5t-69.5 -121t-52 -103.5t-27.5 -80q-8 -39 -35 -53t-54.5 -6t-46 37t-12.5 76q17 120 48.5 245t69.5 246t80 231.5t79 200.5t65.5 153.5t40.5 92.5q15 35 48.5 40t73.5 -10.5
t82 -47t74 -70.5t48 -81t6 -79q-6 -20 -27.5 -59t-52 -89t-70.5 -110.5t-83 -126.5q59 23 122.5 46.5t122 43t106.5 31.5t77 12zM1507 1632q37 2 57.5 -25.5t24.5 -69.5t-6 -93t-30.5 -97.5t-51.5 -80t-67 -39.5q-31 -6 -110 4t-183.5 27.5t-222 38t-228 35t-201 20.5
t-139.5 -9q-39 -10 -63.5 7.5t-28.5 46t12.5 58.5t61.5 44q114 39 238 63.5t244 39t231.5 20.5t204.5 8t160 1t97 1z" />
    <glyph glyph-name="G" unicode="G" horiz-adv-x="1241" 
d="M870 727q23 51 70 47t91 -42t71.5 -96t13.5 -114q-8 -30 -34.5 -83.5t-61.5 -120t-74 -141.5t-73.5 -147.5t-61.5 -139t-37 -115.5q-8 -39 -34.5 -52.5t-54.5 -5t-47.5 37t-10.5 73.5q10 68 20 129t21 119q-39 -35 -82 -54.5t-92 -19.5q-129 0 -216.5 80t-131.5 208
t-46 290.5t38 327.5t123 318.5t207 265.5t291 166t374 19q139 -22 214.5 -80.5t100.5 -132t4.5 -153.5t-72 -145.5t-127 -108.5t-163.5 -43q-78 0 -126.5 36.5t-66.5 82t-6 82t55 36.5q58 0 111 21.5t95 54.5t67.5 71t28.5 70.5t-21.5 54t-83.5 21.5q-88 0 -182.5 -60.5
t-183.5 -160.5t-169 -227t-141 -259t-98 -259t-39 -227.5t33.5 -161t121.5 -60.5q54 0 96 26.5t74.5 69.5t58 96.5t44.5 106.5l49 143q4 9 5 15t5 10q31 82 53 131z" />
    <glyph glyph-name="H" unicode="H" horiz-adv-x="1481" 
d="M1444 1624q14 35 48 40t74 -10.5t82 -46t73.5 -70.5t48 -82t6.5 -79q-7 -22 -42.5 -81.5t-91 -142.5t-123 -183.5t-139 -208t-139 -214t-123 -202.5t-92.5 -174t-43 -127q-6 -41 -32.5 -54.5t-54.5 -5t-48.5 37t-11.5 75.5q16 117 61 263.5t104 299.5q-98 -28 -182 -35.5
t-176 -11.5q-53 -92 -100 -178t-84 -158.5t-61.5 -128t-30.5 -86.5q-9 -38 -35.5 -52.5t-54 -6.5t-47 37t-11.5 76q12 98 47 218t84 251q-53 -9 -109.5 -21t-121.5 -31q-35 -10 -48.5 5.5t-12.5 45t15.5 65.5t37 70t50 58.5t56.5 30.5q23 4 79 -4t132 -19
q64 158 132.5 309.5t129 275.5t102.5 211t54 114q14 35 43 40t61.5 -11.5t65.5 -48.5t57.5 -71.5t35.5 -81.5t1 -79q-6 -25 -42 -91.5t-90 -159.5t-120.5 -207t-134.5 -230q88 -4 173 2t157 28q61 148 124.5 288t119 254t95.5 192.5t52 105.5z" />
    <glyph glyph-name="I" unicode="I" horiz-adv-x="629" 
d="M610 1624q15 35 48.5 40t73.5 -10.5t82 -46t74 -70.5t48 -82t6 -79q-6 -22 -42 -81.5t-91 -142.5t-123 -183.5t-139.5 -208t-139 -214t-123 -202.5t-92 -174t-42.5 -127q-7 -41 -33.5 -54.5t-54 -5t-48 37t-12.5 75.5q16 121 64.5 273.5t112 312.5t134 316.5t133 286.5
t107.5 220t57 119z" />
    <glyph glyph-name="J" unicode="J" horiz-adv-x="1288" 
d="M1212 664q-79 -172 -194 -327t-245 -270.5t-263 -183t-248 -67.5q-74 0 -133 33.5t-90 90t-27 131t56 156.5q24 39 48.5 48.5t41 -3t19.5 -39t-15 -55.5q-23 -35 -28 -77t5.5 -77.5t38 -60t72.5 -24.5q78 0 158.5 56t158.5 154.5t149.5 231.5t133.5 289q43 108 79 216.5
t58.5 209t27.5 186.5t-11.5 149.5t-58.5 100.5t-116 37q-59 0 -94 -32t-49 -78t-6 -97t39 -90q29 -37 -3 -65.5t-87.5 -38t-116.5 8t-94 72.5q-47 80 -35 156t74.5 135t171 96t256.5 37q153 0 254.5 -38t158 -105.5t74 -160.5t2 -205.5t-57.5 -239.5t-104 -260z" />
    <glyph glyph-name="K" unicode="K" horiz-adv-x="1303" 
d="M1307 1673q6 27 29.5 27t55 -20.5t64.5 -56.5t57.5 -79t33.5 -91t-7 -91q-14 -39 -89 -98.5t-182.5 -131t-234.5 -154.5t-250 -167q160 68 265 72q10 2 17 1t17 -3q27 -4 39 -11q45 -20 71 -64t9 -101q-10 -37 -41 -93.5t-66.5 -120t-71.5 -128t-58.5 -116.5t-23.5 -87
t34 -37q37 -4 86 35t97 95t89 118.5t62 107.5q20 45 47.5 61.5t50.5 8.5t31 -39t-13 -82q-20 -51 -63 -125t-103.5 -141.5t-136 -115.5t-161.5 -48q-72 0 -115 36t-64.5 94t-22.5 135t13 158t42 159.5t63 144.5q-129 -18 -278.5 -114.5t-281.5 -270.5q-53 -92 -86.5 -166
t-40.5 -121q-6 -41 -32.5 -54t-54 -5t-48 36.5t-12.5 75.5q16 121 65.5 276t114 317.5t136 322.5t135 292t109.5 224t59 121q14 35 47.5 40t73.5 -10.5t82 -47t74 -70.5t48.5 -81t5.5 -79q-8 -27 -53 -99.5t-112.5 -175t-149.5 -224t-162 -246.5q29 26 93.5 89.5
t147.5 149.5t172 187.5t168 205t136 200.5t74 175z" />
    <glyph glyph-name="L" unicode="L" horiz-adv-x="1321" 
d="M1331 481q19 39 45.5 54.5t48 10.5t31.5 -33t-8 -75q-16 -41 -53 -105.5t-85 -132t-103.5 -129t-104.5 -96.5q-31 -26 -55 -32q-31 -9 -94.5 -2.5t-144.5 17.5t-175 23.5t-185.5 17.5t-174.5 0t-144 -30q-37 -14 -62.5 2.5t-31.5 45t9 60.5t58 48q48 18 96 34.5t95 28.5
q0 19 2 29q16 121 63.5 266.5t109.5 296t132 297t130.5 266t104.5 203.5t56 113q14 35 48 40t74 -10.5t82 -47t73.5 -70.5t48 -81t6.5 -79q-9 -29 -60 -105.5t-125.5 -182t-164 -229.5t-171 -246t-147.5 -231.5t-94 -189.5q119 23 230.5 32t203.5 10t160.5 -4t105.5 -11l2 2
q19 2 43 25q23 20 53.5 66t71.5 134z" />
    <glyph glyph-name="M" unicode="M" horiz-adv-x="1552" 
d="M690 1692q15 34 43.5 39.5t62 -11t66.5 -48.5t57.5 -71.5t36 -81.5t0.5 -79q-4 -13 -8 -19l-233 -991l827 1196l2 4q19 35 52.5 39t71.5 -13.5t77 -50t66.5 -73.5t42 -84t4.5 -78q-9 -29 -49 -94.5t-99 -154.5t-130 -194.5t-138.5 -212t-124.5 -206.5t-92 -180
t-38 -130.5t40 -58.5q45 -8 96 27t97 89t83 116.5t58 107.5q20 45 47.5 61.5t50 7.5t31 -40t-12.5 -82q-14 -35 -38.5 -80t-59.5 -94t-78 -97.5t-93 -84t-104.5 -57t-111.5 -17.5q-105 6 -148 73.5t-41.5 174t37 243t90.5 279.5l-417 -596q-23 -35 -57.5 -51.5t-64.5 -12
t-48.5 33t-7.5 85.5q6 37 21 118t36.5 183.5t45.5 213t44 206.5q-76 -131 -156 -269t-147.5 -261t-112.5 -218.5t-53 -138.5q-8 -39 -34.5 -53t-54.5 -6t-47.5 37t-10.5 76q16 120 65 276t114.5 322t138.5 329.5t137.5 299t110.5 229.5t58 123z" />
    <glyph glyph-name="N" unicode="N" horiz-adv-x="1454" 
d="M686 1692q14 34 43 39.5t62.5 -11t66.5 -48.5t57.5 -71.5t36 -81.5t0.5 -79q-10 -33 -69.5 -140.5t-145.5 -255.5q158 189 282 307.5t212 188.5q102 82 180 121q25 12 58.5 5t67.5 -28.5t66.5 -53.5t55 -68.5t33 -74.5t2.5 -71q-8 -29 -48 -94.5t-99.5 -155.5
t-130 -195.5t-138.5 -212t-125 -206.5t-92 -180t-38 -130.5t40 -56.5q65 -10 128.5 25t117 90t93.5 117.5t60 107.5q21 45 48.5 61.5t50 7.5t30.5 -40t-12 -82t-69.5 -125t-122 -141.5t-163.5 -115.5t-196 -48q-110 0 -152 71.5t-36 189.5t50 267.5t106.5 305t133 303
t127.5 262.5q-86 -70 -204.5 -189t-252.5 -272.5t-273.5 -334.5t-266.5 -374q-59 -28 -77.5 -1.5t40.5 118.5q144 221 272 394t242 308q-53 -90 -110.5 -189t-114.5 -198.5t-109.5 -192.5t-93.5 -172t-67.5 -139.5t-32.5 -93.5q-8 -39 -35 -53t-54.5 -6t-47 37t-11.5 76
q17 120 66 276t114.5 322t138.5 329.5t137.5 299t110.5 229.5t58 123z" />
    <glyph glyph-name="O" unicode="O" horiz-adv-x="1096" 
d="M932 1673q160 0 248 -72.5t117.5 -190.5t8 -269.5t-81 -308t-150.5 -308t-198.5 -269.5t-227.5 -190.5t-236 -72.5q-117 0 -192 72.5t-109.5 190.5t-32.5 269.5t41 308t110.5 308t174 269.5t235.5 190.5t293 72.5zM399 158q68 0 135.5 56t129 148.5t114.5 210t90 240.5
t55.5 240.5t10.5 210t-45 148.5t-109 56q-92 0 -173 -56t-148.5 -148.5t-118.5 -210t-83 -240.5t-41 -240.5t6.5 -210t58.5 -148.5t118 -56z" />
    <glyph glyph-name="P" unicode="P" horiz-adv-x="1352" 
d="M551 1364q14 35 48 40t74 -10.5t82 -47t73.5 -70.5t47 -81t5.5 -79q-9 -31 -56 -107.5t-112.5 -177t-141 -215t-142.5 -222t-114 -196.5t-57 -139q-6 -39 -32.5 -53t-54.5 -6t-47.5 37t-12.5 76q16 120 52 251.5t81 261.5t94 250.5t92 220t76 169t45 98.5zM342 1075
q12 -28 0 -56t-39 -49.5t-61.5 -36.5t-69.5 -20.5t-63.5 1t-40.5 26.5q-19 31 -8.5 97.5t52.5 148.5t115.5 170t182 160.5t254 118.5t329.5 46q195 0 313.5 -51t174 -136t54.5 -192.5t-45 -221t-126 -221t-187.5 -192.5t-229.5 -136.5t-253 -51.5q-41 0 -59.5 18.5t-15 40
t29 40t72.5 18.5q57 0 118.5 42t117 111.5t101.5 157.5t75.5 179.5t38 179.5t-12 157.5t-74 111.5t-147.5 42q-168 0 -291 -56.5t-198.5 -135t-103.5 -164.5t-3 -146z" />
    <glyph glyph-name="Q" unicode="Q" horiz-adv-x="1227" 
d="M920 1675q141 0 226 -57t123 -154.5t32.5 -224.5t-44 -266t-105.5 -279.5t-154 -265.5t-187 -223.5t-205 -153.5q35 -92 85 -114.5t128 -14.5q86 8 130 -16.5t46 -59t-36.5 -67.5t-120.5 -39q-119 -10 -213.5 54.5t-141.5 209.5q-47 -10 -84 -10q-116 0 -191 72.5
t-110 190.5t-32.5 269.5t41 308t110.5 308t174.5 269.5t235.5 190.5t293 72.5zM272 551q93 -35 166.5 -115t114.5 -192q74 73 141.5 192t118.5 255t81 275.5t29 251t-37 182t-118 70.5q-76 0 -146.5 -40.5t-131 -109.5t-110.5 -159t-87 -191.5t-60.5 -206t-29.5 -200.5
q35 0 69 -12zM387 160q31 0 55 8q-34 102 -101 157.5t-136 82.5q10 -111 54 -179.5t128 -68.5z" />
    <glyph glyph-name="R" unicode="R" horiz-adv-x="1335" 
d="M526 1364q15 35 48.5 40t73.5 -10.5t82 -47t74 -70.5t48 -81t6 -79q-6 -18 -24.5 -51t-46 -79t-63.5 -100.5t-75 -115.5q35 16 74 30.5t80 24.5q90 47 165.5 121t127 158t72 168t3 151.5t-79 110.5t-173.5 43q-168 0 -291 -56.5t-199 -135t-103.5 -164.5t-2.5 -146
q16 -43 -18 -82t-85 -61.5t-102 -22.5t-70 31q-18 31 -8 97.5t52 148.5t116 170t182.5 160.5t253.5 118.5t330 46q188 0 307 -44t176 -113.5t57 -159.5t-49 -180t-143 -175t-225 -147q32 -4 69 -19.5t66 -37t45 -47t8 -51.5q-10 -37 -46 -93.5t-80 -121t-89 -129
t-74.5 -116.5t-36 -87t26.5 -37q37 -4 90 31.5t106.5 90t96.5 118t61 116.5q19 45 47.5 61.5t50 8.5t30 -39t-10.5 -82q-20 -51 -66.5 -125t-111 -141.5t-143 -115.5t-164.5 -48q-76 0 -114 27.5t-50 73.5t-4 104.5t27.5 121t42 124t40 111.5t22.5 84t-13 42
q-29 12 -72 18.5t-91 3.5t-97.5 -17.5t-90.5 -39.5q-57 -88 -114.5 -176t-103.5 -168t-77.5 -144.5t-39.5 -103.5q-9 -39 -35.5 -53t-54 -6t-47 37t-11.5 76q16 120 52 251.5t80 261.5t93 250.5t92.5 220t76 169t44.5 98.5z" />
    <glyph glyph-name="S" unicode="S" horiz-adv-x="1204" 
d="M729 1280q57 0 114.5 19.5t105.5 50t82 64.5t43 64.5t-11.5 50t-79.5 19.5q-88 0 -167 -43t-139.5 -108.5t-97 -141t-40.5 -141t27.5 -108.5t111.5 -43q160 0 259 -43t148.5 -114t51.5 -161t-35 -181t-110.5 -177t-174 -150.5t-225.5 -98.5t-266 -22q-119 11 -178.5 70
t-69.5 142t20.5 176.5t89 172t138.5 131t168 52.5q77 0 122.5 -37t60.5 -82t0 -82t-56 -37q-58 0 -118.5 -28.5t-113.5 -70.5t-92 -92t-52.5 -92t4 -71t77.5 -29q88 0 172 52.5t150.5 130t110.5 168t53 168t-23.5 130t-116.5 52.5q-142 0 -235 39t-142 101t-56.5 141
t22.5 160t93.5 156.5t155.5 132t212 85t261 16.5q119 -10 180.5 -61t76.5 -121t-9.5 -148.5t-78.5 -144.5t-130 -110t-164 -44q-80 0 -125 37t-60.5 82t0 82t56.5 37z" />
    <glyph glyph-name="T" unicode="T" horiz-adv-x="735" 
d="M1481 1659q28 -4 37.5 -27.5t4.5 -56.5t-21.5 -70t-40 -69.5t-50.5 -57t-53 -30.5q-27 -7 -91.5 -2.5t-152.5 12.5t-191.5 18t-209.5 19q30 -25 58 -54.5t46.5 -62.5t26.5 -64.5t0 -60.5q-8 -33 -60.5 -108.5t-125 -176t-155.5 -217t-157 -230.5t-126 -214.5t-60 -167.5
q-6 -41 -34 -55.5t-56.5 -5t-49 40t-14.5 77.5q17 123 55.5 258t88 269.5t104.5 260.5t104.5 230.5t88 181t53.5 111.5q-33 8 -117 2t-137 -29q-37 -14 -62.5 2.5t-32.5 45t8 60t59 48.5q112 45 212 70.5t238.5 42t271.5 21.5t242.5 4t188.5 -6t110 -9z" />
    <glyph glyph-name="U" unicode="U" horiz-adv-x="1200" 
d="M1110 1622q14 35 47 44t72 -1t79 -34.5t70.5 -58.5t46 -72t5.5 -75q-9 -28 -42.5 -101t-84 -174t-109.5 -221t-117.5 -242t-108.5 -234.5t-82 -200.5t-40 -140.5t20 -52.5q47 0 98.5 49.5t99.5 118t86 141t58 117.5q19 45 47.5 60.5t52 5.5t33 -42t-9.5 -83
q-14 -35 -39.5 -85t-61.5 -107.5t-81 -114t-96.5 -101.5t-106.5 -73.5t-112 -28.5q-50 0 -80.5 24.5t-47 69.5t-19.5 107.5t3 138.5q-35 -68 -76 -129t-88 -109.5t-99 -76t-110 -27.5q-90 0 -145 51t-80.5 140.5t-24.5 208t21.5 255t59 282.5t89 288.5t108.5 274.5t120 239
q20 37 55 40t72 -16.5t72.5 -56.5t60.5 -78t33 -81t-10 -66q-54 -82 -117.5 -208t-124 -268.5t-109.5 -289t-75.5 -268t-23.5 -205.5t50 -103q33 -14 72 12.5t80 78t79.5 120t75.5 141t67 142t52 121.5q43 157 96.5 315t102.5 290t87 226t50 123z" />
    <glyph glyph-name="V" unicode="V" horiz-adv-x="1124" 
d="M602 1532q-29 -45 -62.5 -130t-68.5 -191.5t-67.5 -228.5t-59.5 -241.5t-46 -229.5t-24.5 -194t3 -134t36.5 -50q41 0 91.5 59.5t103.5 158t107.5 225t104.5 260t95 264.5t79 237.5t54.5 177t22.5 87.5q4 18 32.5 20t67.5 -14.5t80 -51t67.5 -87t31.5 -124t-27 -159.5
q-23 -60 -67 -171.5t-107.5 -244.5t-145.5 -271.5t-177 -252t-203.5 -185t-225.5 -71.5q-76 0 -116 58t-52 155.5t-1 223.5t36.5 262t62.5 273.5t75 255t74 206.5t60 130q33 56 72 74.5t67.5 10t40 -38t-13.5 -68.5z" />
    <glyph glyph-name="W" unicode="W" horiz-adv-x="1630" 
d="M1110 1550q-29 -45 -64.5 -133t-72.5 -200.5t-73 -240.5t-66.5 -255t-52 -244t-31 -206t-2 -142t35.5 -53q45 0 101.5 65.5t115.5 173.5q-34 68 -46.5 160t-4.5 198.5t33 220.5t63.5 222.5t91 205.5t114 170t131 116t143.5 43q53 -35 66.5 -55.5t4.5 -32.5
q-8 -15 -38 -21q-37 -4 -76 -30.5t-68 -47.5h-2q-14 2 -10 18.5t14 38t22.5 43t14.5 31.5q8 29 27.5 42.5t46.5 13.5q37 0 91 -19.5t95 -70t54.5 -137.5t-35.5 -220q-21 -55 -63 -161.5t-103.5 -235.5t-138 -268.5t-166.5 -259.5q55 -17 110 -7.5t104.5 37t91.5 72.5t70 104
q23 47 52.5 60.5t52 1.5t29 -47t-16.5 -84q-37 -78 -94 -140.5t-133 -97.5t-164 -39t-186 35q-95 -108 -198 -176t-214 -68q-76 0 -113 59.5t-47 160.5q-65 -101 -143 -168.5t-170 -67.5q-90 0 -145.5 51t-81 140.5t-24.5 208t21.5 255t59.5 282.5t89 288.5t108.5 274.5
t119.5 239q21 37 55.5 40t71.5 -16.5t73 -56.5t60.5 -78t32.5 -81t-10 -66q-53 -82 -116.5 -208t-124 -268.5t-109.5 -289t-76 -268t-24 -205.5t51 -103q30 -12 65 9.5t72 64.5t73.5 103.5t71.5 125.5q10 109 33 232t53.5 246.5t66.5 240.5t69.5 215.5t64.5 172t51 108.5
q33 55 72 73.5t67.5 10.5t40 -37t-13.5 -68zM1417 1464h-4q-29 -2 -68.5 -51t-80.5 -130t-80 -184.5t-64.5 -212t-36 -214t6.5 -189.5q49 103 96 215.5t88 221t73.5 208t52 174t25 118.5t-7.5 44z" />
    <glyph glyph-name="X" unicode="X" horiz-adv-x="1145" 
d="M403 1618q17 53 73 61.5t118.5 -14.5t115 -70t62.5 -102q6 -37 4 -145.5t-6 -251.5q64 94 121 178t105 152.5t85 116.5t58 69q51 51 89 56t54 -17.5t7 -62.5t-48 -77q-18 -18 -64.5 -79.5t-111 -153.5t-142 -208t-161.5 -239q-4 -139 -4 -276t6 -244.5t21.5 -174
t43.5 -66.5q48 0 96 47t92 113.5t78.5 136t55.5 114.5q20 45 49 61.5t51.5 8.5t31.5 -39t-11 -82q-15 -35 -38.5 -84t-57 -104.5t-75.5 -110.5t-90 -98t-102.5 -71t-111.5 -28q-56 0 -100 43t-76.5 118t-56 174.5t-40.5 211.5q-67 -98 -127.5 -187t-109.5 -158.5t-84 -117
t-49 -61.5q-41 -41 -72 -44t-44 17.5t-5 56.5t45 74q16 17 56 74.5t96.5 141t126 189t145.5 220.5q-10 115 -17.5 228.5t-11.5 212t-7 177t-7 126.5q-4 34 -13.5 65t-19.5 55.5t-17.5 41t-5.5 26.5z" />
    <glyph glyph-name="Y" unicode="Y" horiz-adv-x="918" 
d="M854 1604q23 51 70 51t91 -33t70.5 -87t12.5 -110q-8 -26 -37 -99t-73 -174t-100.5 -226t-122 -256t-136 -261t-142.5 -243q43 8 100.5 27.5t118 55.5t118 92t102.5 140q20 37 47.5 53.5t49 10.5t30 -33t-10.5 -74q-28 -71 -82.5 -133.5t-124 -115t-146.5 -94.5
t-147.5 -72.5t-129 -50t-90.5 -27.5q-13 -2 -21 0q-18 0 -35.5 10t-26 28.5t-6 44t20.5 54.5q41 65 84 150t84 180.5t82 199t80 207.5q-72 -96 -153 -153.5t-169 -38.5q-74 14 -109.5 64t-42 125t11 170t53.5 200.5t85 217.5t102 218q19 37 50.5 46t65.5 -1t68 -36.5
t56.5 -59.5t30.5 -69t-8 -64q-54 -101 -121.5 -212.5t-119.5 -209.5t-73.5 -167t17.5 -83q34 -12 74 10.5t81 67.5t80 104.5t74 122t63.5 120.5t47.5 99q40 121 67 204t39 110z" />
    <glyph glyph-name="Z" unicode="Z" horiz-adv-x="1069" 
d="M451 1352q20 -41 10 -80t-39 -72t-68 -56.5t-77.5 -35.5t-71.5 -9t-45 23q-19 31 -22 85.5t12.5 118t52.5 129t99.5 118.5t152.5 87t213 34q219 0 340.5 -59.5t162.5 -152.5t11.5 -210t-110.5 -231.5t-204 -216t-268 -162.5q86 -27 143.5 -70t90 -95.5t40 -112.5
t-5.5 -122q58 29 112 83t105 147q25 43 52.5 54t49 0t28 -40t-12.5 -68q-39 -78 -85 -133t-95 -92t-102.5 -59.5t-106.5 -32.5q-39 -66 -99.5 -123t-138 -101t-171 -70t-197.5 -26q-74 0 -122 34t-60.5 86t15.5 114.5t103 122.5q41 32 87 46.5t94.5 19.5t98.5 2t103 -7
q15 66 5.5 131.5t-42 117.5t-91 85t-144.5 33q-41 0 -59.5 18.5t-15.5 40t28.5 39.5t73.5 18q59 0 125.5 38t130 100.5t120 142.5t95.5 163t57 163t5 142t-61 100t-141 38q-37 0 -75.5 -19.5t-66.5 -51t-36 -74.5t17 -92zM195 -76q104 0 179 54.5t115 136.5q-86 4 -156.5 2
t-115.5 -37q-33 -27 -49 -54.5t-17 -50t10 -37t34 -14.5z" />
    <glyph glyph-name="bracketleft.001" unicode="[" horiz-adv-x="838" 
d="M666 -72q24 0 27 -34.5t-6 -76.5t-29.5 -79t-43.5 -43q-12 -4 -52 0t-94 11t-115.5 14.5t-118 12.5t-101.5 6t-65 -7q-17 -6 -26 7t-10 32.5t6 39t25 27.5q23 10 46.5 18.5t50.5 16.5v17.5t2 17.5q12 104 37.5 227t57.5 250t68.5 253t72.5 238.5t68 206t54 156.5
q-16 -4 -25.5 10.5t-9.5 35t9.5 39.5t27.5 28q78 34 182.5 52.5t202 28t173 10.5t96.5 1q24 0 28 -36t-6 -79t-31.5 -81t-46.5 -44q-14 -4 -53 -1t-91 9.5t-113.5 13.5t-119.5 13q23 -41 33 -85t0 -83q-6 -29 -38.5 -108.5t-80 -187t-102.5 -232.5t-106.5 -245t-92.5 -224.5
t-59 -169.5q61 8 121.5 13t112 8t87 3h48.5z" />
    <glyph glyph-name="backslash" unicode="\" horiz-adv-x="889" 
d="M0 1346q-14 34 -2 56.5t41 32t68.5 7.5t79.5 -15.5t75 -38t53 -57.5q25 -41 55.5 -140t87 -256t149.5 -372t241 -485q18 -35 12 -64.5t-26.5 -45t-51 -9.5t-57.5 43q-76 96 -156 225t-156.5 268.5t-146 279.5t-125 257t-93.5 201t-48 113z" />
    <glyph glyph-name="bracketright.001" unicode="]" horiz-adv-x="940" 
d="M301 1225q-25 0 -28 34.5t6.5 76.5t30 79t42.5 43q13 2 52.5 -1t94 -10t116 -14.5t117.5 -12.5t101.5 -6t65.5 7q14 6 24.5 -7t11.5 -32.5t-6 -39t-26 -27.5q-22 -10 -47 -18.5t-51 -16.5q2 -18 0 -35q-12 -106 -38 -228t-58.5 -249t-69.5 -253t-73 -238.5t-67.5 -206
t-54.5 -156.5q17 2 26 -11.5t10 -34t-8 -39.5t-28 -28q-77 -34 -181.5 -52.5t-202 -28t-173 -10.5t-96.5 -1q-24 0 -28.5 36t6 79t32 81t45.5 44q15 2 53 0t90 -8.5t113.5 -13.5t120.5 -13q-22 41 -32.5 85t-0.5 83q7 29 39.5 108.5t79.5 187t101.5 232.5t105.5 245
t92 223.5t60 170.5q-62 -10 -122.5 -14t-110.5 -7t-86 -3h-48z" />
    <glyph glyph-name="asciicircum" unicode="^" horiz-adv-x="827" 
d="M817 862q21 -45 0.5 -71.5t-55.5 -34.5t-72 2t-49 39q-12 28 -13 68t-1 85t-2 90t-15 84q-41 -37 -70.5 -84t-56 -93t-52 -86t-56.5 -60q-37 -25 -86 -32t-86 1t-51.5 31.5t20.5 60.5q25 27 61.5 77t88 106.5t117 114t145.5 100.5q20 10 34 10h3h2q32 0 57 -23
q35 -35 55.5 -87t33.5 -107.5t22.5 -106.5t25.5 -84z" />
    <glyph glyph-name="underscore.001" unicode="_" horiz-adv-x="774" 
d="M494 -274q-43 -9 -106.5 -9t-141.5 4.5t-165 13.5t-173 19q-43 6 -48 33t13 55.5t54 50t75 19.5q61 -4 148.5 2t175.5 14.5t165.5 15.5t120.5 7q45 0 54.5 -32t-9 -70.5t-62.5 -75.5t-101 -47z" />
    <glyph glyph-name="grave" unicode="`" horiz-adv-x="897" 
d="M154 1561q34 -9 102 -31.5t149.5 -56t170 -76.5t165.5 -92q29 -19 35 -41.5t-2 -42t-29.5 -29.5t-48.5 -2q-59 20 -130.5 31.5t-140.5 20.5t-127 18.5t-91 25.5q-41 21 -73 70t-44 98t1 83t63 24z" />
    <glyph glyph-name="a" unicode="a" 
d="M664 727q18 39 65 45t95 -12.5t79 -57t17 -94.5q-11 -37 -37.5 -87t-58 -102t-62.5 -103.5t-49.5 -91.5t-17.5 -62.5t32 -20.5q47 4 91 40t83 87t69.5 108.5t49.5 102.5q20 45 48 61.5t50.5 8.5t30.5 -39t-12 -82q-19 -51 -59 -125t-96 -141.5t-129 -115.5t-159 -48
q-88 0 -121.5 62.5t-33.5 154.5q-58 -90 -134.5 -151.5t-173.5 -53.5q-104 8 -163.5 65.5t-79 143.5t0 190.5t74 207t141.5 192.5t203.5 145.5t261 67.5t312.5 -41q39 -12 58.5 -40t16.5 -52.5t-31 -38.5t-83 -2q-94 22 -180 6t-161 -59t-136.5 -106.5t-108.5 -133.5
t-75.5 -139.5t-38 -128t2 -97t48.5 -45.5q43 -8 84 25t80 88t72.5 126t60.5 136q18 66 37.5 121t36.5 86z" />
    <glyph glyph-name="b" unicode="b" horiz-adv-x="1047" 
d="M1044 473q25 37 57 47t56.5 1t33.5 -35.5t-13 -65.5q-25 -39 -68 -81t-102.5 -74t-132 -46t-156.5 0q-92 -94 -199.5 -157.5t-214.5 -63.5q-117 0 -185.5 48t-99 131t-27.5 194.5t29.5 238.5t70.5 263.5t96.5 267.5t105.5 251.5t99 217t79 162t43 88.5q14 34 48 39.5
t74 -10t82 -46.5t73.5 -70.5t48 -81.5t6.5 -79q-8 -29 -54 -107t-113 -186.5t-145.5 -237.5t-150.5 -260t-128 -254t-79.5 -217t-5.5 -151.5t98 -57.5q56 0 112 52.5t110 132.5q-54 49 -75.5 117.5t-17.5 142t31 147.5t72 134.5t106.5 101.5t132.5 49q9 2 16 3t17 1
q25 0 58.5 -5t67.5 -19.5t63.5 -42t44 -72.5t11.5 -109.5t-36 -155.5q-22 -61 -63 -133.5t-97 -144.5q72 6 129.5 42t91.5 91zM674 862h-2q-25 0 -55.5 -43t-52 -105.5t-25.5 -134t26 -126.5q37 73 65.5 146t44 131t16.5 95t-17 37z" />
    <glyph glyph-name="c" unicode="c" horiz-adv-x="840" 
d="M637 1042q113 0 169 -39.5t70.5 -101t-5 -137.5t-56.5 -149.5t-84 -135t-86 -96.5q-41 -35 -69.5 -35t-47 20.5t-27.5 55.5t-10.5 69.5t7 65.5t22.5 43q15 12 42.5 40t57 60.5t57.5 69.5t41 65.5t8 48t-38 19.5q-59 0 -129 -57t-133.5 -144.5t-113.5 -187.5t-66.5 -187
t6 -144.5t104.5 -57.5q95 0 174.5 38t143 93t106.5 115.5t64 105.5q18 45 47 61.5t50.5 8.5t29.5 -39t-10 -82q-21 -51 -75.5 -125t-134 -141.5t-179 -114.5t-210.5 -47q-153 0 -241 77t-114.5 193.5t4 250.5t112.5 251t212 193.5t302 76.5z" />
    <glyph glyph-name="d" unicode="d" horiz-adv-x="1085" 
d="M1227 1878q18 35 51 40t70.5 -11.5t75.5 -49t67 -73.5t43 -84t4 -80q-8 -29 -53 -104.5t-111.5 -183t-146.5 -234.5t-158 -257t-145.5 -253t-109.5 -219.5t-50 -157.5t35 -70q45 -8 90 27t83 89t69.5 115.5t50.5 106.5q20 45 47.5 61.5t50 8.5t31 -39t-12.5 -82
q-18 -51 -58 -127t-97.5 -145.5t-129 -116.5t-157.5 -41q-104 6 -143 83t-31 200q-33 -58 -72 -108t-84 -88t-96 -58.5t-109 -16.5q-108 8 -167.5 65.5t-78 142.5t1 188.5t68.5 205t126 191.5t173.5 146.5t207 69.5t231.5 -36q63 158 134.5 307.5t133 272.5t106.5 206.5
t60 108.5zM299 145q35 -8 69.5 13.5t69.5 61.5t68 92.5t62.5 108.5t53 110.5t42.5 97.5q18 59 39.5 118.5t44.5 118.5q-86 4 -164 -46t-142.5 -127t-109.5 -170t-66.5 -174t-14.5 -138t48 -66z" />
    <glyph glyph-name="e" unicode="e" horiz-adv-x="856" 
d="M567 430q-100 -35 -172.5 -37t-126.5 8q-18 -55 -26.5 -105t1 -88t36 -59.5t75.5 -21.5q109 0 195 38t149.5 93t104.5 115.5t59 105.5q21 45 48.5 61.5t50 8.5t30.5 -39t-12 -82q-18 -51 -68.5 -125t-128 -141.5t-183 -114.5t-237.5 -47q-153 0 -241 77t-114.5 193.5
t4 250.5t112.5 251t212 193.5t302 76.5q113 0 172 -37.5t76.5 -97t-1 -132.5t-64.5 -140.5t-111.5 -122.5t-141.5 -82zM522 539q78 30 133.5 90.5t79 122t13 107.5t-61.5 46q-41 0 -90 -33.5t-99.5 -89t-96.5 -125t-83 -143.5q41 -6 93.5 -2t111.5 27z" />
    <glyph glyph-name="f" unicode="f" horiz-adv-x="573" 
d="M885 1663q26 -113 10 -254t-81.5 -287.5t-184.5 -285t-297 -244.5l-49 -90q-33 -86 -16.5 -130t67.5 -55q33 -6 67.5 5.5t68.5 35t62.5 55t47.5 66.5q18 35 44.5 44t48 0t32 -33.5t-8.5 -61.5q-18 -37 -55 -83t-88 -86t-115.5 -65.5t-136.5 -19.5q-57 4 -93 26.5
t-56 57.5q-115 -217 -188 -387t-111 -328q-11 -39 -35.5 -53t-50 -6t-42 36.5t-10.5 76.5q13 90 56 231t105.5 312t138 360.5t154.5 374t155.5 355.5t139 306t105.5 222t58 106q32 45 69 50t73 -22.5t65.5 -87t50.5 -141.5zM444 799q80 80 141.5 165t101.5 162.5t58.5 145
t12.5 110.5q-2 -4 -20.5 -38.5t-46 -87t-61.5 -116t-69 -127t-65.5 -120.5t-51.5 -94z" />
    <glyph glyph-name="g" unicode="g" horiz-adv-x="995" 
d="M645 727q12 55 58.5 55t93.5 -30.5t76.5 -82t9.5 -102.5q-9 -18 -21 -53t-28.5 -82t-39 -104.5t-49.5 -120.5q95 59 159.5 130t99.5 142q18 39 44.5 52.5t48 5t32 -34t-4.5 -62.5q-16 -41 -49 -93t-88 -107.5t-135 -110.5t-190 -100q-54 -105 -119.5 -205t-145.5 -179
t-172 -127t-198 -48q-86 0 -137.5 35.5t-64.5 92t15.5 125t101 137t192.5 127t290 93.5q6 0 14 4q13 25 24 51.5t23 54.5q-47 -47 -103 -73.5t-126 -20.5q-104 8 -165.5 61.5t-84 134.5t-7.5 177t65.5 190.5t133.5 176.5t196.5 132t257 58t311.5 -45q38 -12 57.5 -40
t16.5 -52.5t-30.5 -38.5t-82.5 -2q-127 31 -233.5 -1t-190.5 -97.5t-141.5 -150.5t-83 -164t-16.5 -136t56 -68q45 -8 86 22t76 81t64.5 113.5t51 120t35 101.5t15.5 54q2 2 2 4zM43 -418q53 0 141 93.5t185 267.5q-150 -41 -239 -101.5t-126 -119t-25.5 -99.5t64.5 -41z
" />
    <glyph glyph-name="h" unicode="h" horiz-adv-x="1034" 
d="M649 1884q15 35 48.5 40t73.5 -10.5t82 -46t73.5 -70.5t48 -82t6.5 -79q-6 -22 -49 -92.5t-107.5 -171t-145.5 -225.5t-166 -256t-166 -262t-144 -244q63 86 140 185.5t150.5 188.5t137 155.5t104.5 91.5q35 20 85 11t93 -40t69 -75t13 -91q-10 -37 -46 -101.5t-80 -140
t-90 -153.5t-76.5 -139.5t-39 -99.5t22.5 -36q47 4 101.5 40t103.5 87t90 108.5t59 102.5q21 45 48.5 61.5t50 8.5t31 -39t-12.5 -82q-18 -51 -67.5 -125t-118 -141.5t-150.5 -115.5t-168 -48q-75 0 -109 40t-39 105.5t12.5 149.5t45 172t58 175t53.5 157
q-53 -49 -116.5 -120t-129.5 -148.5t-128 -156.5t-114.5 -145.5t-88.5 -116t-50 -67.5q-8 -37 -34.5 -48t-53.5 -2t-46 37.5t-11 73.5q16 121 74.5 292t137.5 359.5t168 378t166.5 347t133 266t67.5 137.5z" />
    <glyph glyph-name="i" unicode="i" horiz-adv-x="440" 
d="M166 965q22 51 76.5 54t109 -24.5t89 -78t20.5 -105.5q-10 -37 -46 -101.5t-80 -140t-90 -153.5t-77 -139.5t-38 -99.5t24 -36q47 4 91 40t83 87t69.5 108.5t48.5 102.5q21 45 48.5 61.5t50 8.5t31 -39t-12.5 -82q-20 -51 -60 -125t-96.5 -141.5t-129 -115.5t-158.5 -48
q-84 0 -118 61.5t-35 156.5t24.5 210t58.5 222.5t67 193.5t50 123zM692 1307q0 -37 -14 -70t-39 -57.5t-57.5 -39t-69.5 -14.5q-76 0 -128 53.5t-52 127.5q0 75 52 127.5t128 52.5q74 0 127 -52.5t53 -127.5z" />
    <glyph glyph-name="j" unicode="j" horiz-adv-x="451" 
d="M201 977q12 35 38.5 44t58.5 1t63.5 -30.5t54 -54.5t32 -67.5t-5.5 -68.5q-10 -23 -36.5 -88.5t-67.5 -157.5t-94.5 -203.5t-116.5 -226.5q61 39 113.5 85t95.5 93t75.5 93t51.5 87q18 39 45 52.5t48.5 5t31.5 -34t-4 -62.5q-19 -45 -59 -111.5t-109.5 -139t-167.5 -141
t-234 -118.5q-69 -108 -146 -203.5t-159 -160t-166 -91t-168 0.5q-84 26 -116.5 89.5t8.5 140.5t167 154t357 132q92 180 193.5 428t216.5 553zM676 1311q0 -76 -52.5 -128.5t-127.5 -52.5q-74 0 -127.5 52.5t-53.5 128.5q0 75 53.5 127.5t127.5 52.5q75 0 127.5 -52.5
t52.5 -127.5zM-573 -397q59 -25 129.5 40.5t154.5 206.5q-119 -34 -189.5 -73t-101 -74t-26.5 -61.5t33 -38.5z" />
    <glyph glyph-name="k" unicode="k" horiz-adv-x="940" 
d="M649 1884q15 35 48.5 40t73.5 -10.5t82 -46t73.5 -70.5t48 -82t6.5 -79q-6 -22 -43 -85.5t-93.5 -155.5t-129 -206t-149.5 -237t-153.5 -246.5t-144.5 -234.5q49 35 96.5 60.5t90.5 46.5q30 18 71 52t81 85t75 121.5t53 162.5q8 41 52 45.5t87.5 -19.5t70 -72t1.5 -113
q-12 -35 -39.5 -58.5t-67.5 -45t-90.5 -43t-109.5 -50.5v-2q33 10 65.5 2t56 -31.5t35 -58.5t-0.5 -78q-11 -37 -36.5 -77t-54 -77.5t-56 -72.5t-42 -61.5t-11.5 -44t38 -19.5q37 -4 83 35t90 95t82 118.5t56 107.5q21 45 48.5 61.5t50 8.5t30.5 -39t-12 -82
q-19 -51 -58.5 -125t-96 -142.5t-129 -115.5t-159.5 -47q-92 0 -137 44t-54 112.5t12.5 152.5t62.5 164q-68 -29 -133.5 -73t-123 -92t-101.5 -95t-64 -80q-25 -53 -31 -80q-8 -39 -34.5 -53t-54.5 -6t-46 36.5t-12 75.5q16 121 74.5 292t138.5 359.5t168 378t165.5 347
t133 266t67.5 137.5z" />
    <glyph glyph-name="l" unicode="l" horiz-adv-x="467" 
d="M606 1878q19 35 51.5 40t70.5 -11.5t76 -49t66.5 -73.5t43 -84t4.5 -80q-9 -29 -54 -104.5t-111.5 -183t-146.5 -234.5t-157.5 -257t-145 -253t-109.5 -219.5t-50.5 -157.5t34.5 -70q45 -8 90 27t83 89t70 115.5t50 106.5q21 45 48.5 61.5t50 8.5t30.5 -39t-12 -82
q-19 -51 -59 -127t-97 -145.5t-129 -116.5t-158 -41q-104 6 -143 85t-29.5 204t55.5 284.5t111.5 326.5t141 332t143.5 300t118 228t64 120z" />
    <glyph glyph-name="m" unicode="m" horiz-adv-x="1419" 
d="M119 969q14 35 47 46t71.5 5t76.5 -26.5t66 -49.5t39 -63.5t-5 -69.5q-27 -53 -74 -139t-102 -201q51 80 107 163t111.5 155.5t103.5 129t85 80.5q33 31 85 27t98 -31.5t72 -70.5t3 -90q-22 -48 -63 -124.5t-88 -174.5q53 75 108 151t106.5 140.5t96.5 112.5t78 67
q35 20 85 11t93 -40t68.5 -75t13.5 -91q-10 -37 -47 -101.5t-84 -140t-96.5 -153.5t-82 -139.5t-42 -99.5t21.5 -36q45 4 99.5 40t104.5 87t91 108.5t59 102.5q21 45 48.5 61.5t50 8.5t31 -39t-12.5 -82q-18 -51 -67.5 -125t-118 -141.5t-151.5 -115.5t-169 -48
q-73 0 -107 39t-38 102.5t14.5 145.5t47 170t61.5 173t57 156q-65 -65 -141 -160.5t-148.5 -194.5t-135 -188t-99.5 -145q-17 -41 -45.5 -67.5t-54 -30.5t-42 17.5t-8.5 74.5q9 64 25 144.5t35.5 165.5t42 171t45.5 164q-62 -71 -128.5 -159.5t-128 -176.5t-112.5 -165.5
t-84 -129.5q-2 -2 -2 -6q-16 -43 -45 -69.5t-55.5 -31.5t-43 16.5t-7.5 76.5q14 96 34.5 225t45 256t50 234.5t50.5 163.5z" />
    <glyph glyph-name="n" unicode="n" horiz-adv-x="1008" 
d="M162 969q22 51 80.5 53t115 -27.5t90 -81t9.5 -102.5q-17 -33 -49.5 -79t-73.5 -104.5t-86 -128t-86 -147.5q43 58 93 124.5t102.5 133t104.5 131t100 117.5t88 92t69 56q37 20 87 11t93 -40t68.5 -75t11.5 -91q-10 -37 -47 -101.5t-84 -140t-95 -153.5t-82 -139.5
t-43.5 -99.5t21.5 -36q47 4 101.5 40t104.5 87t90 108.5t61 102.5q18 45 46.5 61.5t50 8.5t30 -39t-10.5 -82q-20 -51 -69 -125t-118 -141.5t-151 -115.5t-168 -48q-75 0 -108 39t-37 104.5t14.5 148.5t47 171t61.5 174t57 158q-71 -68 -159.5 -168.5t-171 -205
t-153.5 -196.5t-108 -143q-18 -37 -45.5 -59.5t-51 -23.5t-38 20.5t-8.5 72.5q14 96 45 225t68 256t72.5 234.5t60.5 163.5z" />
    <glyph glyph-name="o" unicode="o" horiz-adv-x="985" 
d="M524 1036q23 2 39.5 3t32.5 -1q111 0 183.5 -31.5t113.5 -87t51 -128t-5 -152.5t-54 -164t-97 -160q78 17 125.5 59t77.5 101q19 37 46.5 51.5t51 8t34 -31t-6.5 -63.5q-16 -41 -53 -87t-92.5 -84t-129 -62.5t-167.5 -20.5q-101 -92 -224.5 -146t-261.5 -46
q-98 6 -150 65.5t-64.5 150.5t13 202.5t83 221t145.5 207t199 156.5q47 29 110 39zM500 356q53 88 88 186.5t43 181.5t-14.5 136t-81.5 49q-46 -6 -78.5 -39.5t-53 -84t-27.5 -111t4 -120.5t40 -112.5t80 -85.5zM248 692q-62 -86 -100.5 -184t-48 -181t16 -138.5t93.5 -55.5
q59 0 115.5 34t105.5 91q-106 72 -150 191.5t-32 242.5z" />
    <glyph glyph-name="p" unicode="p" horiz-adv-x="971" 
d="M979 479q22 43 52 59.5t52.5 7.5t29.5 -39t-17 -79q-31 -63 -81 -123.5t-111.5 -113t-131.5 -95.5t-141.5 -68.5t-140 -30.5t-125.5 13q-29 8 -46.5 26.5t-25.5 39t-7 40t7 31.5q6 13 18.5 21t29.5 17.5t37.5 23.5t45.5 41q76 86 126 177t78.5 173t41 144.5t16.5 86.5
q-27 -10 -70 -49t-97 -96t-113.5 -128t-117 -144.5t-109.5 -147t-91 -135.5q-74 -147 -137.5 -296.5t-97.5 -291.5q-11 -39 -35.5 -53t-50 -6t-43 36.5t-9.5 76.5q17 120 60 264.5t100 294t119.5 293t118 261t96.5 200.5t53 112q23 51 65 50t80.5 -33.5t61.5 -88t8 -110.5
q-6 -23 -31.5 -70t-62.5 -111q92 115 184 212.5t172 150.5q35 22 81 12t87 -40.5t69 -76t23 -92.5q-6 -73 -43.5 -170.5t-96 -193.5t-133.5 -181t-159 -130q39 4 93.5 25.5t110.5 62.5t111.5 100t96.5 141z" />
    <glyph glyph-name="q" unicode="q" horiz-adv-x="1108" 
d="M870 975q23 51 70 51t91 -32.5t70.5 -87t12.5 -109.5q-10 -31 -50 -111t-101.5 -190.5t-139.5 -241.5t-164 -264q68 57 133.5 113.5t126 117t110.5 124t85 134.5q21 45 51.5 60.5t53 6.5t29.5 -40t-19 -78q-70 -131 -172.5 -235.5t-217 -199.5t-231 -190.5t-213.5 -205.5
q-16 -23 -31.5 -44.5t-31.5 -41.5q-25 -31 -52.5 -33t-48 15.5t-24.5 51t20 72.5q68 111 141.5 252t145.5 293q-72 -82 -155 -130t-171 -36q-108 16 -161.5 78.5t-62.5 151.5t22.5 194.5t93 206t148.5 188.5t190.5 140.5t218.5 61.5t231 -46q0 2 1 2t1 2zM266 127
q39 -10 86 18.5t96.5 81t96.5 121t88 134t71.5 121.5t47.5 87l67 164q-88 8 -174 -39t-160.5 -124t-133 -171t-91.5 -177t-34 -144.5t40 -71.5z" />
    <glyph glyph-name="r" unicode="r" horiz-adv-x="741" 
d="M659 635q-10 -37 -37.5 -89t-60.5 -107.5t-64.5 -110t-51 -97.5t-19.5 -68.5t31 -21.5q47 4 91 40t83 87t69.5 108.5t49.5 102.5q20 45 47.5 61.5t50 8.5t31 -39t-12.5 -82q-18 -51 -58 -125t-96.5 -141.5t-129 -115.5t-158.5 -48q-76 0 -115 38t-53 98.5t-7 137
t25.5 155.5t44 152.5t46.5 127.5v2q14 51 -9.5 80.5t-54.5 58.5q-16 -41 -40.5 -99.5t-49.5 -119t-48.5 -114.5t-37.5 -87q-21 -45 -49.5 -57.5t-50 0t-29.5 42t12 66.5q15 25 35 70t44 97t48.5 108.5t45 103.5t33.5 81t15 40q-4 47 21 113q16 47 47 63t56.5 8t36.5 -35.5
t-7 -68.5q-23 -43 -20.5 -70.5t25 -51.5t63.5 -50.5t100 -69.5q27 -12 50.5 -30.5t38.5 -43t21.5 -52t-2.5 -56.5z" />
    <glyph glyph-name="s" unicode="s" horiz-adv-x="815" 
d="M6 479q45 86 97.5 174t105.5 173t103 166t94 155q28 49 71 39t80 -48t57.5 -88.5t3.5 -78.5q-8 -17 -5 -42.5t13.5 -57t25 -69.5t26.5 -77q47 -141 30.5 -269t-77.5 -231q55 43 101 105.5t91 148.5q23 43 52.5 59.5t52 7.5t30 -39t-17.5 -79q-43 -86 -112.5 -166
t-158.5 -141.5t-194.5 -95t-220.5 -25.5q-4 0 -6 -1t-6 -1q-88 0 -147.5 46t-90.5 113.5t-33 145.5t23 141q2 13 12 35zM229 319q-49 0 -71.5 -28.5t-24.5 -63t17.5 -63.5t54.5 -29q53 0 98 34t76 89t46 127t11 146.5t-28.5 148.5t-73.5 133q-25 -39 -47 -80
q-23 -35 -47.5 -80t-51.5 -92q48 -10 79.5 -49t40.5 -82t-9 -77t-70 -34z" />
    <glyph glyph-name="t" unicode="t" horiz-adv-x="479" 
d="M524 980q-92 -171 -153.5 -277.5t-111.5 -205t-77.5 -175t-27.5 -124.5t39 -57q45 -8 90 27t82.5 89t69.5 115.5t50 106.5q21 45 48.5 61.5t50 8.5t31 -39t-12.5 -82q-18 -51 -58 -127t-97.5 -145.5t-129 -116.5t-157.5 -41t-129 55t-53.5 130t6 186.5t52.5 224.5t85 245
t102 246l74 164q41 86 80 163t70.5 138.5t54 103.5t33.5 58q18 35 48.5 41t65.5 -10.5t70 -48t60.5 -70.5t37.5 -82t2 -80q-4 -16 -22.5 -50t-169.5 -220zM777 1030q-40 -8 -99.5 -8t-133 4t-155.5 11.5t-163 16.5q-39 5 -44 28.5t11.5 47.5t50.5 42.5t71 16.5
q58 -3 140 2.5t164.5 12.5t155.5 13t113 6q43 0 51.5 -27.5t-8.5 -60.5t-58.5 -64.5t-95.5 -40.5z" />
    <glyph glyph-name="u" unicode="u" horiz-adv-x="965" 
d="M690 965q23 51 77 54t108.5 -24.5t89 -78t20.5 -105.5q-10 -37 -46 -101.5t-80 -140t-90 -153.5t-76.5 -139.5t-38 -99.5t23.5 -36q47 4 91 40t82 87t68.5 108.5t51.5 102.5q20 45 48 61.5t50.5 8.5t30.5 -39t-13 -82q-20 -51 -60 -125t-96.5 -141.5t-129 -115.5
t-158.5 -48q-49 0 -81 21.5t-48 58.5t-20.5 88t0.5 110q-35 -61 -77 -117.5t-90 -95t-101.5 -58t-110.5 -7.5q-74 14 -110 64.5t-43 125t11.5 171t53 202t84 216t104.5 216.5q18 37 50 46.5t66 -1t67.5 -37t56 -59.5t30 -68.5t-7.5 -64.5q-37 -66 -80 -138.5t-84 -144
t-76.5 -138t-57 -119t-23.5 -88.5t24 -44q35 -12 74 10.5t78 67.5t75.5 106.5t69.5 124t58.5 121t42.5 99.5q32 102 64 183t48 116z" />
    <glyph glyph-name="v" unicode="v" horiz-adv-x="979" 
d="M985 475q23 37 54.5 47t56 1t34 -34.5t-13.5 -64.5q-24 -41 -68 -84t-105.5 -73.5t-136.5 -44t-161 4.5q-92 -98 -213 -162.5t-268 -64.5q-103 0 -148 54.5t-52 141.5t16.5 194.5t61.5 213t81 196.5t76 146q32 55 71 72.5t68 9.5t40 -36.5t-13 -67.5q-39 -62 -78 -143
t-72 -168t-55.5 -171t-30.5 -149.5t4 -106.5t49 -41q58 0 119 55.5t119 141.5q-49 51 -67.5 119.5t-12.5 142.5t33.5 145.5t74 130t107.5 97.5t133 45l25 4q37 0 85 -15.5t82.5 -60.5t42 -127t-41.5 -215q-23 -59 -58 -127.5t-84 -138.5q82 0 144.5 37t101.5 96zM614 866h-4
q-24 0 -54 -41t-51.5 -100t-27.5 -128t19 -126q39 72 68.5 142.5t46 127t18.5 91t-15 34.5z" />
    <glyph glyph-name="w" unicode="w" horiz-adv-x="1386" 
d="M817 924q-39 -62 -80 -143t-75.5 -168t-60.5 -171t-36 -149.5t1.5 -106.5t47.5 -41q54 0 108 50.5t103 128.5q-55 49 -78.5 117.5t-20.5 144.5t30.5 150.5t75 136t110 101.5t135.5 48q17 4 25 4q37 0 85 -15.5t83 -60.5t42 -127t-42 -215q-23 -59 -54.5 -127.5
t-74.5 -136.5q86 4 153.5 43t104.5 98q22 37 50 46.5t48.5 -2t25.5 -39t-18 -66.5q-22 -39 -65 -81t-101.5 -72.5t-132 -46t-155.5 -1.5q-84 -96 -196 -159.5t-259 -63.5q-98 0 -143 50t-52 132q-59 -92 -135 -147t-170 -37q-71 14 -105 64.5t-38 125t17.5 171t60.5 202
t90 216t104 216.5q19 37 50.5 46.5t65.5 -1t67.5 -37t56 -59.5t31 -68.5t-8.5 -64.5q-34 -66 -79.5 -138.5t-90.5 -144t-83.5 -138t-63.5 -119t-29 -88.5t23 -44q35 -12 71.5 11.5t71.5 68.5t68 106.5t61 125.5q21 71 48.5 144t57 139.5t58.5 121.5t51 92q33 55 72 72.5
t67.5 9.5t40 -36.5t-13.5 -67.5zM1001 866h-4q-24 -2 -56 -46t-53.5 -108.5t-23.5 -136t33 -126.5q37 73 63.5 148t42 134.5t16.5 97t-18 37.5z" />
    <glyph glyph-name="x" unicode="x" horiz-adv-x="776" 
d="M111 965q10 34 42.5 47.5t73.5 8.5t85 -24.5t78 -49t51.5 -64.5t7.5 -72q-7 -23 -12 -53.5t-9 -69.5q82 92 149.5 166t108.5 113q51 51 89 56t54.5 -17.5t7 -62.5t-48.5 -77q-18 -18 -56 -57t-87 -92t-107.5 -116.5t-119.5 -131.5q0 -63 4 -121.5t13 -104.5t23.5 -74
t35.5 -28q47 0 91 36t80.5 88t67.5 110.5t49 103.5q21 45 48.5 61.5t50 8.5t31 -39t-12.5 -82q-18 -51 -57 -125t-95.5 -141.5t-128 -115.5t-157.5 -48q-90 0 -145.5 76t-86.5 190q-77 -84 -139.5 -150.5t-89.5 -93.5q-41 -40 -71.5 -43.5t-43 17t-4.5 56.5t45 75
q31 31 103.5 115t167.5 188q-9 45 -14 91t-9 89q-6 -51 -18.5 -97t-34.5 -87q-19 -31 -44.5 -38t-46 4t-26.5 38t14 64q29 49 52.5 106t38 117.5t15.5 119t-13 109.5h2q-7 10 -2 21z" />
    <glyph glyph-name="y" unicode="y" horiz-adv-x="950" 
d="M698 977q13 35 39.5 44t58 1t63.5 -30.5t54.5 -54.5t31.5 -67.5t-5 -68.5q-10 -23 -36.5 -88.5t-67.5 -157.5t-94.5 -203.5t-116.5 -226.5q61 39 113.5 85t95.5 93t75.5 93t51.5 87q18 39 44.5 52.5t48 5t32 -34t-4.5 -62.5q-18 -45 -58 -111.5t-109.5 -139t-168 -141
t-233.5 -118.5q-70 -108 -146.5 -203.5t-158.5 -160t-166 -91t-168 0.5q-84 26 -116.5 89.5t8 140.5t165.5 154t357 132q8 12 14 25.5t12 27.5q-43 -33 -92 -47t-102 -4q-74 14 -110 64.5t-43 125t11.5 171t53.5 202t84 216t104 216.5q19 37 50.5 46.5t65.5 -1t67.5 -37
t56 -59.5t30 -68.5t-7.5 -64.5q-37 -66 -80 -138.5t-84 -144t-76.5 -138t-57 -119t-23.5 -88.5t24 -44q33 -12 69 7.5t71.5 59.5t71.5 93t67 113q74 137 145 319l58 -37q-39 -137 -93 -260q-22 -53 -49.5 -107.5t-60.5 -105.5t-71 -95t-79 -75q88 178 183.5 411.5
t201.5 516.5zM-76 -397q60 -25 129.5 40.5t153.5 206.5q-119 -34 -188.5 -73t-100.5 -74t-26.5 -61.5t32.5 -38.5z" />
    <glyph glyph-name="z" unicode="z" horiz-adv-x="872" 
d="M16 496q29 69 84.5 131.5t123 118t141 102.5t141 86t124 70.5t89.5 54.5q31 22 56.5 16t42 -31.5t24.5 -62.5t8 -76t-9.5 -73.5t-27.5 -53.5q-27 -45 -65.5 -91t-82.5 -91t-93.5 -89t-96.5 -85q146 29 211.5 -8t69.5 -111q30 33 62 76t63 100q30 56 60 69t49.5 0
t23.5 -47t-17 -73q-67 -135 -143 -214t-154 -120q-63 -119 -161 -219q-127 -127 -241 -180t-203 -54t-146.5 41t-69.5 106.5t27 141t141 144.5q45 30 92 44.5t93.5 20.5t93.5 7t94 6q8 84 -44 109.5t-145 -42.5l-10 -10q-26 -27 -53 -30t-42 11.5t-14 42t31 62.5
q27 31 83.5 79t124 104.5t135 115.5t120.5 113q-63 -17 -133 -36.5t-134.5 -49t-117.5 -69.5t-86 -97q-20 -35 -47 -45.5t-47.5 -2t-29.5 32t5 56.5zM111 -18q-54 -27 -79.5 -64t-27.5 -72.5t17.5 -62.5t56.5 -30t88 23.5t113 98.5q32 39 56.5 75t43.5 70q-78 -4 -146.5 -8
t-121.5 -30z" />
    <glyph glyph-name="braceleft" unicode="{" horiz-adv-x="705" 
d="M829 1438q64 24 96.5 18t40 -27.5t-9 -51t-53.5 -50.5q-67 -37 -139 -125t-137 -207q-25 -41 -51.5 -100t-62.5 -115.5t-86 -100.5t-120 -52q76 -35 94.5 -86.5t9 -107.5t-33 -113.5t-29.5 -106.5q-22 -143 -8 -255t78 -167q35 -37 33 -65.5t-26 -42t-60.5 -7t-69.5 40.5
q-113 103 -179.5 224.5t-60.5 251.5q2 51 20.5 99t39 90t41 77t29 59.5t-2 38.5t-47.5 14q-29 0 -37 19.5t-2 42t24.5 42t47.5 19.5q45 0 68.5 42t42 105.5t42 138.5t68.5 140q51 76 109.5 127t116 87t112.5 60.5t102 43.5z" />
    <glyph glyph-name="bar.001" unicode="|" horiz-adv-x="694" 
d="M649 1673q23 51 65 42t78.5 -53t59 -107.5t6.5 -118.5q-8 -31 -49 -112t-102.5 -202t-137 -273.5t-155.5 -328.5t-156 -367.5t-137 -388.5q-12 -38 -38 -54.5t-51.5 -11.5t-42 30.5t-9.5 70.5q12 90 45.5 214t80 266.5t102.5 295t113.5 301t112.5 283.5t99.5 241.5
t75 179.5t40.5 93z" />
    <glyph glyph-name="braceright" unicode="}" horiz-adv-x="768" 
d="M-72 -305q-63 -25 -96 -18.5t-40 28t9.5 51t53.5 49.5q67 37 139 125t137 207q25 41 51.5 100.5t62.5 116t86 99.5t120 53q-76 35 -94.5 86t-9.5 107.5t32.5 113.5t30.5 107q22 143 7.5 254.5t-77.5 166.5q-35 37 -33 66t25.5 42t60.5 6t70 -40q112 -102 179 -224
t60 -251q-2 -51 -20 -99t-38.5 -90t-41 -77t-28 -59.5t2 -39t46.5 -14.5q26 0 35.5 -19.5t3 -42t-26 -42t-45.5 -19.5q-47 0 -69.5 -42t-41 -105.5t-42 -138t-68.5 -140.5q-54 -75 -111 -126.5t-114.5 -87.5t-113 -60.5t-102.5 -42.5z" />
    <glyph glyph-name="asciitilde" unicode="~" horiz-adv-x="948" 
d="M270 557q60 53 113 68.5t102.5 9.5t92.5 -23.5t79.5 -32t67.5 -15.5t55 28q37 43 72 48t51.5 -15.5t8 -62.5t-57.5 -97q-53 -59 -105.5 -78.5t-101.5 -16.5t-95 19.5t-87 31.5t-77 20t-64 -17q-54 -41 -89.5 -44t-47 19.5t7 64.5t75.5 93z" />
    <glyph glyph-name="dieresis" unicode="&#xa8;" horiz-adv-x="1024" 
 />
    <glyph glyph-name="copyright" unicode="&#xa9;" horiz-adv-x="1567" 
d="M995 987q95 -4 135.5 -45t44 -102.5t-23.5 -136t-68 -145.5t-89 -130t-85 -90q-39 -33 -62.5 -32t-36.5 21.5t-16 55.5t2 69.5t15 63.5t25 41q14 12 40.5 38t56.5 57.5t57.5 66.5t43 63.5t14.5 47t-30 20.5q-49 2 -115.5 -52.5t-132 -136t-121 -179t-82 -181.5
t-15.5 -142.5t79 -60.5q28 -2 55 2t53 13q27 8 46.5 -4.5t22.5 -35t-12.5 -47t-56.5 -36.5q-61 -19 -121 -17q-96 4 -154 51.5t-84 121t-19.5 165.5t39 187.5t89 185.5t133 158.5t171 108.5t202.5 36zM1051 1286q196 0 307.5 -70.5t152.5 -187.5t19.5 -265.5t-89 -303
t-174 -303t-237.5 -265t-276.5 -187.5t-292.5 -71q-150 0 -245 71t-140 187.5t-44 265t46 303t132 303t210 265.5t281.5 187.5t349.5 70.5zM487 -217q115 0 228.5 58.5t217 153.5t188.5 216t143.5 248t83 247.5t6 216t-87 154t-195.5 58.5q-151 0 -280 -58.5t-232.5 -154
t-179.5 -216t-120 -247.5t-55 -248t15.5 -216t93 -153.5t174.5 -58.5z" />
    <glyph glyph-name="registered" unicode="&#xae;" horiz-adv-x="1593" 
d="M1055 1286q196 0 308 -70.5t152.5 -187.5t19 -265.5t-89 -303t-174 -303t-237.5 -265t-276.5 -187.5t-292.5 -71q-150 0 -245 71t-140 187.5t-44 265t46 303t132 303t210 265.5t281.5 187.5t349.5 70.5zM492 -217q114 0 228 58.5t217 153.5t188 216t143.5 248t83 247.5
t6 216t-87 154t-195.5 58.5q-151 0 -280 -58.5t-232.5 -154t-179.5 -216t-120 -247.5t-55 -248t15.5 -216t93 -153.5t175.5 -58.5zM752 864q16 33 47.5 14.5t59.5 -61.5t43.5 -96t2.5 -88q-8 -21 -34.5 -63t-63.5 -97q10 4 20.5 7t20.5 7q51 25 89 70t63.5 98.5t37 109.5
t8 102t-21.5 76t-51 34q-88 8 -156.5 -20.5t-115 -74.5t-67 -100.5t-13.5 -95.5q4 -31 -23 -56.5t-62.5 -40t-69.5 -13t-40 23.5q-6 21 8.5 66t47 99t83.5 109.5t119 97.5t151 63.5t177 8.5q96 -14 153.5 -51t81 -88t15 -109.5t-41 -115.5t-89 -107.5t-127.5 -80.5
q14 -7 24 -17q29 -16 43 -41.5t2 -60.5q-10 -27 -43 -76t-69.5 -105.5t-69.5 -112.5t-41 -97q-8 -39 -24.5 -49.5t-33 -3t-29.5 30t-13 46.5q0 43 8 95.5t22.5 107.5t34 106.5t41.5 92.5q-29 -5 -59.5 -15t-63.5 -26q-35 -52 -69.5 -105t-63.5 -100t-50.5 -87t-29.5 -65
q-6 -24 -27.5 -31.5t-41 2t-32.5 30t-5 50.5q28 119 80.5 249t104.5 244t96 199t57 111zM535 207v-2v2z" />
    <glyph glyph-name="acute" unicode="&#xb4;" horiz-adv-x="887" 
d="M700 1561q50 10 62 -24t0 -83t-44 -98t-71 -70q-35 -16 -92 -25.5t-126 -18.5t-140.5 -20.5t-130.5 -31.5q-27 -8 -48.5 2t-29.5 29.5t-2 42t35 41.5q75 49 163.5 92t170 76.5t149.5 56t104 31.5z" />
    <glyph glyph-name="onequarter" unicode="&#xbc;" horiz-adv-x="1780" 
 />
    <glyph glyph-name="onehalf" unicode="&#xbd;" horiz-adv-x="1780" 
 />
    <glyph glyph-name="threequarters" unicode="&#xbe;" horiz-adv-x="1780" 
 />
    <glyph glyph-name=".notdef.106" unicode="&#xc0;" horiz-adv-x="1565" 
d="M90 397q-35 -10 -48 5.5t-12 45t15 65.5t36.5 69.5t50.5 58.5t56 31q35 4 139.5 -11.5t237.5 -29.5q105 162 210.5 329.5t193.5 313t148.5 253t76.5 148.5q10 27 25 37q20 29 58 33t82 -11.5t89 -45t79 -66.5t52 -77t8 -75q-8 -30 -37.5 -124.5t-69.5 -224.5t-85 -282.5
t-84 -298t-66.5 -269.5t-32.5 -197q-2 -25 -22.5 -48.5t-46 -30.5t-51 6t-37.5 60q-23 86 -28 206t1 259q-57 -16 -110.5 -25t-106.5 -14.5t-106.5 -7.5t-110.5 -4q-72 -108 -139.5 -205.5t-124 -174.5t-98.5 -128t-64 -65q-39 -27 -65.5 -28t-36 15.5t0 43t42.5 55.5
q18 16 53 58t81 105.5t101 143.5t115 170q-80 -8 -170 -23.5t-199 -44.5zM1118 1303q-84 -142 -196.5 -322t-231.5 -363q92 -6 181.5 -3t162.5 24q13 172 35.5 344t48.5 320zM1225 2094q25 -10 72.5 -33t104.5 -57t116 -74t108 -83q18 -17 19.5 -34t-9 -29.5t-28.5 -18
t-36 2.5q-42 21 -94.5 37t-103 29.5t-92.5 26t-66 27.5q-27 21 -42 59.5t-16 75.5t15 60t52 11z" />
    <glyph glyph-name=".notdef.107" unicode="&#xc1;" horiz-adv-x="1565" 
d="M90 397q-35 -10 -48 5.5t-12 45t15 65.5t36.5 69.5t50.5 58.5t56 31q35 4 139.5 -11.5t237.5 -29.5q105 162 210.5 329.5t193.5 313t148.5 253t76.5 148.5q10 27 25 37q20 29 58 33t82 -11.5t89 -45t79 -66.5t52 -77t8 -75q-8 -30 -37.5 -124.5t-69.5 -224.5t-85 -282.5
t-84 -298t-66.5 -269.5t-32.5 -197q-2 -25 -22.5 -48.5t-46 -30.5t-51 6t-37.5 60q-23 86 -28 206t1 259q-57 -16 -110.5 -25t-106.5 -14.5t-106.5 -7.5t-110.5 -4q-72 -108 -139.5 -205.5t-124 -174.5t-98.5 -128t-64 -65q-39 -27 -65.5 -28t-36 15.5t0 43t42.5 55.5
q18 16 53 58t81 105.5t101 143.5t115 170q-80 -8 -170 -23.5t-199 -44.5zM1118 1303q-84 -142 -196.5 -322t-231.5 -363q92 -6 181.5 -3t162.5 24q13 172 35.5 344t48.5 320zM1678 2091q38 8 47 -18t0 -63t-33 -74t-54 -53q-26 -12 -69.5 -19.5t-96 -14t-106.5 -15.5
t-99 -24q-20 -6 -36.5 1.5t-22.5 22.5t-1.5 32t26.5 31q57 37 124 70t129 58t113.5 42.5t78.5 23.5z" />
    <glyph glyph-name=".notdef.111" unicode="&#xc2;" horiz-adv-x="1565" 
d="M90 397q-35 -10 -48 5.5t-12 45t15 65.5t36.5 69.5t50.5 58.5t56 31q35 4 139.5 -11.5t237.5 -29.5q105 162 210.5 329.5t193.5 313t148.5 253t76.5 148.5q10 27 25 37q20 29 58 33t82 -11.5t89 -45t79 -66.5t52 -77t8 -75q-8 -30 -37.5 -124.5t-69.5 -224.5t-85 -282.5
t-84 -298t-66.5 -269.5t-32.5 -197q-2 -25 -22.5 -48.5t-46 -30.5t-51 6t-37.5 60q-23 86 -28 206t1 259q-57 -16 -110.5 -25t-106.5 -14.5t-106.5 -7.5t-110.5 -4q-72 -108 -139.5 -205.5t-124 -174.5t-98.5 -128t-64 -65q-39 -27 -65.5 -28t-36 15.5t0 43t42.5 55.5
q18 16 53 58t81 105.5t101 143.5t115 170q-80 -8 -170 -23.5t-199 -44.5zM1118 1303q-84 -142 -196.5 -322t-231.5 -363q92 -6 181.5 -3t162.5 24q13 172 35.5 344t48.5 320zM1680 1877q12 -37 -7 -59t-46.5 -29t-54.5 1.5t-34 31.5q-6 24 -7.5 44.5t-3.5 40.5t-6 39.5
t-13 41.5q-32 -22 -53.5 -44t-39.5 -42t-36 -39.5t-44 -36.5q-31 -20 -69.5 -26t-66 1t-35.5 26t22 50q21 21 47.5 45t63 51t85.5 56.5t115 65.5q18 8 28 8h2h2q25 0 41 -18q47 -58 70 -106t40 -102z" />
    <glyph glyph-name=".notdef.109" unicode="&#xc3;" horiz-adv-x="1565" 
d="M90 397q-35 -10 -48 5.5t-12 45t15 65.5t36.5 69.5t50.5 58.5t56 31q35 4 139.5 -11.5t237.5 -29.5q105 162 210.5 329.5t193.5 313t148.5 253t76.5 148.5q10 27 25 37q20 29 58 33t82 -11.5t89 -45t79 -66.5t52 -77t8 -75q-8 -30 -37.5 -124.5t-69.5 -224.5t-85 -282.5
t-84 -298t-66.5 -269.5t-32.5 -197q-2 -25 -22.5 -48.5t-46 -30.5t-51 6t-37.5 60q-23 86 -28 206t1 259q-57 -16 -110.5 -25t-106.5 -14.5t-106.5 -7.5t-110.5 -4q-72 -108 -139.5 -205.5t-124 -174.5t-98.5 -128t-64 -65q-39 -27 -65.5 -28t-36 15.5t0 43t42.5 55.5
q18 16 53 58t81 105.5t101 143.5t115 170q-80 -8 -170 -23.5t-199 -44.5zM1118 1303q-84 -142 -196.5 -322t-231.5 -363q92 -6 181.5 -3t162.5 24q13 172 35.5 344t48.5 320zM1245 1933q47 39 87 50t76 6.5t65.5 -17t56 -23t49 -11t43.5 19.5q30 32 56 35.5t36 -11.5
t1 -45.5t-48 -71.5q-43 -44 -83 -58t-75.5 -12t-68 14t-61.5 24t-55.5 15.5t-48.5 -14.5q-43 -29 -69 -31.5t-32.5 14t10 48t61.5 68.5z" />
    <glyph glyph-name=".notdef.123" unicode="&#xc8;" horiz-adv-x="1073" 
d="M1081 1675q119 -10 179.5 -65.5t73 -131t-15.5 -161.5t-84 -159t-134 -121t-166 -48q-78 0 -123 37t-60.5 82t0 82t56.5 37q57 0 116.5 24.5t109.5 60.5t87 78t48.5 77.5t-8 60t-79.5 24.5q-92 0 -173 -48t-142 -119.5t-98 -154.5t-39 -154.5t34.5 -120t122.5 -48.5
q31 0 42.5 -18.5t6 -42t-27 -42t-57.5 -18.5q-105 0 -177.5 -49t-114.5 -121.5t-54.5 -158.5t4 -159t62.5 -122t120 -49q94 0 174 38t143.5 93t107.5 115.5t66 105.5q23 45 51.5 61.5t50 8.5t28 -40t-16.5 -83q-25 -51 -82 -124t-140 -140.5t-187.5 -114.5t-223.5 -47
q-149 0 -253.5 65.5t-162 163t-66.5 213t34 215t136 167t243 71.5q-91 39 -134 115.5t-41 170t51.5 187.5t144.5 169t237.5 115t330.5 23zM886 2066q25 -10 72.5 -33t104.5 -57t116 -74t108 -83q18 -17 19.5 -34t-9 -29.5t-28.5 -18t-36 2.5q-42 21 -94.5 37t-103 29.5
t-92.5 26t-66 27.5q-27 21 -42 59.5t-16 75.5t15 60t52 11z" />
    <glyph glyph-name=".notdef.124" unicode="&#xc9;" horiz-adv-x="1073" 
d="M1081 1675q-188 17 -330.5 -23t-237.5 -115t-144.5 -169t-51.5 -187.5t41 -170t134 -115.5q-150 -4 -243 -71.5t-136 -167t-34 -215t66.5 -213t162 -163t253.5 -65.5q119 0 223.5 47t187.5 114.5t140 140.5t82 124q23 51 16.5 83t-28 40t-50 -8.5t-51.5 -61.5
q-22 -45 -66 -105.5t-107.5 -115.5t-143.5 -93t-174 -38q-74 0 -120 49t-62.5 122t-4 159t54.5 158.5t114.5 121.5t177.5 49q36 0 57.5 18.5t27 42t-6 42t-42.5 18.5q-86 0 -122.5 48.5t-34.5 120t39 154.5t98 154.5t142 119.5t173 48q60 0 79.5 -24.5t8 -60t-48.5 -77.5
t-87 -78t-109.5 -60.5t-116.5 -24.5q-41 0 -56.5 -37t0 -82t60.5 -82t123 -37q88 0 166 48t134 121t84 159t15.5 161.5t-73 131t-179.5 65.5zM1225 2024q38 8 47 -18t0 -63t-33 -74t-54 -53q-26 -12 -69.5 -19.5t-96 -14t-106.5 -15.5t-99 -24q-20 -6 -36.5 1.5t-22.5 22.5
t-1.5 32t26.5 31q57 37 124 70t129 58t113.5 42.5t78.5 23.5z" />
    <glyph glyph-name=".notdef.128" unicode="&#xca;" horiz-adv-x="1073" 
d="M1081 1675q-188 17 -330.5 -23t-237.5 -115t-144.5 -169t-51.5 -187.5t41 -170t134 -115.5q-150 -4 -243 -71.5t-136 -167t-34 -215t66.5 -213t162 -163t253.5 -65.5q119 0 223.5 47t187.5 114.5t140 140.5t82 124q23 51 16.5 83t-28 40t-50 -8.5t-51.5 -61.5
q-22 -45 -66 -105.5t-107.5 -115.5t-143.5 -93t-174 -38q-74 0 -120 49t-62.5 122t-4 159t54.5 158.5t114.5 121.5t177.5 49q36 0 57.5 18.5t27 42t-6 42t-42.5 18.5q-86 0 -122.5 48.5t-34.5 120t39 154.5t98 154.5t142 119.5t173 48q60 0 79.5 -24.5t8 -60t-48.5 -77.5
t-87 -78t-109.5 -60.5t-116.5 -24.5q-41 0 -56.5 -37t0 -82t60.5 -82t123 -37q88 0 166 48t134 121t84 159t15.5 161.5t-73 131t-179.5 65.5zM1258 1816q12 -37 -7 -59t-46.5 -29t-54.5 1.5t-34 31.5q-6 24 -7.5 44.5t-3.5 40.5t-6 39.5t-13 41.5q-32 -22 -53.5 -44
t-39.5 -42t-36 -39.5t-44 -36.5q-31 -20 -69.5 -26t-66 1t-35.5 26t22 50q21 21 47.5 45t63 51t85.5 56.5t115 65.5q18 8 28 8h2h2q25 0 41 -18q47 -58 70 -106t40 -102z" />
    <glyph glyph-name=".notdef.104" unicode="&#xcc;" horiz-adv-x="629" 
d="M610 1624q15 35 48.5 40t73.5 -10.5t82 -46t74 -70.5t48 -82t6 -79q-6 -22 -42 -81.5t-91 -142.5t-123 -183.5t-139.5 -208t-139 -214t-123 -202.5t-92 -174t-42.5 -127q-7 -41 -33.5 -54.5t-54 -5t-48 37t-12.5 75.5q16 121 64.5 273.5t112 312.5t134 316.5t133 286.5
t107.5 220t57 119zM645 2025q25 -10 72.5 -33t104.5 -57t116 -74t108 -83q18 -17 19.5 -34t-9 -29.5t-28.5 -18t-36 2.5q-42 21 -94.5 37t-103 29.5t-92.5 26t-66 27.5q-27 21 -42 59.5t-16 75.5t15 60t52 11z" />
    <glyph glyph-name=".notdef.103" unicode="&#xcd;" horiz-adv-x="629" 
d="M610 1624q15 35 48.5 40t73.5 -10.5t82 -46t74 -70.5t48 -82t6 -79q-6 -22 -42 -81.5t-91 -142.5t-123 -183.5t-139.5 -208t-139 -214t-123 -202.5t-92 -174t-42.5 -127q-7 -41 -33.5 -54.5t-54 -5t-48 37t-12.5 75.5q16 121 64.5 273.5t112 312.5t134 316.5t133 286.5
t107.5 220t57 119zM1108 2012q38 8 47 -18t0 -63t-33 -74t-54 -53q-26 -12 -69.5 -19.5t-96 -14t-106.5 -15.5t-99 -24q-20 -6 -36.5 1.5t-22.5 22.5t-1.5 32t26.5 31q57 37 124 70t129 58t113.5 42.5t78.5 23.5z" />
    <glyph glyph-name=".notdef.099" unicode="&#xd2;" horiz-adv-x="1097" 
d="M932 1673q160 0 248 -72.5t117.5 -190.5t8 -269.5t-81 -308t-150.5 -308t-198.5 -269.5t-227.5 -190.5t-236 -72.5q-117 0 -192 72.5t-109.5 190.5t-32.5 269.5t41 308t110.5 308t174 269.5t235.5 190.5t293 72.5zM399 158q68 0 135.5 56t129 148.5t114.5 210t90 240.5
t55.5 240.5t10.5 210t-45 148.5t-109 56q-92 0 -173 -56t-148.5 -148.5t-118.5 -210t-83 -240.5t-41 -240.5t6.5 -210t58.5 -148.5t118 -56zM818 2046q25 -10 72.5 -33t104.5 -57t116 -74t108 -83q18 -17 19.5 -34t-9 -29.5t-28.5 -18t-36 2.5q-42 21 -94.5 37t-103 29.5
t-92.5 26t-66 27.5q-27 21 -42 59.5t-16 75.5t15 60t52 11z" />
    <glyph glyph-name=".notdef.098" unicode="&#xd3;" horiz-adv-x="1094" 
d="M932 1673q-160 0 -293 -72.5t-235.5 -190.5t-174 -269.5t-110.5 -308t-41 -308t32.5 -269.5t109.5 -190.5t192 -72.5q116 0 236 72.5t227.5 190.5t198.5 269.5t150.5 308t81 308t-8 269.5t-117.5 190.5t-248 72.5zM399 158q-75 0 -118 56t-58.5 148.5t-6.5 210t41 240.5
t83 240.5t118.5 210t148.5 148.5t173 56q72 0 109 -56t45 -148.5t-10.5 -210t-55.5 -240.5t-90 -240.5t-114.5 -210t-129 -148.5t-135.5 -56zM1166 2006q38 8 47 -18t0 -63t-33 -74t-54 -53q-26 -12 -69.5 -19.5t-96 -14t-106.5 -15.5t-99 -24q-20 -6 -36.5 1.5t-22.5 22.5
t-1.5 32t26.5 31q57 37 124 70t129 58t113.5 42.5t78.5 23.5z" />
    <glyph glyph-name=".notdef.094" unicode="&#xd4;" horiz-adv-x="1089" 
d="M932 1673q-160 0 -293 -72.5t-235.5 -190.5t-174 -269.5t-110.5 -308t-41 -308t32.5 -269.5t109.5 -190.5t192 -72.5q116 0 236 72.5t227.5 190.5t198.5 269.5t150.5 308t81 308t-8 269.5t-117.5 190.5t-248 72.5zM399 158q-75 0 -118 56t-58.5 148.5t-6.5 210t41 240.5
t83 240.5t118.5 210t148.5 148.5t173 56q72 0 109 -56t45 -148.5t-10.5 -210t-55.5 -240.5t-90 -240.5t-114.5 -210t-129 -148.5t-135.5 -56zM1196 1804q12 -37 -7 -59t-46.5 -29t-54.5 1.5t-34 31.5q-6 24 -7.5 44.5t-3.5 40.5t-6 39.5t-13 41.5q-32 -22 -53.5 -44
t-39.5 -42t-36 -39.5t-44 -36.5q-31 -20 -69.5 -26t-66 1t-35.5 26t22 50q21 21 47.5 45t63 51t85.5 56.5t115 65.5q18 8 28 8h2h2q25 0 41 -18q47 -58 70 -106t40 -102z" />
    <glyph glyph-name=".notdef.096" unicode="&#xd5;" horiz-adv-x="1094" 
d="M932 1673q160 0 248 -72.5t117.5 -190.5t8 -269.5t-81 -308t-150.5 -308t-198.5 -269.5t-227.5 -190.5t-236 -72.5q-117 0 -192 72.5t-109.5 190.5t-32.5 269.5t41 308t110.5 308t174 269.5t235.5 190.5t293 72.5zM399 158q68 0 135.5 56t129 148.5t114.5 210t90 240.5
t55.5 240.5t10.5 210t-45 148.5t-109 56q-92 0 -173 -56t-148.5 -148.5t-118.5 -210t-83 -240.5t-41 -240.5t6.5 -210t58.5 -148.5t118 -56zM761 1887q47 39 87 50t76 6.5t65.5 -17t56 -23t49 -11t43.5 19.5q30 32 56 35.5t36 -11.5t1 -45.5t-48 -71.5q-43 -44 -83 -58
t-75.5 -12t-68 14t-61.5 24t-55.5 15.5t-48.5 -14.5q-43 -29 -69 -31.5t-32.5 14t10 48t61.5 68.5z" />
    <glyph glyph-name=".notdef.088" unicode="&#xd9;" horiz-adv-x="1200" 
d="M1110 1622q14 35 47 44t72 -1t79 -34.5t70.5 -58.5t46 -72t5.5 -75q-9 -28 -42.5 -101t-84 -174t-109.5 -221t-117.5 -242t-108.5 -234.5t-82 -200.5t-40 -140.5t20 -52.5q47 0 98.5 49.5t99.5 118t86 141t58 117.5q19 45 47.5 60.5t52 5.5t33 -42t-9.5 -83
q-14 -35 -39.5 -85t-61.5 -107.5t-81 -114t-96.5 -101.5t-106.5 -73.5t-112 -28.5q-50 0 -80.5 24.5t-47 69.5t-19.5 107.5t3 138.5q-35 -68 -76 -129t-88 -109.5t-99 -76t-110 -27.5q-90 0 -145 51t-80.5 140.5t-24.5 208t21.5 255t59 282.5t89 288.5t108.5 274.5t120 239
q20 37 55 40t72 -16.5t72.5 -56.5t60.5 -78t33 -81t-10 -66q-54 -82 -117.5 -208t-124 -268.5t-109.5 -289t-75.5 -268t-23.5 -205.5t50 -103q33 -14 72 12.5t80 78t79.5 120t75.5 141t67 142t52 121.5q43 157 96.5 315t102.5 290t87 226t50 123zM790 2076q25 -10 72.5 -33
t104.5 -57t116 -74t108 -83q18 -17 19.5 -34t-9 -29.5t-28.5 -18t-36 2.5q-42 21 -94.5 37t-103 29.5t-92.5 26t-66 27.5q-27 21 -42 59.5t-16 75.5t15 60t52 11z" />
    <glyph glyph-name=".notdef.087" unicode="&#xda;" horiz-adv-x="1200" 
d="M1110 1622q14 35 47 44t72 -1t79 -34.5t70.5 -58.5t46 -72t5.5 -75q-9 -28 -42.5 -101t-84 -174t-109.5 -221t-117.5 -242t-108.5 -234.5t-82 -200.5t-40 -140.5t20 -52.5q47 0 98.5 49.5t99.5 118t86 141t58 117.5q19 45 47.5 60.5t52 5.5t33 -42t-9.5 -83
q-14 -35 -39.5 -85t-61.5 -107.5t-81 -114t-96.5 -101.5t-106.5 -73.5t-112 -28.5q-50 0 -80.5 24.5t-47 69.5t-19.5 107.5t3 138.5q-35 -68 -76 -129t-88 -109.5t-99 -76t-110 -27.5q-90 0 -145 51t-80.5 140.5t-24.5 208t21.5 255t59 282.5t89 288.5t108.5 274.5t120 239
q20 37 55 40t72 -16.5t72.5 -56.5t60.5 -78t33 -81t-10 -66q-54 -82 -117.5 -208t-124 -268.5t-109.5 -289t-75.5 -268t-23.5 -205.5t50 -103q33 -14 72 12.5t80 78t79.5 120t75.5 141t67 142t52 121.5q43 157 96.5 315t102.5 290t87 226t50 123zM1199 2022q38 8 47 -18
t0 -63t-33 -74t-54 -53q-26 -12 -69.5 -19.5t-96 -14t-106.5 -15.5t-99 -24q-20 -6 -36.5 1.5t-22.5 22.5t-1.5 32t26.5 31q57 37 124 70t129 58t113.5 42.5t78.5 23.5z" />
    <glyph glyph-name=".notdef.070" unicode="&#xdd;" horiz-adv-x="856" 
d="M854 1604q23 51 70 51t91 -33t70.5 -87t12.5 -110q-8 -26 -37 -99t-73 -174t-100.5 -226t-122 -256t-136 -261t-142.5 -243q43 8 100.5 27.5t118 55.5t118 92t102.5 140q20 37 47.5 53.5t49 10.5t30 -33t-10.5 -74q-28 -71 -82.5 -133.5t-124 -115t-146.5 -94.5
t-147.5 -72.5t-129 -50t-90.5 -27.5q-13 -2 -21 0q-18 0 -35.5 10t-26 28.5t-6 44t20.5 54.5q41 65 84 150t84 180.5t82 199t80 207.5q-72 -96 -153 -153.5t-169 -38.5q-74 14 -109.5 64t-42 125t11 170t53.5 200.5t85 217.5t102 218q19 37 50.5 46t65.5 -1t68 -36.5
t56.5 -59.5t30.5 -69t-8 -64q-54 -101 -121.5 -212.5t-119.5 -209.5t-73.5 -167t17.5 -83q34 -12 74 10.5t81 67.5t80 104.5t74 122t63.5 120.5t47.5 99q40 121 67 204t39 110zM1072 1990q38 8 47 -18t0 -63t-33 -74t-54 -53q-26 -12 -69.5 -19.5t-96 -14t-106.5 -15.5
t-99 -24q-20 -6 -36.5 1.5t-22.5 22.5t-1.5 32t26.5 31q57 37 124 70t129 58t113.5 42.5t78.5 23.5z" />
    <glyph glyph-name=".notdef.066" unicode="&#xe0;" 
d="M664 727q18 39 65 45t95 -12.5t79 -57t17 -94.5q-11 -37 -37.5 -87t-58 -102t-62.5 -103.5t-49.5 -91.5t-17.5 -62.5t32 -20.5q47 4 91 40t83 87t69.5 108.5t49.5 102.5q20 45 48 61.5t50.5 8.5t30.5 -39t-12 -82q-19 -51 -59 -125t-96 -141.5t-129 -115.5t-159 -48
q-88 0 -121.5 62.5t-33.5 154.5q-58 -90 -134.5 -151.5t-173.5 -53.5q-104 8 -163.5 65.5t-79 143.5t0 190.5t74 207t141.5 192.5t203.5 145.5t261 67.5t312.5 -41q39 -12 58.5 -40t16.5 -52.5t-31 -38.5t-83 -2q-94 22 -180 6t-161 -59t-136.5 -106.5t-108.5 -133.5
t-75.5 -139.5t-38 -128t2 -97t48.5 -45.5q43 -8 84 25t80 88t72.5 126t60.5 136q18 66 37.5 121t36.5 86zM595 1393q25 -10 72.5 -33t104.5 -57t116 -74t108 -83q18 -17 19.5 -34t-9 -29.5t-28.5 -18t-36 2.5q-42 21 -94.5 37t-103 29.5t-92.5 26t-66 27.5q-27 21 -42 59.5
t-16 75.5t15 60t52 11z" />
    <glyph glyph-name=".notdef.065" unicode="&#xe1;" 
d="M664 727q18 39 65 45t95 -12.5t79 -57t17 -94.5q-11 -37 -37.5 -87t-58 -102t-62.5 -103.5t-49.5 -91.5t-17.5 -62.5t32 -20.5q47 4 91 40t83 87t69.5 108.5t49.5 102.5q20 45 48 61.5t50.5 8.5t30.5 -39t-12 -82q-19 -51 -59 -125t-96 -141.5t-129 -115.5t-159 -48
q-88 0 -121.5 62.5t-33.5 154.5q-58 -90 -134.5 -151.5t-173.5 -53.5q-104 8 -163.5 65.5t-79 143.5t0 190.5t74 207t141.5 192.5t203.5 145.5t261 67.5t312.5 -41q39 -12 58.5 -40t16.5 -52.5t-31 -38.5t-83 -2q-94 22 -180 6t-161 -59t-136.5 -106.5t-108.5 -133.5
t-75.5 -139.5t-38 -128t2 -97t48.5 -45.5q43 -8 84 25t80 88t72.5 126t60.5 136q18 66 37.5 121t36.5 86zM1105 1385q38 8 47 -18t0 -63t-33 -74t-54 -53q-26 -12 -69.5 -19.5t-96 -14t-106.5 -15.5t-99 -24q-20 -6 -36.5 1.5t-22.5 22.5t-1.5 32t26.5 31q57 37 124 70
t129 58t113.5 42.5t78.5 23.5z" />
    <glyph glyph-name=".notdef.061" unicode="&#xe2;" 
d="M664 727q18 39 65 45t95 -12.5t79 -57t17 -94.5q-11 -37 -37.5 -87t-58 -102t-62.5 -103.5t-49.5 -91.5t-17.5 -62.5t32 -20.5q47 4 91 40t83 87t69.5 108.5t49.5 102.5q20 45 48 61.5t50.5 8.5t30.5 -39t-12 -82q-19 -51 -59 -125t-96 -141.5t-129 -115.5t-159 -48
q-88 0 -121.5 62.5t-33.5 154.5q-58 -90 -134.5 -151.5t-173.5 -53.5q-104 8 -163.5 65.5t-79 143.5t0 190.5t74 207t141.5 192.5t203.5 145.5t261 67.5t312.5 -41q39 -12 58.5 -40t16.5 -52.5t-31 -38.5t-83 -2q-94 22 -180 6t-161 -59t-136.5 -106.5t-108.5 -133.5
t-75.5 -139.5t-38 -128t2 -97t48.5 -45.5q43 -8 84 25t80 88t72.5 126t60.5 136q18 66 37.5 121t36.5 86zM1022 1158q12 -37 -7 -59t-46.5 -29t-54.5 1.5t-34 31.5q-6 24 -7.5 44.5t-3.5 40.5t-6 39.5t-13 41.5q-32 -22 -53.5 -44t-39.5 -42t-36 -39.5t-44 -36.5
q-31 -20 -69.5 -26t-66 1t-35.5 26t22 50q21 21 47.5 45t63 51t85.5 56.5t115 65.5q18 8 28 8h2h2q25 0 41 -18q47 -58 70 -106t40 -102z" />
    <glyph glyph-name=".notdef.063" unicode="&#xe3;" 
d="M664 727q18 39 65 45t95 -12.5t79 -57t17 -94.5q-11 -37 -37.5 -87t-58 -102t-62.5 -103.5t-49.5 -91.5t-17.5 -62.5t32 -20.5q47 4 91 40t83 87t69.5 108.5t49.5 102.5q20 45 48 61.5t50.5 8.5t30.5 -39t-12 -82q-19 -51 -59 -125t-96 -141.5t-129 -115.5t-159 -48
q-88 0 -121.5 62.5t-33.5 154.5q-58 -90 -134.5 -151.5t-173.5 -53.5q-104 8 -163.5 65.5t-79 143.5t0 190.5t74 207t141.5 192.5t203.5 145.5t261 67.5t312.5 -41q39 -12 58.5 -40t16.5 -52.5t-31 -38.5t-83 -2q-94 22 -180 6t-161 -59t-136.5 -106.5t-108.5 -133.5
t-75.5 -139.5t-38 -128t2 -97t48.5 -45.5q43 -8 84 25t80 88t72.5 126t60.5 136q18 66 37.5 121t36.5 86zM593 1236q47 39 87 50t76 6.5t65.5 -17t56 -23t49 -11t43.5 19.5q30 32 56 35.5t36 -11.5t1 -45.5t-48 -71.5q-43 -44 -83 -58t-75.5 -12t-68 14t-61.5 24t-55.5 15.5
t-48.5 -14.5q-43 -29 -69 -31.5t-32.5 14t10 48t61.5 68.5z" />
    <glyph glyph-name=".notdef.049" unicode="&#xe8;" horiz-adv-x="856" 
d="M567 430q-100 -35 -172.5 -37t-126.5 8q-18 -55 -26.5 -105t1 -88t36 -59.5t75.5 -21.5q109 0 195 38t149.5 93t104.5 115.5t59 105.5q21 45 48.5 61.5t50 8.5t30.5 -39t-12 -82q-18 -51 -68.5 -125t-128 -141.5t-183 -114.5t-237.5 -47q-153 0 -241 77t-114.5 193.5
t4 250.5t112.5 251t212 193.5t302 76.5q113 0 172 -37.5t76.5 -97t-1 -132.5t-64.5 -140.5t-111.5 -122.5t-141.5 -82zM522 539q78 30 133.5 90.5t79 122t13 107.5t-61.5 46q-41 0 -90 -33.5t-99.5 -89t-96.5 -125t-83 -143.5q41 -6 93.5 -2t111.5 27zM438 1420
q25 -10 72.5 -33t104.5 -57t116 -74t108 -83q18 -17 19.5 -34t-9 -29.5t-28.5 -18t-36 2.5q-42 21 -94.5 37t-103 29.5t-92.5 26t-66 27.5q-27 21 -42 59.5t-16 75.5t15 60t52 11z" />
    <glyph glyph-name=".notdef.048" unicode="&#xe9;" horiz-adv-x="856" 
d="M567 430q-100 -35 -172.5 -37t-126.5 8q-18 -55 -26.5 -105t1 -88t36 -59.5t75.5 -21.5q109 0 195 38t149.5 93t104.5 115.5t59 105.5q21 45 48.5 61.5t50 8.5t30.5 -39t-12 -82q-18 -51 -68.5 -125t-128 -141.5t-183 -114.5t-237.5 -47q-153 0 -241 77t-114.5 193.5
t4 250.5t112.5 251t212 193.5t302 76.5q113 0 172 -37.5t76.5 -97t-1 -132.5t-64.5 -140.5t-111.5 -122.5t-141.5 -82zM522 539q78 30 133.5 90.5t79 122t13 107.5t-61.5 46q-41 0 -90 -33.5t-99.5 -89t-96.5 -125t-83 -143.5q41 -6 93.5 -2t111.5 27zM868 1388q38 8 47 -18
t0 -63t-33 -74t-54 -53q-26 -12 -69.5 -19.5t-96 -14t-106.5 -15.5t-99 -24q-20 -6 -36.5 1.5t-22.5 22.5t-1.5 32t26.5 31q57 37 124 70t129 58t113.5 42.5t78.5 23.5z" />
    <glyph glyph-name=".notdef.044" unicode="&#xea;" horiz-adv-x="856" 
d="M567 430q-100 -35 -172.5 -37t-126.5 8q-18 -55 -26.5 -105t1 -88t36 -59.5t75.5 -21.5q109 0 195 38t149.5 93t104.5 115.5t59 105.5q21 45 48.5 61.5t50 8.5t30.5 -39t-12 -82q-18 -51 -68.5 -125t-128 -141.5t-183 -114.5t-237.5 -47q-153 0 -241 77t-114.5 193.5
t4 250.5t112.5 251t212 193.5t302 76.5q113 0 172 -37.5t76.5 -97t-1 -132.5t-64.5 -140.5t-111.5 -122.5t-141.5 -82zM522 539q78 30 133.5 90.5t79 122t13 107.5t-61.5 46q-41 0 -90 -33.5t-99.5 -89t-96.5 -125t-83 -143.5q41 -6 93.5 -2t111.5 27zM882 1163
q12 -37 -7 -59t-46.5 -29t-54.5 1.5t-34 31.5q-6 24 -7.5 44.5t-3.5 40.5t-6 39.5t-13 41.5q-32 -22 -53.5 -44t-39.5 -42t-36 -39.5t-44 -36.5q-31 -20 -69.5 -26t-66 1t-35.5 26t22 50q21 21 47.5 45t63 51t85.5 56.5t115 65.5q18 8 28 8h2h2q25 0 41 -18q47 -58 70 -106
t40 -102z" />
    <glyph glyph-name=".notdef.038" unicode="&#xec;" horiz-adv-x="440" 
d="M166 965q22 51 76.5 54t109 -24.5t89 -78t20.5 -105.5q-10 -37 -46 -101.5t-80 -140t-90 -153.5t-77 -139.5t-38 -99.5t24 -36q47 4 91 40t83 87t69.5 108.5t48.5 102.5q21 45 48.5 61.5t50 8.5t31 -39t-12.5 -82q-20 -51 -60 -125t-96.5 -141.5t-129 -115.5t-158.5 -48
q-84 0 -118 61.5t-35 156.5t24.5 210t58.5 222.5t67 193.5t50 123zM165 1405q25 -10 72.5 -33t104.5 -57t116 -74t108 -83q18 -17 19.5 -34t-9 -29.5t-28.5 -18t-36 2.5q-42 21 -94.5 37t-103 29.5t-92.5 26t-66 27.5q-27 21 -42 59.5t-16 75.5t15 60t52 11z" />
    <glyph glyph-name=".notdef.037" unicode="&#xed;" horiz-adv-x="440" 
d="M166 965q22 51 76.5 54t109 -24.5t89 -78t20.5 -105.5q-10 -37 -46 -101.5t-80 -140t-90 -153.5t-77 -139.5t-38 -99.5t24 -36q47 4 91 40t83 87t69.5 108.5t48.5 102.5q21 45 48.5 61.5t50 8.5t31 -39t-12.5 -82q-20 -51 -60 -125t-96.5 -141.5t-129 -115.5t-158.5 -48
q-84 0 -118 61.5t-35 156.5t24.5 210t58.5 222.5t67 193.5t50 123zM635 1388q38 8 47 -18t0 -63t-33 -74t-54 -53q-26 -12 -69.5 -19.5t-96 -14t-106.5 -15.5t-99 -24q-20 -6 -36.5 1.5t-22.5 22.5t-1.5 32t26.5 31q57 37 124 70t129 58t113.5 42.5t78.5 23.5z" />
    <glyph glyph-name=".notdef.033" unicode="&#xf2;" horiz-adv-x="985" 
d="M524 1036q17 2 31 2h27h10h4q111 0 183.5 -31.5t113.5 -87t51 -128t-5 -152.5t-54 -164t-97 -160q78 17 125.5 59t77.5 101q19 37 46.5 51.5t51 8t34 -31t-6.5 -63.5q-16 -41 -53 -87t-92.5 -84t-129 -62.5t-167.5 -20.5q-101 -92 -224.5 -146t-261.5 -46
q-98 6 -150 65.5t-64.5 150.5t13 202.5t83 221t145.5 207t199 156.5q47 29 110 39zM500 356q53 88 88 186.5t43 181.5t-14.5 136t-81.5 49q-46 -6 -78.5 -39.5t-53 -84t-27.5 -111t4 -120.5t40 -112.5t80 -85.5zM248 692q-62 -86 -100.5 -184t-48 -181t16 -138.5t93.5 -55.5
q59 0 115.5 34t105.5 91q-106 72 -150 191.5t-32 242.5zM508 1405q25 -10 72.5 -33t104.5 -57t116 -74t108 -83q18 -17 19.5 -34t-9 -29.5t-28.5 -18t-36 2.5q-42 21 -94.5 37t-103 29.5t-92.5 26t-66 27.5q-27 21 -42 59.5t-16 75.5t15 60t52 11z" />
    <glyph glyph-name=".notdef.032" unicode="&#xf3;" horiz-adv-x="985" 
d="M524 1036q17 2 30 2h28h14q111 0 183.5 -31.5t113.5 -87t51 -128t-5 -152.5t-54 -164t-97 -160q78 17 125.5 59t77.5 101q19 37 46.5 51.5t51 8t34 -31t-6.5 -63.5q-16 -41 -53 -87t-92.5 -84t-129 -62.5t-167.5 -20.5q-101 -92 -224.5 -146t-261.5 -46q-98 6 -150 65.5
t-64.5 150.5t13 202.5t83 221t145.5 207t199 156.5q47 29 110 39zM500 356q53 88 88 186.5t43 181.5t-14.5 136t-81.5 49q-46 -6 -78.5 -39.5t-53 -84t-27.5 -111t4 -120.5t40 -112.5t80 -85.5zM248 692q-62 -86 -100.5 -184t-48 -181t16 -138.5t93.5 -55.5q59 0 115.5 34
t105.5 91q-106 72 -150 191.5t-32 242.5zM868 1388q38 8 47 -18t0 -63t-33 -74t-54 -53q-26 -12 -69.5 -19.5t-96 -14t-106.5 -15.5t-99 -24q-20 -6 -36.5 1.5t-22.5 22.5t-1.5 32t26.5 31q57 37 124 70t129 58t113.5 42.5t78.5 23.5z" />
    <glyph glyph-name=".notdef.028" unicode="&#xf4;" horiz-adv-x="985" 
d="M524 1036q23 2 39.5 3t32.5 -1q111 0 183.5 -31.5t113.5 -87t51 -128t-5 -152.5t-54 -164t-97 -160q78 17 125.5 59t77.5 101q19 37 46.5 51.5t51 8t34 -31t-6.5 -63.5q-16 -41 -53 -87t-92.5 -84t-129 -62.5t-167.5 -20.5q-101 -92 -224.5 -146t-261.5 -46
q-98 6 -150 65.5t-64.5 150.5t13 202.5t83 221t145.5 207t199 156.5q47 29 110 39zM500 356q53 88 88 186.5t43 181.5t-14.5 136t-81.5 49q-46 -6 -78.5 -39.5t-53 -84t-27.5 -111t4 -120.5t40 -112.5t80 -85.5zM248 692q-62 -86 -100.5 -184t-48 -181t16 -138.5t93.5 -55.5
q59 0 115.5 34t105.5 91q-106 72 -150 191.5t-32 242.5zM924 1162q12 -37 -7 -59t-46.5 -29t-54.5 1.5t-34 31.5q-6 24 -7.5 44.5t-3.5 40.5t-6 39.5t-13 41.5q-32 -22 -53.5 -44t-39.5 -42t-36 -39.5t-44 -36.5q-31 -20 -69.5 -26t-66 1t-35.5 26t22 50q21 21 47.5 45
t63 51t85.5 56.5t115 65.5q18 8 28 8h2h2q25 0 41 -18q47 -58 70 -106t40 -102z" />
    <glyph glyph-name=".notdef.030" unicode="&#xf5;" horiz-adv-x="985" 
d="M524 1036q23 2 39.5 3t32.5 -1q111 0 183.5 -31.5t113.5 -87t51 -128t-5 -152.5t-54 -164t-97 -160q78 17 125.5 59t77.5 101q19 37 46.5 51.5t51 8t34 -31t-6.5 -63.5q-16 -41 -53 -87t-92.5 -84t-129 -62.5t-167.5 -20.5q-101 -92 -224.5 -146t-261.5 -46
q-98 6 -150 65.5t-64.5 150.5t13 202.5t83 221t145.5 207t199 156.5q47 29 110 39zM500 356q53 88 88 186.5t43 181.5t-14.5 136t-81.5 49q-46 -6 -78.5 -39.5t-53 -84t-27.5 -111t4 -120.5t40 -112.5t80 -85.5zM248 692q-62 -86 -100.5 -184t-48 -181t16 -138.5t93.5 -55.5
q59 0 115.5 34t105.5 91q-106 72 -150 191.5t-32 242.5zM531 1246q47 39 87 50t76 6.5t65.5 -17t56 -23t49 -11t43.5 19.5q30 32 56 35.5t36 -11.5t1 -45.5t-48 -71.5q-43 -44 -83 -58t-75.5 -12t-68 14t-61.5 24t-55.5 15.5t-48.5 -14.5q-43 -29 -69 -31.5t-32.5 14t10 48
t61.5 68.5z" />
    <glyph glyph-name="divide" unicode="&#xf7;" horiz-adv-x="1706" 
 />
    <glyph glyph-name=".notdef.022" unicode="&#xf9;" horiz-adv-x="965" 
d="M690 965q23 51 77 54t108.5 -24.5t89 -78t20.5 -105.5q-10 -37 -46 -101.5t-80 -140t-90 -153.5t-76.5 -139.5t-38 -99.5t23.5 -36q47 4 91 40t82 87t68.5 108.5t51.5 102.5q20 45 48 61.5t50.5 8.5t30.5 -39t-13 -82q-20 -51 -60 -125t-96.5 -141.5t-129 -115.5
t-158.5 -48q-49 0 -81 21.5t-48 58.5t-20.5 88t0.5 110q-35 -61 -77 -117.5t-90 -95t-101.5 -58t-110.5 -7.5q-74 14 -110 64.5t-43 125t11.5 171t53 202t84 216t104.5 216.5q18 37 50 46.5t66 -1t67.5 -37t56 -59.5t30 -68.5t-7.5 -64.5q-37 -66 -80 -138.5t-84 -144
t-76.5 -138t-57 -119t-23.5 -88.5t24 -44q35 -12 74 10.5t78 67.5t75.5 106.5t69.5 124t58.5 121t42.5 99.5q32 102 64 183t48 116zM451 1420q25 -10 72.5 -33t104.5 -57t116 -74t108 -83q18 -17 19.5 -34t-9 -29.5t-28.5 -18t-36 2.5q-42 21 -94.5 37t-103 29.5t-92.5 26
t-66 27.5q-27 21 -42 59.5t-16 75.5t15 60t52 11z" />
    <glyph glyph-name=".notdef.021" unicode="&#xfa;" horiz-adv-x="965" 
d="M690 965q23 51 77 54t108.5 -24.5t89 -78t20.5 -105.5q-10 -37 -46 -101.5t-80 -140t-90 -153.5t-76.5 -139.5t-38 -99.5t23.5 -36q47 4 91 40t82 87t68.5 108.5t51.5 102.5q20 45 48 61.5t50.5 8.5t30.5 -39t-13 -82q-20 -51 -60 -125t-96.5 -141.5t-129 -115.5
t-158.5 -48q-49 0 -81 21.5t-48 58.5t-20.5 88t0.5 110q-35 -61 -77 -117.5t-90 -95t-101.5 -58t-110.5 -7.5q-74 14 -110 64.5t-43 125t11.5 171t53 202t84 216t104.5 216.5q18 37 50 46.5t66 -1t67.5 -37t56 -59.5t30 -68.5t-7.5 -64.5q-37 -66 -80 -138.5t-84 -144
t-76.5 -138t-57 -119t-23.5 -88.5t24 -44q35 -12 74 10.5t78 67.5t75.5 106.5t69.5 124t58.5 121t42.5 99.5q32 102 64 183t48 116zM884 1385q38 8 47 -18t0 -63t-33 -74t-54 -53q-26 -12 -69.5 -19.5t-96 -14t-106.5 -15.5t-99 -24q-20 -6 -36.5 1.5t-22.5 22.5t-1.5 32
t26.5 31q57 37 124 70t129 58t113.5 42.5t78.5 23.5z" />
    <glyph glyph-name=".notdef.004" unicode="&#xfd;" horiz-adv-x="946" 
d="M698 977q13 35 39.5 44t58 1t63.5 -30.5t54.5 -54.5t31.5 -67.5t-5 -68.5q-10 -23 -36.5 -88.5t-67.5 -157.5t-94.5 -203.5t-116.5 -226.5q61 39 113.5 85t95.5 93t75.5 93t51.5 87q18 39 44.5 52.5t48 5t32 -34t-4.5 -62.5q-18 -45 -58 -111.5t-109.5 -139t-168 -141
t-233.5 -118.5q-70 -108 -146.5 -203.5t-158.5 -160t-166 -91t-168 0.5q-84 26 -116.5 89.5t8 140.5t165.5 154t357 132q8 12 14 25.5t12 27.5q-43 -33 -92 -47t-102 -4q-74 14 -110 64.5t-43 125t11.5 171t53.5 202t84 216t104 216.5q19 37 50.5 46.5t65.5 -1t67.5 -37
t56 -59.5t30 -68.5t-7.5 -64.5q-37 -66 -80 -138.5t-84 -144t-76.5 -138t-57 -119t-23.5 -88.5t24 -44q33 -12 69 7.5t71.5 59.5t71.5 93t67 113q36 67 72 146q78 195 163 421zM909 1385q38 8 47 -18t0 -63t-33 -74t-54 -53q-26 -12 -69.5 -19.5t-96 -14t-106.5 -15.5
t-99 -24q-20 -6 -36.5 1.5t-22.5 22.5t-1.5 32t26.5 31q57 37 124 70t129 58t113.5 42.5t78.5 23.5zM-76 -397q60 -25 129.5 40.5t153.5 206.5q-119 -34 -188.5 -73t-100.5 -74t-26.5 -61.5t32.5 -38.5z" />
    <glyph glyph-name=".notdef.117" unicode="&#x102;" horiz-adv-x="1565" 
d="M90 397q-35 -10 -48 5.5t-12 45t15 65.5t36.5 69.5t50.5 58.5t56 31q35 4 139.5 -11.5t237.5 -29.5q105 162 210.5 329.5t193.5 313t148.5 253t76.5 148.5q10 27 25 37q20 29 58 33t82 -11.5t89 -45t79 -66.5t52 -77t8 -75q-8 -30 -37.5 -124.5t-69.5 -224.5t-85 -282.5
t-84 -298t-66.5 -269.5t-32.5 -197q-2 -25 -22.5 -48.5t-46 -30.5t-51 6t-37.5 60q-23 86 -28 206t1 259q-57 -16 -110.5 -25t-106.5 -14.5t-106.5 -7.5t-110.5 -4q-72 -108 -139.5 -205.5t-124 -174.5t-98.5 -128t-64 -65q-39 -27 -65.5 -28t-36 15.5t0 43t42.5 55.5
q18 16 53 58t81 105.5t101 143.5t115 170q-80 -8 -170 -23.5t-199 -44.5zM1118 1303q-84 -142 -196.5 -322t-231.5 -363q92 -6 181.5 -3t162.5 24q13 172 35.5 344t48.5 320zM1458 1988q-19 -45 -1.5 -67t50.5 -19t72.5 26t64.5 64q18 30 43 42.5t44.5 10t27 -21.5t-9.5 -52
q-37 -72 -94 -114.5t-118.5 -59.5t-120.5 -11t-99 34t-50 73t23 106q21 39 54 51.5t61.5 7t45 -24.5t7.5 -45z" />
    <glyph glyph-name=".notdef.055" unicode="&#x103;" 
d="M664 727q18 39 65 45t95 -12.5t79 -57t17 -94.5q-11 -37 -37.5 -87t-58 -102t-62.5 -103.5t-49.5 -91.5t-17.5 -62.5t32 -20.5q47 4 91 40t83 87t69.5 108.5t49.5 102.5q20 45 48 61.5t50.5 8.5t30.5 -39t-12 -82q-19 -51 -59 -125t-96 -141.5t-129 -115.5t-159 -48
q-88 0 -121.5 62.5t-33.5 154.5q-58 -90 -134.5 -151.5t-173.5 -53.5q-104 8 -163.5 65.5t-79 143.5t0 190.5t74 207t141.5 192.5t203.5 145.5t261 67.5t312.5 -41q39 -12 58.5 -40t16.5 -52.5t-31 -38.5t-83 -2q-94 22 -180 6t-161 -59t-136.5 -106.5t-108.5 -133.5
t-75.5 -139.5t-38 -128t2 -97t48.5 -45.5q43 -8 84 25t80 88t72.5 126t60.5 136q18 66 37.5 121t36.5 86zM796 1294q-19 -45 -1.5 -67t50.5 -19t72.5 26t64.5 64q18 30 43 42.5t44.5 10t27 -21.5t-9.5 -52q-37 -72 -94 -114.5t-118.5 -59.5t-120.5 -11t-99 34t-50 73t23 106
q21 39 54 51.5t61.5 7t45 -24.5t7.5 -45z" />
    <glyph glyph-name="Ccaron" unicode="&#x10c;" horiz-adv-x="1274" 
 />
    <glyph glyph-name="ccaron" unicode="&#x10d;" horiz-adv-x="922" 
 />
    <glyph glyph-name="Dslash" unicode="&#x110;" horiz-adv-x="1458" 
d="M1366 651q-80 -172 -189.5 -324.5t-232.5 -266t-250 -179t-241 -65.5q-58 0 -81.5 19.5t-21.5 42t26.5 42t63.5 19.5q80 0 157 54t149.5 150.5t140 228.5t129.5 287q43 109 72.5 219.5t42 213t8.5 190.5t-31 154.5t-75 104.5t-122 38q-168 0 -290.5 -56.5t-198.5 -135
t-103.5 -164.5t-3.5 -146q17 -43 -17 -82t-85 -61.5t-102.5 -22.5t-69.5 31t-8 97.5t51 148.5t115.5 170t183.5 160.5t254 118.5t330 46q229 0 355 -86t167 -229t5 -329.5t-128 -387.5zM522 1366q15 35 48.5 40t73.5 -10.5t82 -47t73.5 -70.5t48 -81t6.5 -79
q-6 -18 -26.5 -56t-51.5 -87t-70.5 -109.5t-82.5 -126.5q69 6 118 6q45 0 54.5 -31.5t-9 -70.5t-62.5 -76t-101 -47q-58 -12 -148 -8q-45 -72 -87 -138.5t-74.5 -126t-54 -107.5t-28.5 -79q-8 -38 -34.5 -52.5t-54 -6.5t-47 37t-11.5 76q14 100 41 207.5t61 218.5l-100 12
q-43 6 -48 32.5t13.5 55.5t54 50.5t74.5 19.5q15 -2 31 -2h33q43 116 88 223.5t83 196t66.5 149.5t40.5 88z" />
    <glyph glyph-name="dcroat" unicode="&#x111;" horiz-adv-x="1085" 
d="M1227 1878q18 35 51 40t70.5 -11.5t75.5 -49t67 -73.5t43 -84t4 -80q-6 -23 -39 -80t-82 -137q47 4 87 5t63 1q45 0 54 -31.5t-9.5 -70.5t-62.5 -76t-101 -47q-27 -4 -72 -6t-100 -2q-68 -107 -139.5 -223.5t-137 -229.5t-119 -215t-84 -181t-32.5 -129.5t35 -56.5
q45 -8 90 27t83 89t69.5 115.5t50.5 106.5q20 45 47.5 61.5t50 8.5t31 -39t-12.5 -82q-18 -51 -58 -127t-97.5 -145.5t-129 -116.5t-157.5 -41q-104 6 -143 83t-31 200q-33 -58 -72 -108t-84 -88t-96 -58.5t-109 -16.5q-108 8 -167.5 65.5t-78 142.5t1 188.5t68.5 205
t126 191.5t173.5 146.5t207 69.5t231.5 -36q22 55 46.5 108.5t47.5 106.5l-162 19q-43 6 -48 32.5t13.5 55t54 50t74.5 19.5q58 -4 150 0q45 96 88 180t77.5 151t58.5 112t34 61zM299 145q35 -8 69.5 13.5t69.5 61.5t68 92.5t62.5 108.5t53 110.5t42.5 97.5
q18 59 39.5 118.5t44.5 118.5q-86 4 -164 -46t-142.5 -127t-109.5 -170t-66.5 -174t-14.5 -138t48 -66z" />
    <glyph glyph-name=".notdef.101" unicode="&#x128;" horiz-adv-x="629" 
d="M610 1624q15 35 48.5 40t73.5 -10.5t82 -46t74 -70.5t48 -82t6 -79q-6 -22 -42 -81.5t-91 -142.5t-123 -183.5t-139.5 -208t-139 -214t-123 -202.5t-92 -174t-42.5 -127q-7 -41 -33.5 -54.5t-54 -5t-48 37t-12.5 75.5q16 121 64.5 273.5t112 312.5t134 316.5t133 286.5
t107.5 220t57 119zM671 1859q47 39 87 50t76 6.5t65.5 -17t56 -23t49 -11t43.5 19.5q30 32 56 35.5t36 -11.5t1 -45.5t-48 -71.5q-43 -44 -83 -58t-75.5 -12t-68 14t-61.5 24t-55.5 15.5t-48.5 -14.5q-43 -29 -69 -31.5t-32.5 14t10 48t61.5 68.5z" />
    <glyph glyph-name=".notdef.035" unicode="&#x129;" horiz-adv-x="440" 
d="M166 965q22 51 76.5 54t109 -24.5t89 -78t20.5 -105.5q-10 -37 -46 -101.5t-80 -140t-90 -153.5t-77 -139.5t-38 -99.5t24 -36q47 4 91 40t83 87t69.5 108.5t48.5 102.5q21 45 48.5 61.5t50 8.5t31 -39t-12.5 -82q-20 -51 -60 -125t-96.5 -141.5t-129 -115.5t-158.5 -48
q-84 0 -118 61.5t-35 156.5t24.5 210t58.5 222.5t67 193.5t50 123zM212 1209q47 39 87 50t76 6.5t65.5 -17t56 -23t49 -11t43.5 19.5q30 32 56 35.5t36 -11.5t1 -45.5t-48 -71.5q-43 -44 -83 -58t-75.5 -12t-68 14t-61.5 24t-55.5 15.5t-48.5 -14.5q-43 -29 -69 -31.5
t-32.5 14t10 48t61.5 68.5z" />
    <glyph glyph-name=".notdef.085" unicode="&#x168;" horiz-adv-x="1200" 
d="M1110 1622q14 35 47 44t72 -1t79 -34.5t70.5 -58.5t46 -72t5.5 -75q-9 -28 -42.5 -101t-84 -174t-109.5 -221t-117.5 -242t-108.5 -234.5t-82 -200.5t-40 -140.5t20 -52.5q47 0 98.5 49.5t99.5 118t86 141t58 117.5q19 45 47.5 60.5t52 5.5t33 -42t-9.5 -83
q-14 -35 -39.5 -85t-61.5 -107.5t-81 -114t-96.5 -101.5t-106.5 -73.5t-112 -28.5q-50 0 -80.5 24.5t-47 69.5t-19.5 107.5t3 138.5q-35 -68 -76 -129t-88 -109.5t-99 -76t-110 -27.5q-90 0 -145 51t-80.5 140.5t-24.5 208t21.5 255t59 282.5t89 288.5t108.5 274.5t120 239
q20 37 55 40t72 -16.5t72.5 -56.5t60.5 -78t33 -81t-10 -66q-54 -82 -117.5 -208t-124 -268.5t-109.5 -289t-75.5 -268t-23.5 -205.5t50 -103q33 -14 72 12.5t80 78t79.5 120t75.5 141t67 142t52 121.5q43 157 96.5 315t102.5 290t87 226t50 123zM791 1862q47 39 87 50
t76 6.5t65.5 -17t56 -23t49 -11t43.5 19.5q30 32 56 35.5t36 -11.5t1 -45.5t-48 -71.5q-43 -44 -83 -58t-75.5 -12t-68 14t-61.5 24t-55.5 15.5t-48.5 -14.5q-43 -29 -69 -31.5t-32.5 14t10 48t61.5 68.5z" />
    <glyph glyph-name=".notdef.019" unicode="&#x169;" horiz-adv-x="965" 
d="M690 965q23 51 77 54t108.5 -24.5t89 -78t20.5 -105.5q-10 -37 -46 -101.5t-80 -140t-90 -153.5t-76.5 -139.5t-38 -99.5t23.5 -36q47 4 91 40t82 87t68.5 108.5t51.5 102.5q20 45 48 61.5t50.5 8.5t30.5 -39t-13 -82q-20 -51 -60 -125t-96.5 -141.5t-129 -115.5
t-158.5 -48q-49 0 -81 21.5t-48 58.5t-20.5 88t0.5 110q-35 -61 -77 -117.5t-90 -95t-101.5 -58t-110.5 -7.5q-74 14 -110 64.5t-43 125t11.5 171t53 202t84 216t104.5 216.5q18 37 50 46.5t66 -1t67.5 -37t56 -59.5t30 -68.5t-7.5 -64.5q-37 -66 -80 -138.5t-84 -144
t-76.5 -138t-57 -119t-23.5 -88.5t24 -44q35 -12 74 10.5t78 67.5t75.5 106.5t69.5 124t58.5 121t42.5 99.5q32 102 64 183t48 116zM453 1221q47 39 87 50t76 6.5t65.5 -17t56 -23t49 -11t43.5 19.5q30 32 56 35.5t36 -11.5t1 -45.5t-48 -71.5q-43 -44 -83 -58t-75.5 -12
t-68 14t-61.5 24t-55.5 15.5t-48.5 -14.5q-43 -29 -69 -31.5t-32.5 14t10 48t61.5 68.5z" />
    <glyph glyph-name=".notdef.077" unicode="&#x1a0;" horiz-adv-x="1092" 
d="M932 1673q160 0 248 -72.5t117.5 -190.5t8 -269.5t-81 -308t-150.5 -308t-198.5 -269.5t-227.5 -190.5t-236 -72.5q-117 0 -192 72.5t-109.5 190.5t-32.5 269.5t41 308t110.5 308t174 269.5t235.5 190.5t293 72.5zM399 158q68 0 135.5 56t129 148.5t114.5 210t90 240.5
t55.5 240.5t10.5 210t-45 148.5t-109 56q-92 0 -173 -56t-148.5 -148.5t-118.5 -210t-83 -240.5t-41 -240.5t6.5 -210t58.5 -148.5t118 -56zM1507 1617q-23 -27 -56.5 -57.5t-69 -56.5t-72.5 -47t-70 -30q-55 -16 -75.5 2.5t17.5 62.5q33 38 49.5 66.5t27.5 51.5t24 45
t44 47q35 31 79.5 34.5t77.5 -11.5t43.5 -44t-19.5 -63z" />
    <glyph glyph-name=".notdef.011" unicode="&#x1a1;" 
d="M524 1036q23 2 39.5 3t32.5 -1q111 0 183.5 -31.5t113.5 -87t51 -128t-5 -152.5t-54 -164t-97 -160q78 17 125.5 59t77.5 101q19 37 46.5 51.5t51 8t34 -31t-6.5 -63.5q-16 -41 -53 -87t-92.5 -84t-129 -62.5t-167.5 -20.5q-101 -92 -224.5 -146t-261.5 -46
q-98 6 -150 65.5t-64.5 150.5t13 202.5t83 221t145.5 207t199 156.5q47 29 110 39zM500 356q53 88 88 186.5t43 181.5t-14.5 136t-81.5 49q-46 -6 -78.5 -39.5t-53 -84t-27.5 -111t4 -120.5t40 -112.5t80 -85.5zM248 692q-62 -86 -100.5 -184t-48 -181t16 -138.5t93.5 -55.5
q59 0 115.5 34t105.5 91q-106 72 -150 191.5t-32 242.5zM1143 936q-23 -27 -56.5 -57.5t-69 -56.5t-72.5 -47t-70 -30q-55 -16 -75.5 2.5t17.5 62.5q33 38 49.5 66.5t27.5 51.5t24 45t44 47q35 31 79.5 34.5t77.5 -11.5t43.5 -44t-19.5 -63z" />
    <glyph glyph-name=".notdef.083" unicode="&#x1af;" horiz-adv-x="1190" 
d="M1110 1622q14 35 47 44t72 -1t79 -34.5t70.5 -58.5t46 -72t5.5 -75q-9 -28 -42.5 -101t-84 -174t-109.5 -221t-117.5 -242t-108.5 -234.5t-82 -200.5t-40 -140.5t20 -52.5q47 0 98.5 49.5t99.5 118t86 141t58 117.5q19 45 47.5 60.5t52 5.5t33 -42t-9.5 -83
q-14 -35 -39.5 -85t-61.5 -107.5t-81 -114t-96.5 -101.5t-106.5 -73.5t-112 -28.5q-50 0 -80.5 24.5t-47 69.5t-19.5 107.5t3 138.5q-35 -68 -76 -129t-88 -109.5t-99 -76t-110 -27.5q-90 0 -145 51t-80.5 140.5t-24.5 208t21.5 255t59 282.5t89 288.5t108.5 274.5t120 239
q20 37 55 40t72 -16.5t72.5 -56.5t60.5 -78t33 -81t-10 -66q-54 -82 -117.5 -208t-124 -268.5t-109.5 -289t-75.5 -268t-23.5 -205.5t50 -103q33 -14 72 12.5t80 78t79.5 120t75.5 141t67 142t52 121.5q43 157 96.5 315t102.5 290t87 226t50 123zM1645 1628
q-23 -27 -56.5 -57.5t-69 -56.5t-72.5 -47t-70 -30q-55 -16 -75.5 2.5t17.5 62.5q33 38 49.5 66.5t27.5 51.5t24 45t44 47q35 31 79.5 34.5t77.5 -11.5t43.5 -44t-19.5 -63z" />
    <glyph glyph-name=".notdef.017" unicode="&#x1b0;" horiz-adv-x="991" 
d="M690 965q23 51 77 54t108.5 -24.5t89 -78t20.5 -105.5q-10 -37 -46 -101.5t-80 -140t-90 -153.5t-76.5 -139.5t-38 -99.5t23.5 -36q47 4 91 40t82 87t68.5 108.5t51.5 102.5q20 45 48 61.5t50.5 8.5t30.5 -39t-13 -82q-20 -51 -60 -125t-96.5 -141.5t-129 -115.5
t-158.5 -48q-49 0 -81 21.5t-48 58.5t-20.5 88t0.5 110q-35 -61 -77 -117.5t-90 -95t-101.5 -58t-110.5 -7.5q-74 14 -110 64.5t-43 125t11.5 171t53 202t84 216t104.5 216.5q18 37 50 46.5t66 -1t67.5 -37t56 -59.5t30 -68.5t-7.5 -64.5q-37 -66 -80 -138.5t-84 -144
t-76.5 -138t-57 -119t-23.5 -88.5t24 -44q35 -12 74 10.5t78 67.5t75.5 106.5t69.5 124t58.5 121t42.5 99.5q32 102 64 183t48 116zM1172 966q-23 -27 -56.5 -57.5t-69 -56.5t-72.5 -47t-70 -30q-55 -16 -75.5 2.5t17.5 62.5q33 38 49.5 66.5t27.5 51.5t24 45t44 47
q35 31 79.5 34.5t77.5 -11.5t43.5 -44t-19.5 -63z" />
    <glyph glyph-name=".notdef.110" unicode="&#x1ea0;" horiz-adv-x="1489" 
d="M90 397q-35 -10 -48 5.5t-12 45t15 65.5t36.5 69.5t50.5 58.5t56 31q35 4 139.5 -11.5t237.5 -29.5q105 162 210.5 329.5t193.5 313t148.5 253t76.5 148.5q10 27 25 37q20 29 58 33t82 -11.5t89 -45t79 -66.5t52 -77t8 -75q-8 -30 -37.5 -124.5t-69.5 -224.5t-85 -282.5
t-84 -298t-66.5 -269.5t-32.5 -197q-2 -25 -22.5 -48.5t-46 -30.5t-51 6t-37.5 60q-23 86 -28 206t1 259q-57 -16 -110.5 -25t-106.5 -14.5t-106.5 -7.5t-110.5 -4q-72 -108 -139.5 -205.5t-124 -174.5t-98.5 -128t-64 -65q-39 -27 -65.5 -28t-36 15.5t0 43t42.5 55.5
q18 16 53 58t81 105.5t101 143.5t115 170q-80 -8 -170 -23.5t-199 -44.5zM1118 1303q-84 -142 -196.5 -322t-231.5 -363q92 -6 181.5 -3t162.5 24q13 172 35.5 344t48.5 320zM523 -199q10 55 52.5 93.5t90.5 38.5q49 0 75.5 -38.5t16.5 -93.5q-12 -54 -54.5 -92.5
t-90.5 -38.5q-49 0 -75.5 38.5t-14.5 92.5z" />
    <glyph glyph-name=".notdef.062" unicode="&#x1ea1;" 
d="M664 727q18 39 65 45t95 -12.5t79 -57t17 -94.5q-11 -37 -37.5 -87t-58 -102t-62.5 -103.5t-49.5 -91.5t-17.5 -62.5t32 -20.5q47 4 91 40t83 87t69.5 108.5t49.5 102.5q20 45 48 61.5t50.5 8.5t30.5 -39t-12 -82q-19 -51 -59 -125t-96 -141.5t-129 -115.5t-159 -48
q-88 0 -121.5 62.5t-33.5 154.5q-58 -90 -134.5 -151.5t-173.5 -53.5q-104 8 -163.5 65.5t-79 143.5t0 190.5t74 207t141.5 192.5t203.5 145.5t261 67.5t312.5 -41q39 -12 58.5 -40t16.5 -52.5t-31 -38.5t-83 -2q-94 22 -180 6t-161 -59t-136.5 -106.5t-108.5 -133.5
t-75.5 -139.5t-38 -128t2 -97t48.5 -45.5q43 -8 84 25t80 88t72.5 126t60.5 136q18 66 37.5 121t36.5 86zM186 -182q10 55 52.5 93.5t90.5 38.5q49 0 75.5 -38.5t16.5 -93.5q-12 -54 -54.5 -92.5t-90.5 -38.5q-49 0 -75.5 38.5t-14.5 92.5z" />
    <glyph glyph-name=".notdef.108" unicode="&#x1ea2;" horiz-adv-x="1489" 
d="M90 397q-35 -10 -48 5.5t-12 45t15 65.5t36.5 69.5t50.5 58.5t56 31q35 4 139.5 -11.5t237.5 -29.5q105 162 210.5 329.5t193.5 313t148.5 253t76.5 148.5q10 27 25 37q20 29 58 33t82 -11.5t89 -45t79 -66.5t52 -77t8 -75q-8 -30 -37.5 -124.5t-69.5 -224.5t-85 -282.5
t-84 -298t-66.5 -269.5t-32.5 -197q-2 -25 -22.5 -48.5t-46 -30.5t-51 6t-37.5 60q-23 86 -28 206t1 259q-57 -16 -110.5 -25t-106.5 -14.5t-106.5 -7.5t-110.5 -4q-72 -108 -139.5 -205.5t-124 -174.5t-98.5 -128t-64 -65q-39 -27 -65.5 -28t-36 15.5t0 43t42.5 55.5
q18 16 53 58t81 105.5t101 143.5t115 170q-80 -8 -170 -23.5t-199 -44.5zM1118 1303q-84 -142 -196.5 -322t-231.5 -363q92 -6 181.5 -3t162.5 24q13 172 35.5 344t48.5 320zM1401 1869q27 24 60.5 45t50 46.5t2.5 46.5q-4 7 -14 12t-23 3t-26.5 -10.5t-24.5 -27.5
q-16 -22 -32.5 -30t-30 -7.5t-20 13t3.5 38.5q17 44 60 74.5t93.5 43.5t97 4.5t69.5 -47.5q13 -25 3.5 -53.5t-37 -59.5t-65 -57t-55.5 -37.5t-44 -39.5q-5 -45 -36 -50t-46.5 7t-11.5 38.5t26 47.5z" />
    <glyph glyph-name=".notdef.064" unicode="&#x1ea3;" 
d="M664 727q18 39 65 45t95 -12.5t79 -57t17 -94.5q-11 -37 -37.5 -87t-58 -102t-62.5 -103.5t-49.5 -91.5t-17.5 -62.5t32 -20.5q47 4 91 40t83 87t69.5 108.5t49.5 102.5q20 45 48 61.5t50.5 8.5t30.5 -39t-12 -82q-19 -51 -59 -125t-96 -141.5t-129 -115.5t-159 -48
q-88 0 -121.5 62.5t-33.5 154.5q-58 -90 -134.5 -151.5t-173.5 -53.5q-104 8 -163.5 65.5t-79 143.5t0 190.5t74 207t141.5 192.5t203.5 145.5t261 67.5t312.5 -41q39 -12 58.5 -40t16.5 -52.5t-31 -38.5t-83 -2q-94 22 -180 6t-161 -59t-136.5 -106.5t-108.5 -133.5
t-75.5 -139.5t-38 -128t2 -97t48.5 -45.5q43 -8 84 25t80 88t72.5 126t60.5 136q18 66 37.5 121t36.5 86zM762 1187q27 24 60.5 45t50 46.5t2.5 46.5q-4 7 -14 12t-23 3t-26.5 -10.5t-24.5 -27.5q-16 -22 -32.5 -30t-30 -7.5t-20 13t3.5 38.5q17 44 60 74.5t93.5 43.5
t97 4.5t69.5 -47.5q13 -25 3.5 -53.5t-37 -59.5t-65 -57t-55.5 -37.5t-44 -39.5q-5 -45 -36 -50t-46.5 7t-11.5 38.5t26 47.5z" />
    <glyph glyph-name=".notdef.113" unicode="&#x1ea4;" horiz-adv-x="1565" 
d="M90 397q-35 -10 -48 5.5t-12 45t15 65.5t36.5 69.5t50.5 58.5t56 31q35 4 139.5 -11.5t237.5 -29.5q105 162 210.5 329.5t193.5 313t148.5 253t76.5 148.5q10 27 25 37q20 29 58 33t82 -11.5t89 -45t79 -66.5t52 -77t8 -75q-8 -30 -37.5 -124.5t-69.5 -224.5t-85 -282.5
t-84 -298t-66.5 -269.5t-32.5 -197q-2 -25 -22.5 -48.5t-46 -30.5t-51 6t-37.5 60q-23 86 -28 206t1 259q-57 -16 -110.5 -25t-106.5 -14.5t-106.5 -7.5t-110.5 -4q-72 -108 -139.5 -205.5t-124 -174.5t-98.5 -128t-64 -65q-39 -27 -65.5 -28t-36 15.5t0 43t42.5 55.5
q18 16 53 58t81 105.5t101 143.5t115 170q-80 -8 -170 -23.5t-199 -44.5zM1118 1303q-84 -142 -196.5 -322t-231.5 -363q92 -6 181.5 -3t162.5 24q13 172 35.5 344t48.5 320zM1680 1877q12 -37 -7 -59t-46.5 -29t-54.5 1.5t-34 31.5q-6 24 -7.5 44.5t-3.5 40.5t-6 39.5
t-13 41.5q-32 -22 -53.5 -44t-39.5 -42t-36 -39.5t-44 -36.5q-31 -20 -69.5 -26t-66 1t-35.5 26t22 50q21 21 47.5 45t63 51t85.5 56.5t115 65.5q18 8 28 8h2h2q25 0 41 -18q47 -58 70 -106t40 -102zM1772 2394q38 8 47 -18t0 -63t-33 -74t-54 -53q-26 -12 -69.5 -19.5
t-96 -14t-106.5 -15.5t-99 -24q-20 -6 -36.5 1.5t-22.5 22.5t-1.5 32t26.5 31q57 37 124 70t129 58t113.5 42.5t78.5 23.5z" />
    <glyph glyph-name=".notdef.059" unicode="&#x1ea5;" 
d="M664 727q18 39 65 45t95 -12.5t79 -57t17 -94.5q-11 -37 -37.5 -87t-58 -102t-62.5 -103.5t-49.5 -91.5t-17.5 -62.5t32 -20.5q47 4 91 40t83 87t69.5 108.5t49.5 102.5q20 45 48 61.5t50.5 8.5t30.5 -39t-12 -82q-19 -51 -59 -125t-96 -141.5t-129 -115.5t-159 -48
q-88 0 -121.5 62.5t-33.5 154.5q-58 -90 -134.5 -151.5t-173.5 -53.5q-104 8 -163.5 65.5t-79 143.5t0 190.5t74 207t141.5 192.5t203.5 145.5t261 67.5t312.5 -41q39 -12 58.5 -40t16.5 -52.5t-31 -38.5t-83 -2q-94 22 -180 6t-161 -59t-136.5 -106.5t-108.5 -133.5
t-75.5 -139.5t-38 -128t2 -97t48.5 -45.5q43 -8 84 25t80 88t72.5 126t60.5 136q18 66 37.5 121t36.5 86zM1022 1158q12 -37 -7 -59t-46.5 -29t-54.5 1.5t-34 31.5q-6 24 -7.5 44.5t-3.5 40.5t-6 39.5t-13 41.5q-32 -22 -53.5 -44t-39.5 -42t-36 -39.5t-44 -36.5
q-31 -20 -69.5 -26t-66 1t-35.5 26t22 50q21 21 47.5 45t63 51t85.5 56.5t115 65.5q18 8 28 8h2h2q25 0 41 -18q47 -58 70 -106t40 -102zM1115 1676q38 8 47 -18t0 -63t-33 -74t-54 -53q-26 -12 -69.5 -19.5t-96 -14t-106.5 -15.5t-99 -24q-20 -6 -36.5 1.5t-22.5 22.5
t-1.5 32t26.5 31q57 37 124 70t129 58t113.5 42.5t78.5 23.5z" />
    <glyph glyph-name=".notdef.112" unicode="&#x1ea6;" horiz-adv-x="1565" 
d="M90 397q-35 -10 -48 5.5t-12 45t15 65.5t36.5 69.5t50.5 58.5t56 31q35 4 139.5 -11.5t237.5 -29.5q105 162 210.5 329.5t193.5 313t148.5 253t76.5 148.5q10 27 25 37q20 29 58 33t82 -11.5t89 -45t79 -66.5t52 -77t8 -75q-8 -30 -37.5 -124.5t-69.5 -224.5t-85 -282.5
t-84 -298t-66.5 -269.5t-32.5 -197q-2 -25 -22.5 -48.5t-46 -30.5t-51 6t-37.5 60q-23 86 -28 206t1 259q-57 -16 -110.5 -25t-106.5 -14.5t-106.5 -7.5t-110.5 -4q-72 -108 -139.5 -205.5t-124 -174.5t-98.5 -128t-64 -65q-39 -27 -65.5 -28t-36 15.5t0 43t42.5 55.5
q18 16 53 58t81 105.5t101 143.5t115 170q-80 -8 -170 -23.5t-199 -44.5zM1118 1303q-84 -142 -196.5 -322t-231.5 -363q92 -6 181.5 -3t162.5 24q13 172 35.5 344t48.5 320zM1680 1877q12 -37 -7 -59t-46.5 -29t-54.5 1.5t-34 31.5q-6 24 -7.5 44.5t-3.5 40.5t-6 39.5
t-13 41.5q-32 -22 -53.5 -44t-39.5 -42t-36 -39.5t-44 -36.5q-31 -20 -69.5 -26t-66 1t-35.5 26t22 50q21 21 47.5 45t63 51t85.5 56.5t115 65.5q18 8 28 8h2h2q25 0 41 -18q47 -58 70 -106t40 -102zM1341 2442q25 -10 72.5 -33t104.5 -57t116 -74t108 -83q18 -17 19.5 -34
t-9 -29.5t-28.5 -18t-36 2.5q-42 21 -94.5 37t-103 29.5t-92.5 26t-66 27.5q-27 21 -42 59.5t-16 75.5t15 60t52 11z" />
    <glyph glyph-name=".notdef.060" unicode="&#x1ea7;" 
d="M664 727q18 39 65 45t95 -12.5t79 -57t17 -94.5q-11 -37 -37.5 -87t-58 -102t-62.5 -103.5t-49.5 -91.5t-17.5 -62.5t32 -20.5q47 4 91 40t83 87t69.5 108.5t49.5 102.5q20 45 48 61.5t50.5 8.5t30.5 -39t-12 -82q-19 -51 -59 -125t-96 -141.5t-129 -115.5t-159 -48
q-88 0 -121.5 62.5t-33.5 154.5q-58 -90 -134.5 -151.5t-173.5 -53.5q-104 8 -163.5 65.5t-79 143.5t0 190.5t74 207t141.5 192.5t203.5 145.5t261 67.5t312.5 -41q39 -12 58.5 -40t16.5 -52.5t-31 -38.5t-83 -2q-94 22 -180 6t-161 -59t-136.5 -106.5t-108.5 -133.5
t-75.5 -139.5t-38 -128t2 -97t48.5 -45.5q43 -8 84 25t80 88t72.5 126t60.5 136q18 66 37.5 121t36.5 86zM1022 1158q12 -37 -7 -59t-46.5 -29t-54.5 1.5t-34 31.5q-6 24 -7.5 44.5t-3.5 40.5t-6 39.5t-13 41.5q-32 -22 -53.5 -44t-39.5 -42t-36 -39.5t-44 -36.5
q-31 -20 -69.5 -26t-66 1t-35.5 26t22 50q21 21 47.5 45t63 51t85.5 56.5t115 65.5q18 8 28 8h2h2q25 0 41 -18q47 -58 70 -106t40 -102zM684 1723q25 -10 72.5 -33t104.5 -57t116 -74t108 -83q18 -17 19.5 -34t-9 -29.5t-28.5 -18t-36 2.5q-42 21 -94.5 37t-103 29.5
t-92.5 26t-66 27.5q-27 21 -42 59.5t-16 75.5t15 60t52 11z" />
    <glyph glyph-name=".notdef.114" unicode="&#x1ea8;" horiz-adv-x="1565" 
d="M90 397q-35 -10 -48 5.5t-12 45t15 65.5t36.5 69.5t50.5 58.5t56 31q35 4 139.5 -11.5t237.5 -29.5q105 162 210.5 329.5t193.5 313t148.5 253t76.5 148.5q10 27 25 37q20 29 58 33t82 -11.5t89 -45t79 -66.5t52 -77t8 -75q-8 -30 -37.5 -124.5t-69.5 -224.5t-85 -282.5
t-84 -298t-66.5 -269.5t-32.5 -197q-2 -25 -22.5 -48.5t-46 -30.5t-51 6t-37.5 60q-23 86 -28 206t1 259q-57 -16 -110.5 -25t-106.5 -14.5t-106.5 -7.5t-110.5 -4q-72 -108 -139.5 -205.5t-124 -174.5t-98.5 -128t-64 -65q-39 -27 -65.5 -28t-36 15.5t0 43t42.5 55.5
q18 16 53 58t81 105.5t101 143.5t115 170q-80 -8 -170 -23.5t-199 -44.5zM1118 1303q-84 -142 -196.5 -322t-231.5 -363q92 -6 181.5 -3t162.5 24q13 172 35.5 344t48.5 320zM1680 1877q12 -37 -7 -59t-46.5 -29t-54.5 1.5t-34 31.5q-6 24 -7.5 44.5t-3.5 40.5t-6 39.5
t-13 41.5q-32 -22 -53.5 -44t-39.5 -42t-36 -39.5t-44 -36.5q-31 -20 -69.5 -26t-66 1t-35.5 26t22 50q21 21 47.5 45t63 51t85.5 56.5t115 65.5q18 8 28 8h2h2q25 0 41 -18q47 -58 70 -106t40 -102zM1696 2070q27 24 60.5 45t50 46.5t2.5 46.5q-4 7 -14 12t-23 3
t-26.5 -10.5t-24.5 -27.5q-16 -22 -32.5 -30t-30 -7.5t-20 13t3.5 38.5q17 44 60 74.5t93.5 43.5t97 4.5t69.5 -47.5q13 -25 3.5 -53.5t-37 -59.5t-65 -57t-55.5 -37.5t-44 -39.5q-5 -45 -36 -50t-46.5 7t-11.5 38.5t26 47.5z" />
    <glyph glyph-name=".notdef.058" unicode="&#x1ea9;" 
d="M664 727q18 39 65 45t95 -12.5t79 -57t17 -94.5q-11 -37 -37.5 -87t-58 -102t-62.5 -103.5t-49.5 -91.5t-17.5 -62.5t32 -20.5q47 4 91 40t83 87t69.5 108.5t49.5 102.5q20 45 48 61.5t50.5 8.5t30.5 -39t-12 -82q-19 -51 -59 -125t-96 -141.5t-129 -115.5t-159 -48
q-88 0 -121.5 62.5t-33.5 154.5q-58 -90 -134.5 -151.5t-173.5 -53.5q-104 8 -163.5 65.5t-79 143.5t0 190.5t74 207t141.5 192.5t203.5 145.5t261 67.5t312.5 -41q39 -12 58.5 -40t16.5 -52.5t-31 -38.5t-83 -2q-94 22 -180 6t-161 -59t-136.5 -106.5t-108.5 -133.5
t-75.5 -139.5t-38 -128t2 -97t48.5 -45.5q43 -8 84 25t80 88t72.5 126t60.5 136q18 66 37.5 121t36.5 86zM1022 1158q12 -37 -7 -59t-46.5 -29t-54.5 1.5t-34 31.5q-6 24 -7.5 44.5t-3.5 40.5t-6 39.5t-13 41.5q-32 -22 -53.5 -44t-39.5 -42t-36 -39.5t-44 -36.5
q-31 -20 -69.5 -26t-66 1t-35.5 26t22 50q21 21 47.5 45t63 51t85.5 56.5t115 65.5q18 8 28 8h2h2q25 0 41 -18q47 -58 70 -106t40 -102zM1038 1350q27 24 60.5 45t50 46.5t2.5 46.5q-4 7 -14 12t-23 3t-26.5 -10.5t-24.5 -27.5q-16 -22 -32.5 -30t-30 -7.5t-20 13t3.5 38.5
q17 44 60 74.5t93.5 43.5t97 4.5t69.5 -47.5q13 -25 3.5 -53.5t-37 -59.5t-65 -57t-55.5 -37.5t-44 -39.5q-5 -45 -36 -50t-46.5 7t-11.5 38.5t26 47.5z" />
    <glyph glyph-name=".notdef.115" unicode="&#x1eaa;" horiz-adv-x="1565" 
d="M90 397q-35 -10 -48 5.5t-12 45t15 65.5t36.5 69.5t50.5 58.5t56 31q35 4 139.5 -11.5t237.5 -29.5q105 162 210.5 329.5t193.5 313t148.5 253t76.5 148.5q10 27 25 37q20 29 58 33t82 -11.5t89 -45t79 -66.5t52 -77t8 -75q-8 -30 -37.5 -124.5t-69.5 -224.5t-85 -282.5
t-84 -298t-66.5 -269.5t-32.5 -197q-2 -25 -22.5 -48.5t-46 -30.5t-51 6t-37.5 60q-23 86 -28 206t1 259q-57 -16 -110.5 -25t-106.5 -14.5t-106.5 -7.5t-110.5 -4q-72 -108 -139.5 -205.5t-124 -174.5t-98.5 -128t-64 -65q-39 -27 -65.5 -28t-36 15.5t0 43t42.5 55.5
q18 16 53 58t81 105.5t101 143.5t115 170q-80 -8 -170 -23.5t-199 -44.5zM1118 1303q-84 -142 -196.5 -322t-231.5 -363q92 -6 181.5 -3t162.5 24q13 172 35.5 344t48.5 320zM1680 1877q12 -37 -7 -59t-46.5 -29t-54.5 1.5t-34 31.5q-6 24 -7.5 44.5t-3.5 40.5t-6 39.5
t-13 41.5q-32 -22 -53.5 -44t-39.5 -42t-36 -39.5t-44 -36.5q-31 -20 -69.5 -26t-66 1t-35.5 26t22 50q21 21 47.5 45t63 51t85.5 56.5t115 65.5q18 8 28 8h2h2q25 0 41 -18q47 -58 70 -106t40 -102zM1372 2286q47 39 87 50t76 6.5t65.5 -17t56 -23t49 -11t43.5 19.5
q30 32 56 35.5t36 -11.5t1 -45.5t-48 -71.5q-43 -44 -83 -58t-75.5 -12t-68 14t-61.5 24t-55.5 15.5t-48.5 -14.5q-43 -29 -69 -31.5t-32.5 14t10 48t61.5 68.5z" />
    <glyph glyph-name=".notdef.057" unicode="&#x1eab;" 
d="M664 727q18 39 65 45t95 -12.5t79 -57t17 -94.5q-11 -37 -37.5 -87t-58 -102t-62.5 -103.5t-49.5 -91.5t-17.5 -62.5t32 -20.5q47 4 91 40t83 87t69.5 108.5t49.5 102.5q20 45 48 61.5t50.5 8.5t30.5 -39t-12 -82q-19 -51 -59 -125t-96 -141.5t-129 -115.5t-159 -48
q-88 0 -121.5 62.5t-33.5 154.5q-58 -90 -134.5 -151.5t-173.5 -53.5q-104 8 -163.5 65.5t-79 143.5t0 190.5t74 207t141.5 192.5t203.5 145.5t261 67.5t312.5 -41q39 -12 58.5 -40t16.5 -52.5t-31 -38.5t-83 -2q-94 22 -180 6t-161 -59t-136.5 -106.5t-108.5 -133.5
t-75.5 -139.5t-38 -128t2 -97t48.5 -45.5q43 -8 84 25t80 88t72.5 126t60.5 136q18 66 37.5 121t36.5 86zM1022 1158q12 -37 -7 -59t-46.5 -29t-54.5 1.5t-34 31.5q-6 24 -7.5 44.5t-3.5 40.5t-6 39.5t-13 41.5q-32 -22 -53.5 -44t-39.5 -42t-36 -39.5t-44 -36.5
q-31 -20 -69.5 -26t-66 1t-35.5 26t22 50q21 21 47.5 45t63 51t85.5 56.5t115 65.5q18 8 28 8h2h2q25 0 41 -18q47 -58 70 -106t40 -102zM714 1567q47 39 87 50t76 6.5t65.5 -17t56 -23t49 -11t43.5 19.5q30 32 56 35.5t36 -11.5t1 -45.5t-48 -71.5q-43 -44 -83 -58
t-75.5 -12t-68 14t-61.5 24t-55.5 15.5t-48.5 -14.5q-43 -29 -69 -31.5t-32.5 14t10 48t61.5 68.5z" />
    <glyph glyph-name=".notdef.116" unicode="&#x1eac;" horiz-adv-x="1565" 
d="M90 397q-35 -10 -48 5.5t-12 45t15 65.5t36.5 69.5t50.5 58.5t56 31q35 4 139.5 -11.5t237.5 -29.5q105 162 210.5 329.5t193.5 313t148.5 253t76.5 148.5q10 27 25 37q20 29 58 33t82 -11.5t89 -45t79 -66.5t52 -77t8 -75q-8 -30 -37.5 -124.5t-69.5 -224.5t-85 -282.5
t-84 -298t-66.5 -269.5t-32.5 -197q-2 -25 -22.5 -48.5t-46 -30.5t-51 6t-37.5 60q-23 86 -28 206t1 259q-57 -16 -110.5 -25t-106.5 -14.5t-106.5 -7.5t-110.5 -4q-72 -108 -139.5 -205.5t-124 -174.5t-98.5 -128t-64 -65q-39 -27 -65.5 -28t-36 15.5t0 43t42.5 55.5
q18 16 53 58t81 105.5t101 143.5t115 170q-80 -8 -170 -23.5t-199 -44.5zM1118 1303q-84 -142 -196.5 -322t-231.5 -363q92 -6 181.5 -3t162.5 24q13 172 35.5 344t48.5 320zM1680 1877q12 -37 -7 -59t-46.5 -29t-54.5 1.5t-34 31.5q-6 24 -7.5 44.5t-3.5 40.5t-6 39.5
t-13 41.5q-32 -22 -53.5 -44t-39.5 -42t-36 -39.5t-44 -36.5q-31 -20 -69.5 -26t-66 1t-35.5 26t22 50q21 21 47.5 45t63 51t85.5 56.5t115 65.5q18 8 28 8h2h2q25 0 41 -18q47 -58 70 -106t40 -102zM523 -199q10 55 52.5 93.5t90.5 38.5q49 0 75.5 -38.5t16.5 -93.5
q-12 -54 -54.5 -92.5t-90.5 -38.5q-49 0 -75.5 38.5t-14.5 92.5z" />
    <glyph glyph-name=".notdef.056" unicode="&#x1ead;" 
d="M664 727q18 39 65 45t95 -12.5t79 -57t17 -94.5q-11 -37 -37.5 -87t-58 -102t-62.5 -103.5t-49.5 -91.5t-17.5 -62.5t32 -20.5q47 4 91 40t83 87t69.5 108.5t49.5 102.5q20 45 48 61.5t50.5 8.5t30.5 -39t-12 -82q-19 -51 -59 -125t-96 -141.5t-129 -115.5t-159 -48
q-88 0 -121.5 62.5t-33.5 154.5q-58 -90 -134.5 -151.5t-173.5 -53.5q-104 8 -163.5 65.5t-79 143.5t0 190.5t74 207t141.5 192.5t203.5 145.5t261 67.5t312.5 -41q39 -12 58.5 -40t16.5 -52.5t-31 -38.5t-83 -2q-94 22 -180 6t-161 -59t-136.5 -106.5t-108.5 -133.5
t-75.5 -139.5t-38 -128t2 -97t48.5 -45.5q43 -8 84 25t80 88t72.5 126t60.5 136q18 66 37.5 121t36.5 86zM1022 1158q12 -37 -7 -59t-46.5 -29t-54.5 1.5t-34 31.5q-6 24 -7.5 44.5t-3.5 40.5t-6 39.5t-13 41.5q-32 -22 -53.5 -44t-39.5 -42t-36 -39.5t-44 -36.5
q-31 -20 -69.5 -26t-66 1t-35.5 26t22 50q21 21 47.5 45t63 51t85.5 56.5t115 65.5q18 8 28 8h2h2q25 0 41 -18q47 -58 70 -106t40 -102zM186 -182q10 55 52.5 93.5t90.5 38.5q49 0 75.5 -38.5t16.5 -93.5q-12 -54 -54.5 -92.5t-90.5 -38.5q-49 0 -75.5 38.5t-14.5 92.5z
" />
    <glyph glyph-name=".notdef.119" unicode="&#x1eae;" horiz-adv-x="1565" 
d="M90 397q-35 -10 -48 5.5t-12 45t15 65.5t36.5 69.5t50.5 58.5t56 31q35 4 139.5 -11.5t237.5 -29.5q105 162 210.5 329.5t193.5 313t148.5 253t76.5 148.5q10 27 25 37q20 29 58 33t82 -11.5t89 -45t79 -66.5t52 -77t8 -75q-8 -30 -37.5 -124.5t-69.5 -224.5t-85 -282.5
t-84 -298t-66.5 -269.5t-32.5 -197q-2 -25 -22.5 -48.5t-46 -30.5t-51 6t-37.5 60q-23 86 -28 206t1 259q-57 -16 -110.5 -25t-106.5 -14.5t-106.5 -7.5t-110.5 -4q-72 -108 -139.5 -205.5t-124 -174.5t-98.5 -128t-64 -65q-39 -27 -65.5 -28t-36 15.5t0 43t42.5 55.5
q18 16 53 58t81 105.5t101 143.5t115 170q-80 -8 -170 -23.5t-199 -44.5zM1118 1303q-84 -142 -196.5 -322t-231.5 -363q92 -6 181.5 -3t162.5 24q13 172 35.5 344t48.5 320zM1458 1988q-19 -45 -1.5 -67t50.5 -19t72.5 26t64.5 64q18 30 43 42.5t44.5 10t27 -21.5t-9.5 -52
q-37 -72 -94 -114.5t-118.5 -59.5t-120.5 -11t-99 34t-50 73t23 106q21 39 54 51.5t61.5 7t45 -24.5t7.5 -45zM1834 2394q38 8 47 -18t0 -63t-33 -74t-54 -53q-26 -12 -69.5 -19.5t-96 -14t-106.5 -15.5t-99 -24q-20 -6 -36.5 1.5t-22.5 22.5t-1.5 32t26.5 31q57 37 124 70
t129 58t113.5 42.5t78.5 23.5z" />
    <glyph glyph-name=".notdef.053" unicode="&#x1eaf;" 
d="M664 727q18 39 65 45t95 -12.5t79 -57t17 -94.5q-11 -37 -37.5 -87t-58 -102t-62.5 -103.5t-49.5 -91.5t-17.5 -62.5t32 -20.5q47 4 91 40t83 87t69.5 108.5t49.5 102.5q20 45 48 61.5t50.5 8.5t30.5 -39t-12 -82q-19 -51 -59 -125t-96 -141.5t-129 -115.5t-159 -48
q-88 0 -121.5 62.5t-33.5 154.5q-58 -90 -134.5 -151.5t-173.5 -53.5q-104 8 -163.5 65.5t-79 143.5t0 190.5t74 207t141.5 192.5t203.5 145.5t261 67.5t312.5 -41q39 -12 58.5 -40t16.5 -52.5t-31 -38.5t-83 -2q-94 22 -180 6t-161 -59t-136.5 -106.5t-108.5 -133.5
t-75.5 -139.5t-38 -128t2 -97t48.5 -45.5q43 -8 84 25t80 88t72.5 126t60.5 136q18 66 37.5 121t36.5 86zM796 1294q-19 -45 -1.5 -67t50.5 -19t72.5 26t64.5 64q18 30 43 42.5t44.5 10t27 -21.5t-9.5 -52q-37 -72 -94 -114.5t-118.5 -59.5t-120.5 -11t-99 34t-50 73t23 106
q21 39 54 51.5t61.5 7t45 -24.5t7.5 -45zM1173 1690q38 8 47 -18t0 -63t-33 -74t-54 -53q-26 -12 -69.5 -19.5t-96 -14t-106.5 -15.5t-99 -24q-20 -6 -36.5 1.5t-22.5 22.5t-1.5 32t26.5 31q57 37 124 70t129 58t113.5 42.5t78.5 23.5z" />
    <glyph glyph-name=".notdef.118" unicode="&#x1eb0;" horiz-adv-x="1565" 
d="M90 397q-35 -10 -48 5.5t-12 45t15 65.5t36.5 69.5t50.5 58.5t56 31q35 4 139.5 -11.5t237.5 -29.5q105 162 210.5 329.5t193.5 313t148.5 253t76.5 148.5q10 27 25 37q20 29 58 33t82 -11.5t89 -45t79 -66.5t52 -77t8 -75q-8 -30 -37.5 -124.5t-69.5 -224.5t-85 -282.5
t-84 -298t-66.5 -269.5t-32.5 -197q-2 -25 -22.5 -48.5t-46 -30.5t-51 6t-37.5 60q-23 86 -28 206t1 259q-57 -16 -110.5 -25t-106.5 -14.5t-106.5 -7.5t-110.5 -4q-72 -108 -139.5 -205.5t-124 -174.5t-98.5 -128t-64 -65q-39 -27 -65.5 -28t-36 15.5t0 43t42.5 55.5
q18 16 53 58t81 105.5t101 143.5t115 170q-80 -8 -170 -23.5t-199 -44.5zM1118 1303q-84 -142 -196.5 -322t-231.5 -363q92 -6 181.5 -3t162.5 24q13 172 35.5 344t48.5 320zM1458 1988q-19 -45 -1.5 -67t50.5 -19t72.5 26t64.5 64q18 30 43 42.5t44.5 10t27 -21.5t-9.5 -52
q-37 -72 -94 -114.5t-118.5 -59.5t-120.5 -11t-99 34t-50 73t23 106q21 39 54 51.5t61.5 7t45 -24.5t7.5 -45zM1354 2428q25 -10 72.5 -33t104.5 -57t116 -74t108 -83q18 -17 19.5 -34t-9 -29.5t-28.5 -18t-36 2.5q-42 21 -94.5 37t-103 29.5t-92.5 26t-66 27.5
q-27 21 -42 59.5t-16 75.5t15 60t52 11z" />
    <glyph glyph-name=".notdef.054" unicode="&#x1eb1;" 
d="M664 727q18 39 65 45t95 -12.5t79 -57t17 -94.5q-11 -37 -37.5 -87t-58 -102t-62.5 -103.5t-49.5 -91.5t-17.5 -62.5t32 -20.5q47 4 91 40t83 87t69.5 108.5t49.5 102.5q20 45 48 61.5t50.5 8.5t30.5 -39t-12 -82q-19 -51 -59 -125t-96 -141.5t-129 -115.5t-159 -48
q-88 0 -121.5 62.5t-33.5 154.5q-58 -90 -134.5 -151.5t-173.5 -53.5q-104 8 -163.5 65.5t-79 143.5t0 190.5t74 207t141.5 192.5t203.5 145.5t261 67.5t312.5 -41q39 -12 58.5 -40t16.5 -52.5t-31 -38.5t-83 -2q-94 22 -180 6t-161 -59t-136.5 -106.5t-108.5 -133.5
t-75.5 -139.5t-38 -128t2 -97t48.5 -45.5q43 -8 84 25t80 88t72.5 126t60.5 136q18 66 37.5 121t36.5 86zM796 1294q-19 -45 -1.5 -67t50.5 -19t72.5 26t64.5 64q18 30 43 42.5t44.5 10t27 -21.5t-9.5 -52q-37 -72 -94 -114.5t-118.5 -59.5t-120.5 -11t-99 34t-50 73t23 106
q21 39 54 51.5t61.5 7t45 -24.5t7.5 -45zM693 1724q25 -10 72.5 -33t104.5 -57t116 -74t108 -83q18 -17 19.5 -34t-9 -29.5t-28.5 -18t-36 2.5q-42 21 -94.5 37t-103 29.5t-92.5 26t-66 27.5q-27 21 -42 59.5t-16 75.5t15 60t52 11z" />
    <glyph glyph-name=".notdef.120" unicode="&#x1eb2;" horiz-adv-x="1565" 
d="M90 397q-35 -10 -48 5.5t-12 45t15 65.5t36.5 69.5t50.5 58.5t56 31q35 4 139.5 -11.5t237.5 -29.5q105 162 210.5 329.5t193.5 313t148.5 253t76.5 148.5q10 27 25 37q20 29 58 33t82 -11.5t89 -45t79 -66.5t52 -77t8 -75q-8 -30 -37.5 -124.5t-69.5 -224.5t-85 -282.5
t-84 -298t-66.5 -269.5t-32.5 -197q-2 -25 -22.5 -48.5t-46 -30.5t-51 6t-37.5 60q-23 86 -28 206t1 259q-57 -16 -110.5 -25t-106.5 -14.5t-106.5 -7.5t-110.5 -4q-72 -108 -139.5 -205.5t-124 -174.5t-98.5 -128t-64 -65q-39 -27 -65.5 -28t-36 15.5t0 43t42.5 55.5
q18 16 53 58t81 105.5t101 143.5t115 170q-80 -8 -170 -23.5t-199 -44.5zM1118 1303q-84 -142 -196.5 -322t-231.5 -363q92 -6 181.5 -3t162.5 24q13 172 35.5 344t48.5 320zM1458 1988q-19 -45 -1.5 -67t50.5 -19t72.5 26t64.5 64q18 30 43 42.5t44.5 10t27 -21.5t-9.5 -52
q-37 -72 -94 -114.5t-118.5 -59.5t-120.5 -11t-99 34t-50 73t23 106q21 39 54 51.5t61.5 7t45 -24.5t7.5 -45zM1547 2148q27 24 60.5 45t50 46.5t2.5 46.5q-4 7 -14 12t-23 3t-26.5 -10.5t-24.5 -27.5q-16 -22 -32.5 -30t-30 -7.5t-20 13t3.5 38.5q17 44 60 74.5t93.5 43.5
t97 4.5t69.5 -47.5q13 -25 3.5 -53.5t-37 -59.5t-65 -57t-55.5 -37.5t-44 -39.5q-5 -45 -36 -50t-46.5 7t-11.5 38.5t26 47.5z" />
    <glyph glyph-name=".notdef.052" unicode="&#x1eb3;" 
d="M664 727q18 39 65 45t95 -12.5t79 -57t17 -94.5q-11 -37 -37.5 -87t-58 -102t-62.5 -103.5t-49.5 -91.5t-17.5 -62.5t32 -20.5q47 4 91 40t83 87t69.5 108.5t49.5 102.5q20 45 48 61.5t50.5 8.5t30.5 -39t-12 -82q-19 -51 -59 -125t-96 -141.5t-129 -115.5t-159 -48
q-88 0 -121.5 62.5t-33.5 154.5q-58 -90 -134.5 -151.5t-173.5 -53.5q-104 8 -163.5 65.5t-79 143.5t0 190.5t74 207t141.5 192.5t203.5 145.5t261 67.5t312.5 -41q39 -12 58.5 -40t16.5 -52.5t-31 -38.5t-83 -2q-94 22 -180 6t-161 -59t-136.5 -106.5t-108.5 -133.5
t-75.5 -139.5t-38 -128t2 -97t48.5 -45.5q43 -8 84 25t80 88t72.5 126t60.5 136q18 66 37.5 121t36.5 86zM796 1294q-19 -45 -1.5 -67t50.5 -19t72.5 26t64.5 64q18 30 43 42.5t44.5 10t27 -21.5t-9.5 -52q-37 -72 -94 -114.5t-118.5 -59.5t-120.5 -11t-99 34t-50 73t23 106
q21 39 54 51.5t61.5 7t45 -24.5t7.5 -45zM887 1469q27 24 60.5 45t50 46.5t2.5 46.5q-4 7 -14 12t-23 3t-26.5 -10.5t-24.5 -27.5q-16 -22 -32.5 -30t-30 -7.5t-20 13t3.5 38.5q17 44 60 74.5t93.5 43.5t97 4.5t69.5 -47.5q13 -25 3.5 -53.5t-37 -59.5t-65 -57t-55.5 -37.5
t-44 -39.5q-5 -45 -36 -50t-46.5 7t-11.5 38.5t26 47.5z" />
    <glyph glyph-name=".notdef.121" unicode="&#x1eb4;" horiz-adv-x="1565" 
d="M90 397q-35 -10 -48 5.5t-12 45t15 65.5t36.5 69.5t50.5 58.5t56 31q35 4 139.5 -11.5t237.5 -29.5q105 162 210.5 329.5t193.5 313t148.5 253t76.5 148.5q10 27 25 37q20 29 58 33t82 -11.5t89 -45t79 -66.5t52 -77t8 -75q-8 -30 -37.5 -124.5t-69.5 -224.5t-85 -282.5
t-84 -298t-66.5 -269.5t-32.5 -197q-2 -25 -22.5 -48.5t-46 -30.5t-51 6t-37.5 60q-23 86 -28 206t1 259q-57 -16 -110.5 -25t-106.5 -14.5t-106.5 -7.5t-110.5 -4q-72 -108 -139.5 -205.5t-124 -174.5t-98.5 -128t-64 -65q-39 -27 -65.5 -28t-36 15.5t0 43t42.5 55.5
q18 16 53 58t81 105.5t101 143.5t115 170q-80 -8 -170 -23.5t-199 -44.5zM1118 1303q-84 -142 -196.5 -322t-231.5 -363q92 -6 181.5 -3t162.5 24q13 172 35.5 344t48.5 320zM1458 1988q-19 -45 -1.5 -67t50.5 -19t72.5 26t64.5 64q18 30 43 42.5t44.5 10t27 -21.5t-9.5 -52
q-37 -72 -94 -114.5t-118.5 -59.5t-120.5 -11t-99 34t-50 73t23 106q21 39 54 51.5t61.5 7t45 -24.5t7.5 -45zM1399 2230q47 39 87 50t76 6.5t65.5 -17t56 -23t49 -11t43.5 19.5q30 32 56 35.5t36 -11.5t1 -45.5t-48 -71.5q-43 -44 -83 -58t-75.5 -12t-68 14t-61.5 24
t-55.5 15.5t-48.5 -14.5q-43 -29 -69 -31.5t-32.5 14t10 48t61.5 68.5z" />
    <glyph glyph-name=".notdef.051" unicode="&#x1eb5;" 
d="M664 727q18 39 65 45t95 -12.5t79 -57t17 -94.5q-11 -37 -37.5 -87t-58 -102t-62.5 -103.5t-49.5 -91.5t-17.5 -62.5t32 -20.5q47 4 91 40t83 87t69.5 108.5t49.5 102.5q20 45 48 61.5t50.5 8.5t30.5 -39t-12 -82q-19 -51 -59 -125t-96 -141.5t-129 -115.5t-159 -48
q-88 0 -121.5 62.5t-33.5 154.5q-58 -90 -134.5 -151.5t-173.5 -53.5q-104 8 -163.5 65.5t-79 143.5t0 190.5t74 207t141.5 192.5t203.5 145.5t261 67.5t312.5 -41q39 -12 58.5 -40t16.5 -52.5t-31 -38.5t-83 -2q-94 22 -180 6t-161 -59t-136.5 -106.5t-108.5 -133.5
t-75.5 -139.5t-38 -128t2 -97t48.5 -45.5q43 -8 84 25t80 88t72.5 126t60.5 136q18 66 37.5 121t36.5 86zM796 1294q-19 -45 -1.5 -67t50.5 -19t72.5 26t64.5 64q18 30 43 42.5t44.5 10t27 -21.5t-9.5 -52q-37 -72 -94 -114.5t-118.5 -59.5t-120.5 -11t-99 34t-50 73t23 106
q21 39 54 51.5t61.5 7t45 -24.5t7.5 -45zM745 1535q47 39 87 50t76 6.5t65.5 -17t56 -23t49 -11t43.5 19.5q30 32 56 35.5t36 -11.5t1 -45.5t-48 -71.5q-43 -44 -83 -58t-75.5 -12t-68 14t-61.5 24t-55.5 15.5t-48.5 -14.5q-43 -29 -69 -31.5t-32.5 14t10 48t61.5 68.5z" />
    <glyph glyph-name=".notdef.122" unicode="&#x1eb6;" horiz-adv-x="1565" 
d="M90 397q-35 -10 -48 5.5t-12 45t15 65.5t36.5 69.5t50.5 58.5t56 31q35 4 139.5 -11.5t237.5 -29.5q105 162 210.5 329.5t193.5 313t148.5 253t76.5 148.5q10 27 25 37q20 29 58 33t82 -11.5t89 -45t79 -66.5t52 -77t8 -75q-8 -30 -37.5 -124.5t-69.5 -224.5t-85 -282.5
t-84 -298t-66.5 -269.5t-32.5 -197q-2 -25 -22.5 -48.5t-46 -30.5t-51 6t-37.5 60q-23 86 -28 206t1 259q-57 -16 -110.5 -25t-106.5 -14.5t-106.5 -7.5t-110.5 -4q-72 -108 -139.5 -205.5t-124 -174.5t-98.5 -128t-64 -65q-39 -27 -65.5 -28t-36 15.5t0 43t42.5 55.5
q18 16 53 58t81 105.5t101 143.5t115 170q-80 -8 -170 -23.5t-199 -44.5zM1118 1303q-84 -142 -196.5 -322t-231.5 -363q92 -6 181.5 -3t162.5 24q13 172 35.5 344t48.5 320zM1458 1988q-19 -45 -1.5 -67t50.5 -19t72.5 26t64.5 64q18 30 43 42.5t44.5 10t27 -21.5t-9.5 -52
q-37 -72 -94 -114.5t-118.5 -59.5t-120.5 -11t-99 34t-50 73t23 106q21 39 54 51.5t61.5 7t45 -24.5t7.5 -45zM523 -199q10 55 52.5 93.5t90.5 38.5q49 0 75.5 -38.5t16.5 -93.5q-12 -54 -54.5 -92.5t-90.5 -38.5q-49 0 -75.5 38.5t-14.5 92.5z" />
    <glyph glyph-name=".notdef.050" unicode="&#x1eb7;" 
d="M664 727q18 39 65 45t95 -12.5t79 -57t17 -94.5q-11 -37 -37.5 -87t-58 -102t-62.5 -103.5t-49.5 -91.5t-17.5 -62.5t32 -20.5q47 4 91 40t83 87t69.5 108.5t49.5 102.5q20 45 48 61.5t50.5 8.5t30.5 -39t-12 -82q-19 -51 -59 -125t-96 -141.5t-129 -115.5t-159 -48
q-88 0 -121.5 62.5t-33.5 154.5q-58 -90 -134.5 -151.5t-173.5 -53.5q-104 8 -163.5 65.5t-79 143.5t0 190.5t74 207t141.5 192.5t203.5 145.5t261 67.5t312.5 -41q39 -12 58.5 -40t16.5 -52.5t-31 -38.5t-83 -2q-94 22 -180 6t-161 -59t-136.5 -106.5t-108.5 -133.5
t-75.5 -139.5t-38 -128t2 -97t48.5 -45.5q43 -8 84 25t80 88t72.5 126t60.5 136q18 66 37.5 121t36.5 86zM796 1294q-19 -45 -1.5 -67t50.5 -19t72.5 26t64.5 64q18 30 43 42.5t44.5 10t27 -21.5t-9.5 -52q-37 -72 -94 -114.5t-118.5 -59.5t-120.5 -11t-99 34t-50 73t23 106
q21 39 54 51.5t61.5 7t45 -24.5t7.5 -45zM186 -182q10 55 52.5 93.5t90.5 38.5q49 0 75.5 -38.5t16.5 -93.5q-12 -54 -54.5 -92.5t-90.5 -38.5q-49 0 -75.5 38.5t-14.5 92.5z" />
    <glyph glyph-name=".notdef.127" unicode="&#x1eb8;" horiz-adv-x="1073" 
d="M1081 1675q119 -10 179.5 -65.5t73 -131t-15.5 -161.5t-84 -159t-134 -121t-166 -48q-78 0 -123 37t-60.5 82t0 82t56.5 37q57 0 116.5 24.5t109.5 60.5t87 78t48.5 77.5t-8 60t-79.5 24.5q-92 0 -173 -48t-142 -119.5t-98 -154.5t-39 -154.5t34.5 -120t122.5 -48.5
q31 0 42.5 -18.5t6 -42t-27 -42t-57.5 -18.5q-105 0 -177.5 -49t-114.5 -121.5t-54.5 -158.5t4 -159t62.5 -122t120 -49q94 0 174 38t143.5 93t107.5 115.5t66 105.5q23 45 51.5 61.5t50 8.5t28 -40t-16.5 -83q-25 -51 -82 -124t-140 -140.5t-187.5 -114.5t-223.5 -47
q-149 0 -253.5 65.5t-162 163t-66.5 213t34 215t136 167t243 71.5q-91 39 -134 115.5t-41 170t51.5 187.5t144.5 169t237.5 115t330.5 23zM371 -199q10 55 52.5 93.5t90.5 38.5q49 0 75.5 -38.5t16.5 -93.5q-12 -54 -54.5 -92.5t-90.5 -38.5q-49 0 -75.5 38.5t-14.5 92.5z
" />
    <glyph glyph-name=".notdef.045" unicode="&#x1eb9;" horiz-adv-x="856" 
d="M567 430q-100 -35 -172.5 -37t-126.5 8q-18 -55 -26.5 -105t1 -88t36 -59.5t75.5 -21.5q109 0 195 38t149.5 93t104.5 115.5t59 105.5q21 45 48.5 61.5t50 8.5t30.5 -39t-12 -82q-18 -51 -68.5 -125t-128 -141.5t-183 -114.5t-237.5 -47q-153 0 -241 77t-114.5 193.5
t4 250.5t112.5 251t212 193.5t302 76.5q113 0 172 -37.5t76.5 -97t-1 -132.5t-64.5 -140.5t-111.5 -122.5t-141.5 -82zM522 539q78 30 133.5 90.5t79 122t13 107.5t-61.5 46q-41 0 -90 -33.5t-99.5 -89t-96.5 -125t-83 -143.5q41 -6 93.5 -2t111.5 27zM200 -189
q10 55 52.5 93.5t90.5 38.5q49 0 75.5 -38.5t16.5 -93.5q-12 -54 -54.5 -92.5t-90.5 -38.5q-49 0 -75.5 38.5t-14.5 92.5z" />
    <glyph glyph-name=".notdef.125" unicode="&#x1eba;" horiz-adv-x="1073" 
d="M1081 1675q119 -10 179.5 -65.5t73 -131t-15.5 -161.5t-84 -159t-134 -121t-166 -48q-78 0 -123 37t-60.5 82t0 82t56.5 37q57 0 116.5 24.5t109.5 60.5t87 78t48.5 77.5t-8 60t-79.5 24.5q-92 0 -173 -48t-142 -119.5t-98 -154.5t-39 -154.5t34.5 -120t122.5 -48.5
q31 0 42.5 -18.5t6 -42t-27 -42t-57.5 -18.5q-105 0 -177.5 -49t-114.5 -121.5t-54.5 -158.5t4 -159t62.5 -122t120 -49q94 0 174 38t143.5 93t107.5 115.5t66 105.5q23 45 51.5 61.5t50 8.5t28 -40t-16.5 -83q-25 -51 -82 -124t-140 -140.5t-187.5 -114.5t-223.5 -47
q-149 0 -253.5 65.5t-162 163t-66.5 213t34 215t136 167t243 71.5q-91 39 -134 115.5t-41 170t51.5 187.5t144.5 169t237.5 115t330.5 23zM981 1835q27 24 60.5 45t50 46.5t2.5 46.5q-4 7 -14 12t-23 3t-26.5 -10.5t-24.5 -27.5q-16 -22 -32.5 -30t-30 -7.5t-20 13t3.5 38.5
q17 44 60 74.5t93.5 43.5t97 4.5t69.5 -47.5q13 -25 3.5 -53.5t-37 -59.5t-65 -57t-55.5 -37.5t-44 -39.5q-5 -45 -36 -50t-46.5 7t-11.5 38.5t26 47.5z" />
    <glyph glyph-name=".notdef.047" unicode="&#x1ebb;" horiz-adv-x="856" 
d="M567 430q-100 -35 -172.5 -37t-126.5 8q-18 -55 -26.5 -105t1 -88t36 -59.5t75.5 -21.5q109 0 195 38t149.5 93t104.5 115.5t59 105.5q21 45 48.5 61.5t50 8.5t30.5 -39t-12 -82q-18 -51 -68.5 -125t-128 -141.5t-183 -114.5t-237.5 -47q-153 0 -241 77t-114.5 193.5
t4 250.5t112.5 251t212 193.5t302 76.5q113 0 172 -37.5t76.5 -97t-1 -132.5t-64.5 -140.5t-111.5 -122.5t-141.5 -82zM522 539q78 30 133.5 90.5t79 122t13 107.5t-61.5 46q-41 0 -90 -33.5t-99.5 -89t-96.5 -125t-83 -143.5q41 -6 93.5 -2t111.5 27zM597 1195
q27 24 60.5 45t50 46.5t2.5 46.5q-4 7 -14 12t-23 3t-26.5 -10.5t-24.5 -27.5q-16 -22 -32.5 -30t-30 -7.5t-20 13t3.5 38.5q17 44 60 74.5t93.5 43.5t97 4.5t69.5 -47.5q13 -25 3.5 -53.5t-37 -59.5t-65 -57t-55.5 -37.5t-44 -39.5q-5 -45 -36 -50t-46.5 7t-11.5 38.5
t26 47.5z" />
    <glyph glyph-name=".notdef.126" unicode="&#x1ebc;" horiz-adv-x="1073" 
d="M1081 1675q119 -10 179.5 -65.5t73 -131t-15.5 -161.5t-84 -159t-134 -121t-166 -48q-78 0 -123 37t-60.5 82t0 82t56.5 37q57 0 116.5 24.5t109.5 60.5t87 78t48.5 77.5t-8 60t-79.5 24.5q-92 0 -173 -48t-142 -119.5t-98 -154.5t-39 -154.5t34.5 -120t122.5 -48.5
q31 0 42.5 -18.5t6 -42t-27 -42t-57.5 -18.5q-105 0 -177.5 -49t-114.5 -121.5t-54.5 -158.5t4 -159t62.5 -122t120 -49q94 0 174 38t143.5 93t107.5 115.5t66 105.5q23 45 51.5 61.5t50 8.5t28 -40t-16.5 -83q-25 -51 -82 -124t-140 -140.5t-187.5 -114.5t-223.5 -47
q-149 0 -253.5 65.5t-162 163t-66.5 213t34 215t136 167t243 71.5q-91 39 -134 115.5t-41 170t51.5 187.5t144.5 169t237.5 115t330.5 23zM817 1882q47 39 87 50t76 6.5t65.5 -17t56 -23t49 -11t43.5 19.5q30 32 56 35.5t36 -11.5t1 -45.5t-48 -71.5q-43 -44 -83 -58
t-75.5 -12t-68 14t-61.5 24t-55.5 15.5t-48.5 -14.5q-43 -29 -69 -31.5t-32.5 14t10 48t61.5 68.5z" />
    <glyph glyph-name=".notdef.046" unicode="&#x1ebd;" horiz-adv-x="856" 
d="M567 430q-100 -35 -172.5 -37t-126.5 8q-18 -55 -26.5 -105t1 -88t36 -59.5t75.5 -21.5q109 0 195 38t149.5 93t104.5 115.5t59 105.5q21 45 48.5 61.5t50 8.5t30.5 -39t-12 -82q-18 -51 -68.5 -125t-128 -141.5t-183 -114.5t-237.5 -47q-153 0 -241 77t-114.5 193.5
t4 250.5t112.5 251t212 193.5t302 76.5q113 0 172 -37.5t76.5 -97t-1 -132.5t-64.5 -140.5t-111.5 -122.5t-141.5 -82zM522 539q78 30 133.5 90.5t79 122t13 107.5t-61.5 46q-41 0 -90 -33.5t-99.5 -89t-96.5 -125t-83 -143.5q41 -6 93.5 -2t111.5 27zM453 1241q47 39 87 50
t76 6.5t65.5 -17t56 -23t49 -11t43.5 19.5q30 32 56 35.5t36 -11.5t1 -45.5t-48 -71.5q-43 -44 -83 -58t-75.5 -12t-68 14t-61.5 24t-55.5 15.5t-48.5 -14.5q-43 -29 -69 -31.5t-32.5 14t10 48t61.5 68.5z" />
    <glyph glyph-name=".notdef.130" unicode="&#x1ebe;" horiz-adv-x="1073" 
d="M1081 1675q-188 17 -330.5 -23t-237.5 -115t-144.5 -169t-51.5 -187.5t41 -170t134 -115.5q-150 -4 -243 -71.5t-136 -167t-34 -215t66.5 -213t162 -163t253.5 -65.5q119 0 223.5 47t187.5 114.5t140 140.5t82 124q23 51 16.5 83t-28 40t-50 -8.5t-51.5 -61.5
q-22 -45 -66 -105.5t-107.5 -115.5t-143.5 -93t-174 -38q-74 0 -120 49t-62.5 122t-4 159t54.5 158.5t114.5 121.5t177.5 49q36 0 57.5 18.5t27 42t-6 42t-42.5 18.5q-86 0 -122.5 48.5t-34.5 120t39 154.5t98 154.5t142 119.5t173 48q60 0 79.5 -24.5t8 -60t-48.5 -77.5
t-87 -78t-109.5 -60.5t-116.5 -24.5q-41 0 -56.5 -37t0 -82t60.5 -82t123 -37q88 0 166 48t134 121t84 159t15.5 161.5t-73 131t-179.5 65.5zM1258 1816q12 -37 -7 -59t-46.5 -29t-54.5 1.5t-34 31.5q-6 24 -7.5 44.5t-3.5 40.5t-6 39.5t-13 41.5q-32 -22 -53.5 -44
t-39.5 -42t-36 -39.5t-44 -36.5q-31 -20 -69.5 -26t-66 1t-35.5 26t22 50q21 21 47.5 45t63 51t85.5 56.5t115 65.5q18 8 28 8h2h2q25 0 41 -18q47 -58 70 -106t40 -102zM1350 2333q38 8 47 -18t0 -63t-33 -74t-54 -53q-26 -12 -69.5 -19.5t-96 -14t-106.5 -15.5t-99 -24
q-20 -6 -36.5 1.5t-22.5 22.5t-1.5 32t26.5 31q57 37 124 70t129 58t113.5 42.5t78.5 23.5z" />
    <glyph glyph-name=".notdef.042" unicode="&#x1ebf;" horiz-adv-x="856" 
d="M567 430q-100 -35 -172.5 -37t-126.5 8q-18 -55 -26.5 -105t1 -88t36 -59.5t75.5 -21.5q109 0 195 38t149.5 93t104.5 115.5t59 105.5q21 45 48.5 61.5t50 8.5t30.5 -39t-12 -82q-18 -51 -68.5 -125t-128 -141.5t-183 -114.5t-237.5 -47q-153 0 -241 77t-114.5 193.5
t4 250.5t112.5 251t212 193.5t302 76.5q113 0 172 -37.5t76.5 -97t-1 -132.5t-64.5 -140.5t-111.5 -122.5t-141.5 -82zM522 539q78 30 133.5 90.5t79 122t13 107.5t-61.5 46q-41 0 -90 -33.5t-99.5 -89t-96.5 -125t-83 -143.5q41 -6 93.5 -2t111.5 27zM882 1163
q12 -37 -7 -59t-46.5 -29t-54.5 1.5t-34 31.5q-6 24 -7.5 44.5t-3.5 40.5t-6 39.5t-13 41.5q-32 -22 -53.5 -44t-39.5 -42t-36 -39.5t-44 -36.5q-31 -20 -69.5 -26t-66 1t-35.5 26t22 50q21 21 47.5 45t63 51t85.5 56.5t115 65.5q18 8 28 8h2h2q25 0 41 -18q47 -58 70 -106
t40 -102zM974 1680q38 8 47 -18t0 -63t-33 -74t-54 -53q-26 -12 -69.5 -19.5t-96 -14t-106.5 -15.5t-99 -24q-20 -6 -36.5 1.5t-22.5 22.5t-1.5 32t26.5 31q57 37 124 70t129 58t113.5 42.5t78.5 23.5z" />
    <glyph glyph-name=".notdef.129" unicode="&#x1ec0;" horiz-adv-x="1073" 
d="M1081 1675q-188 17 -330.5 -23t-237.5 -115t-144.5 -169t-51.5 -187.5t41 -170t134 -115.5q-150 -4 -243 -71.5t-136 -167t-34 -215t66.5 -213t162 -163t253.5 -65.5q119 0 223.5 47t187.5 114.5t140 140.5t82 124q23 51 16.5 83t-28 40t-50 -8.5t-51.5 -61.5
q-22 -45 -66 -105.5t-107.5 -115.5t-143.5 -93t-174 -38q-74 0 -120 49t-62.5 122t-4 159t54.5 158.5t114.5 121.5t177.5 49q36 0 57.5 18.5t27 42t-6 42t-42.5 18.5q-86 0 -122.5 48.5t-34.5 120t39 154.5t98 154.5t142 119.5t173 48q60 0 79.5 -24.5t8 -60t-48.5 -77.5
t-87 -78t-109.5 -60.5t-116.5 -24.5q-41 0 -56.5 -37t0 -82t60.5 -82t123 -37q88 0 166 48t134 121t84 159t15.5 161.5t-73 131t-179.5 65.5zM1258 1816q12 -37 -7 -59t-46.5 -29t-54.5 1.5t-34 31.5q-6 24 -7.5 44.5t-3.5 40.5t-6 39.5t-13 41.5q-32 -22 -53.5 -44
t-39.5 -42t-36 -39.5t-44 -36.5q-31 -20 -69.5 -26t-66 1t-35.5 26t22 50q21 21 47.5 45t63 51t85.5 56.5t115 65.5q18 8 28 8h2h2q25 0 41 -18q47 -58 70 -106t40 -102zM919 2382q25 -10 72.5 -33t104.5 -57t116 -74t108 -83q18 -17 19.5 -34t-9 -29.5t-28.5 -18t-36 2.5
q-42 21 -94.5 37t-103 29.5t-92.5 26t-66 27.5q-27 21 -42 59.5t-16 75.5t15 60t52 11z" />
    <glyph glyph-name=".notdef.043" unicode="&#x1ec1;" horiz-adv-x="856" 
d="M567 430q-100 -35 -172.5 -37t-126.5 8q-18 -55 -26.5 -105t1 -88t36 -59.5t75.5 -21.5q109 0 195 38t149.5 93t104.5 115.5t59 105.5q21 45 48.5 61.5t50 8.5t30.5 -39t-12 -82q-18 -51 -68.5 -125t-128 -141.5t-183 -114.5t-237.5 -47q-153 0 -241 77t-114.5 193.5
t4 250.5t112.5 251t212 193.5t302 76.5q113 0 172 -37.5t76.5 -97t-1 -132.5t-64.5 -140.5t-111.5 -122.5t-141.5 -82zM522 539q78 30 133.5 90.5t79 122t13 107.5t-61.5 46q-41 0 -90 -33.5t-99.5 -89t-96.5 -125t-83 -143.5q41 -6 93.5 -2t111.5 27zM882 1163
q12 -37 -7 -59t-46.5 -29t-54.5 1.5t-34 31.5q-6 24 -7.5 44.5t-3.5 40.5t-6 39.5t-13 41.5q-32 -22 -53.5 -44t-39.5 -42t-36 -39.5t-44 -36.5q-31 -20 -69.5 -26t-66 1t-35.5 26t22 50q21 21 47.5 45t63 51t85.5 56.5t115 65.5q18 8 28 8h2h2q25 0 41 -18q47 -58 70 -106
t40 -102zM543 1728q25 -10 72.5 -33t104.5 -57t116 -74t108 -83q18 -17 19.5 -34t-9 -29.5t-28.5 -18t-36 2.5q-42 21 -94.5 37t-103 29.5t-92.5 26t-66 27.5q-27 21 -42 59.5t-16 75.5t15 60t52 11z" />
    <glyph glyph-name=".notdef.131" unicode="&#x1ec2;" horiz-adv-x="1073" 
d="M1081 1675q-188 17 -330.5 -23t-237.5 -115t-144.5 -169t-51.5 -187.5t41 -170t134 -115.5q-150 -4 -243 -71.5t-136 -167t-34 -215t66.5 -213t162 -163t253.5 -65.5q119 0 223.5 47t187.5 114.5t140 140.5t82 124q23 51 16.5 83t-28 40t-50 -8.5t-51.5 -61.5
q-22 -45 -66 -105.5t-107.5 -115.5t-143.5 -93t-174 -38q-74 0 -120 49t-62.5 122t-4 159t54.5 158.5t114.5 121.5t177.5 49q36 0 57.5 18.5t27 42t-6 42t-42.5 18.5q-86 0 -122.5 48.5t-34.5 120t39 154.5t98 154.5t142 119.5t173 48q60 0 79.5 -24.5t8 -60t-48.5 -77.5
t-87 -78t-109.5 -60.5t-116.5 -24.5q-41 0 -56.5 -37t0 -82t60.5 -82t123 -37q88 0 166 48t134 121t84 159t15.5 161.5t-73 131t-179.5 65.5zM1258 1816q12 -37 -7 -59t-46.5 -29t-54.5 1.5t-34 31.5q-6 24 -7.5 44.5t-3.5 40.5t-6 39.5t-13 41.5q-32 -22 -53.5 -44
t-39.5 -42t-36 -39.5t-44 -36.5q-31 -20 -69.5 -26t-66 1t-35.5 26t22 50q21 21 47.5 45t63 51t85.5 56.5t115 65.5q18 8 28 8h2h2q25 0 41 -18q47 -58 70 -106t40 -102zM1273 2012q27 24 60.5 45t50 46.5t2.5 46.5q-4 7 -14 12t-23 3t-26.5 -10.5t-24.5 -27.5
q-16 -22 -32.5 -30t-30 -7.5t-20 13t3.5 38.5q17 44 60 74.5t93.5 43.5t97 4.5t69.5 -47.5q13 -25 3.5 -53.5t-37 -59.5t-65 -57t-55.5 -37.5t-44 -39.5q-5 -45 -36 -50t-46.5 7t-11.5 38.5t26 47.5z" />
    <glyph glyph-name=".notdef.041" unicode="&#x1ec3;" horiz-adv-x="856" 
d="M567 430q-100 -35 -172.5 -37t-126.5 8q-18 -55 -26.5 -105t1 -88t36 -59.5t75.5 -21.5q109 0 195 38t149.5 93t104.5 115.5t59 105.5q21 45 48.5 61.5t50 8.5t30.5 -39t-12 -82q-18 -51 -68.5 -125t-128 -141.5t-183 -114.5t-237.5 -47q-153 0 -241 77t-114.5 193.5
t4 250.5t112.5 251t212 193.5t302 76.5q113 0 172 -37.5t76.5 -97t-1 -132.5t-64.5 -140.5t-111.5 -122.5t-141.5 -82zM522 539q78 30 133.5 90.5t79 122t13 107.5t-61.5 46q-41 0 -90 -33.5t-99.5 -89t-96.5 -125t-83 -143.5q41 -6 93.5 -2t111.5 27zM882 1163
q12 -37 -7 -59t-46.5 -29t-54.5 1.5t-34 31.5q-6 24 -7.5 44.5t-3.5 40.5t-6 39.5t-13 41.5q-32 -22 -53.5 -44t-39.5 -42t-36 -39.5t-44 -36.5q-31 -20 -69.5 -26t-66 1t-35.5 26t22 50q21 21 47.5 45t63 51t85.5 56.5t115 65.5q18 8 28 8h2h2q25 0 41 -18q47 -58 70 -106
t40 -102zM898 1356q27 24 60.5 45t50 46.5t2.5 46.5q-4 7 -14 12t-23 3t-26.5 -10.5t-24.5 -27.5q-16 -22 -32.5 -30t-30 -7.5t-20 13t3.5 38.5q17 44 60 74.5t93.5 43.5t97 4.5t69.5 -47.5q13 -25 3.5 -53.5t-37 -59.5t-65 -57t-55.5 -37.5t-44 -39.5q-5 -45 -36 -50
t-46.5 7t-11.5 38.5t26 47.5z" />
    <glyph glyph-name=".notdef.132" unicode="&#x1ec4;" horiz-adv-x="1073" 
d="M1081 1675q-188 17 -330.5 -23t-237.5 -115t-144.5 -169t-51.5 -187.5t41 -170t134 -115.5q-150 -4 -243 -71.5t-136 -167t-34 -215t66.5 -213t162 -163t253.5 -65.5q119 0 223.5 47t187.5 114.5t140 140.5t82 124q23 51 16.5 83t-28 40t-50 -8.5t-51.5 -61.5
q-22 -45 -66 -105.5t-107.5 -115.5t-143.5 -93t-174 -38q-74 0 -120 49t-62.5 122t-4 159t54.5 158.5t114.5 121.5t177.5 49q36 0 57.5 18.5t27 42t-6 42t-42.5 18.5q-86 0 -122.5 48.5t-34.5 120t39 154.5t98 154.5t142 119.5t173 48q60 0 79.5 -24.5t8 -60t-48.5 -77.5
t-87 -78t-109.5 -60.5t-116.5 -24.5q-41 0 -56.5 -37t0 -82t60.5 -82t123 -37q88 0 166 48t134 121t84 159t15.5 161.5t-73 131t-179.5 65.5zM1258 1816q12 -37 -7 -59t-46.5 -29t-54.5 1.5t-34 31.5q-6 24 -7.5 44.5t-3.5 40.5t-6 39.5t-13 41.5q-32 -22 -53.5 -44
t-39.5 -42t-36 -39.5t-44 -36.5q-31 -20 -69.5 -26t-66 1t-35.5 26t22 50q21 21 47.5 45t63 51t85.5 56.5t115 65.5q18 8 28 8h2h2q25 0 41 -18q47 -58 70 -106t40 -102zM949 2225q47 39 87 50t76 6.5t65.5 -17t56 -23t49 -11t43.5 19.5q30 32 56 35.5t36 -11.5t1 -45.5
t-48 -71.5q-43 -44 -83 -58t-75.5 -12t-68 14t-61.5 24t-55.5 15.5t-48.5 -14.5q-43 -29 -69 -31.5t-32.5 14t10 48t61.5 68.5z" />
    <glyph glyph-name=".notdef.040" unicode="&#x1ec5;" horiz-adv-x="856" 
d="M567 430q-100 -35 -172.5 -37t-126.5 8q-18 -55 -26.5 -105t1 -88t36 -59.5t75.5 -21.5q109 0 195 38t149.5 93t104.5 115.5t59 105.5q21 45 48.5 61.5t50 8.5t30.5 -39t-12 -82q-18 -51 -68.5 -125t-128 -141.5t-183 -114.5t-237.5 -47q-153 0 -241 77t-114.5 193.5
t4 250.5t112.5 251t212 193.5t302 76.5q113 0 172 -37.5t76.5 -97t-1 -132.5t-64.5 -140.5t-111.5 -122.5t-141.5 -82zM522 539q78 30 133.5 90.5t79 122t13 107.5t-61.5 46q-41 0 -90 -33.5t-99.5 -89t-96.5 -125t-83 -143.5q41 -6 93.5 -2t111.5 27zM882 1163
q12 -37 -7 -59t-46.5 -29t-54.5 1.5t-34 31.5q-6 24 -7.5 44.5t-3.5 40.5t-6 39.5t-13 41.5q-32 -22 -53.5 -44t-39.5 -42t-36 -39.5t-44 -36.5q-31 -20 -69.5 -26t-66 1t-35.5 26t22 50q21 21 47.5 45t63 51t85.5 56.5t115 65.5q18 8 28 8h2h2q25 0 41 -18q47 -58 70 -106
t40 -102zM573 1572q47 39 87 50t76 6.5t65.5 -17t56 -23t49 -11t43.5 19.5q30 32 56 35.5t36 -11.5t1 -45.5t-48 -71.5q-43 -44 -83 -58t-75.5 -12t-68 14t-61.5 24t-55.5 15.5t-48.5 -14.5q-43 -29 -69 -31.5t-32.5 14t10 48t61.5 68.5z" />
    <glyph glyph-name=".notdef.105" unicode="&#x1ec6;" horiz-adv-x="1073" 
d="M1081 1675q-188 17 -330.5 -23t-237.5 -115t-144.5 -169t-51.5 -187.5t41 -170t134 -115.5q-150 -4 -243 -71.5t-136 -167t-34 -215t66.5 -213t162 -163t253.5 -65.5q119 0 223.5 47t187.5 114.5t140 140.5t82 124q23 51 16.5 83t-28 40t-50 -8.5t-51.5 -61.5
q-22 -45 -66 -105.5t-107.5 -115.5t-143.5 -93t-174 -38q-74 0 -120 49t-62.5 122t-4 159t54.5 158.5t114.5 121.5t177.5 49q36 0 57.5 18.5t27 42t-6 42t-42.5 18.5q-86 0 -122.5 48.5t-34.5 120t39 154.5t98 154.5t142 119.5t173 48q60 0 79.5 -24.5t8 -60t-48.5 -77.5
t-87 -78t-109.5 -60.5t-116.5 -24.5q-41 0 -56.5 -37t0 -82t60.5 -82t123 -37q88 0 166 48t134 121t84 159t15.5 161.5t-73 131t-179.5 65.5zM1258 1816q12 -37 -7 -59t-46.5 -29t-54.5 1.5t-34 31.5q-6 24 -7.5 44.5t-3.5 40.5t-6 39.5t-13 41.5q-32 -22 -53.5 -44
t-39.5 -42t-36 -39.5t-44 -36.5q-31 -20 -69.5 -26t-66 1t-35.5 26t22 50q21 21 47.5 45t63 51t85.5 56.5t115 65.5q18 8 28 8h2h2q25 0 41 -18q47 -58 70 -106t40 -102zM371 -199q10 55 52.5 93.5t90.5 38.5q49 0 75.5 -38.5t16.5 -93.5q-12 -54 -54.5 -92.5t-90.5 -38.5
q-49 0 -75.5 38.5t-14.5 92.5z" />
    <glyph glyph-name=".notdef.039" unicode="&#x1ec7;" horiz-adv-x="856" 
d="M567 430q-100 -35 -172.5 -37t-126.5 8q-18 -55 -26.5 -105t1 -88t36 -59.5t75.5 -21.5q109 0 195 38t149.5 93t104.5 115.5t59 105.5q21 45 48.5 61.5t50 8.5t30.5 -39t-12 -82q-18 -51 -68.5 -125t-128 -141.5t-183 -114.5t-237.5 -47q-153 0 -241 77t-114.5 193.5
t4 250.5t112.5 251t212 193.5t302 76.5q113 0 172 -37.5t76.5 -97t-1 -132.5t-64.5 -140.5t-111.5 -122.5t-141.5 -82zM522 539q78 30 133.5 90.5t79 122t13 107.5t-61.5 46q-41 0 -90 -33.5t-99.5 -89t-96.5 -125t-83 -143.5q41 -6 93.5 -2t111.5 27zM882 1163
q12 -37 -7 -59t-46.5 -29t-54.5 1.5t-34 31.5q-6 24 -7.5 44.5t-3.5 40.5t-6 39.5t-13 41.5q-32 -22 -53.5 -44t-39.5 -42t-36 -39.5t-44 -36.5q-31 -20 -69.5 -26t-66 1t-35.5 26t22 50q21 21 47.5 45t63 51t85.5 56.5t115 65.5q18 8 28 8h2h2q25 0 41 -18q47 -58 70 -106
t40 -102zM200 -189q10 55 52.5 93.5t90.5 38.5q49 0 75.5 -38.5t16.5 -93.5q-12 -54 -54.5 -92.5t-90.5 -38.5q-49 0 -75.5 38.5t-14.5 92.5z" />
    <glyph glyph-name=".notdef.102" unicode="&#x1ec8;" horiz-adv-x="629" 
d="M610 1624q15 35 48.5 40t73.5 -10.5t82 -46t74 -70.5t48 -82t6 -79q-6 -22 -42 -81.5t-91 -142.5t-123 -183.5t-139.5 -208t-139 -214t-123 -202.5t-92 -174t-42.5 -127q-7 -41 -33.5 -54.5t-54 -5t-48 37t-12.5 75.5q16 121 64.5 273.5t112 312.5t134 316.5t133 286.5
t107.5 220t57 119zM837 1794q27 24 60.5 45t50 46.5t2.5 46.5q-4 7 -14 12t-23 3t-26.5 -10.5t-24.5 -27.5q-16 -22 -32.5 -30t-30 -7.5t-20 13t3.5 38.5q17 44 60 74.5t93.5 43.5t97 4.5t69.5 -47.5q13 -25 3.5 -53.5t-37 -59.5t-65 -57t-55.5 -37.5t-44 -39.5
q-5 -45 -36 -50t-46.5 7t-11.5 38.5t26 47.5z" />
    <glyph glyph-name=".notdef.036" unicode="&#x1ec9;" horiz-adv-x="440" 
d="M166 965q22 51 76.5 54t109 -24.5t89 -78t20.5 -105.5q-10 -37 -46 -101.5t-80 -140t-90 -153.5t-77 -139.5t-38 -99.5t24 -36q47 4 91 40t83 87t69.5 108.5t48.5 102.5q21 45 48.5 61.5t50 8.5t31 -39t-12.5 -82q-20 -51 -60 -125t-96.5 -141.5t-129 -115.5t-158.5 -48
q-84 0 -118 61.5t-35 156.5t24.5 210t58.5 222.5t67 193.5t50 123zM344 1187q27 24 60.5 45t50 46.5t2.5 46.5q-4 7 -14 12t-23 3t-26.5 -10.5t-24.5 -27.5q-16 -22 -32.5 -30t-30 -7.5t-20 13t3.5 38.5q17 44 60 74.5t93.5 43.5t97 4.5t69.5 -47.5q13 -25 3.5 -53.5
t-37 -59.5t-65 -57t-55.5 -37.5t-44 -39.5q-5 -45 -36 -50t-46.5 7t-11.5 38.5t26 47.5z" />
    <glyph glyph-name=".notdef.100" unicode="&#x1eca;" horiz-adv-x="629" 
d="M610 1624q15 35 48.5 40t73.5 -10.5t82 -46t74 -70.5t48 -82t6 -79q-6 -22 -42 -81.5t-91 -142.5t-123 -183.5t-139.5 -208t-139 -214t-123 -202.5t-92 -174t-42.5 -127q-7 -41 -33.5 -54.5t-54 -5t-48 37t-12.5 75.5q16 121 64.5 273.5t112 312.5t134 316.5t133 286.5
t107.5 220t57 119zM-82 -199q10 55 52.5 93.5t90.5 38.5q49 0 75.5 -38.5t16.5 -93.5q-12 -54 -54.5 -92.5t-90.5 -38.5q-49 0 -75.5 38.5t-14.5 92.5z" />
    <glyph glyph-name=".notdef.034" unicode="&#x1ecb;" horiz-adv-x="440" 
d="M166 965q22 51 76.5 54t109 -24.5t89 -78t20.5 -105.5q-10 -37 -46 -101.5t-80 -140t-90 -153.5t-77 -139.5t-38 -99.5t24 -36q47 4 91 40t83 87t69.5 108.5t48.5 102.5q21 45 48.5 61.5t50 8.5t31 -39t-12.5 -82q-20 -51 -60 -125t-96.5 -141.5t-129 -115.5t-158.5 -48
q-84 0 -118 61.5t-35 156.5t24.5 210t58.5 222.5t67 193.5t50 123zM692 1307q0 -37 -14 -70t-39 -57.5t-57.5 -39t-69.5 -14.5q-76 0 -128 53.5t-52 127.5q0 75 52 127.5t128 52.5q74 0 127 -52.5t53 -127.5zM-72 -192q10 55 52.5 93.5t90.5 38.5q49 0 75.5 -38.5
t16.5 -93.5q-12 -54 -54.5 -92.5t-90.5 -38.5q-49 0 -75.5 38.5t-14.5 92.5z" />
    <glyph glyph-name=".notdef.095" unicode="&#x1ecc;" horiz-adv-x="1094" 
d="M932 1673q160 0 248 -72.5t117.5 -190.5t8 -269.5t-81 -308t-150.5 -308t-198.5 -269.5t-227.5 -190.5t-236 -72.5q-117 0 -192 72.5t-109.5 190.5t-32.5 269.5t41 308t110.5 308t174 269.5t235.5 190.5t293 72.5zM399 158q68 0 135.5 56t129 148.5t114.5 210t90 240.5
t55.5 240.5t10.5 210t-45 148.5t-109 56q-92 0 -173 -56t-148.5 -148.5t-118.5 -210t-83 -240.5t-41 -240.5t6.5 -210t58.5 -148.5t118 -56zM228 -199q10 55 52.5 93.5t90.5 38.5q49 0 75.5 -38.5t16.5 -93.5q-12 -54 -54.5 -92.5t-90.5 -38.5q-49 0 -75.5 38.5t-14.5 92.5z
" />
    <glyph glyph-name=".notdef.029" unicode="&#x1ecd;" horiz-adv-x="985" 
d="M524 1036q23 2 39.5 3t32.5 -1q111 0 183.5 -31.5t113.5 -87t51 -128t-5 -152.5t-54 -164t-97 -160q78 17 125.5 59t77.5 101q19 37 46.5 51.5t51 8t34 -31t-6.5 -63.5q-16 -41 -53 -87t-92.5 -84t-129 -62.5t-167.5 -20.5q-101 -92 -224.5 -146t-261.5 -46
q-98 6 -150 65.5t-64.5 150.5t13 202.5t83 221t145.5 207t199 156.5q47 29 110 39zM500 356q53 88 88 186.5t43 181.5t-14.5 136t-81.5 49q-46 -6 -78.5 -39.5t-53 -84t-27.5 -111t4 -120.5t40 -112.5t80 -85.5zM248 692q-62 -86 -100.5 -184t-48 -181t16 -138.5t93.5 -55.5
q59 0 115.5 34t105.5 91q-106 72 -150 191.5t-32 242.5zM48 -192q10 55 52.5 93.5t90.5 38.5q49 0 75.5 -38.5t16.5 -93.5q-12 -54 -54.5 -92.5t-90.5 -38.5q-49 0 -75.5 38.5t-14.5 92.5z" />
    <glyph glyph-name=".notdef.097" unicode="&#x1ece;" horiz-adv-x="1094" 
d="M932 1673q160 0 248 -72.5t117.5 -190.5t8 -269.5t-81 -308t-150.5 -308t-198.5 -269.5t-227.5 -190.5t-236 -72.5q-117 0 -192 72.5t-109.5 190.5t-32.5 269.5t41 308t110.5 308t174 269.5t235.5 190.5t293 72.5zM399 158q68 0 135.5 56t129 148.5t114.5 210t90 240.5
t55.5 240.5t10.5 210t-45 148.5t-109 56q-92 0 -173 -56t-148.5 -148.5t-118.5 -210t-83 -240.5t-41 -240.5t6.5 -210t58.5 -148.5t118 -56zM950 1821q27 24 60.5 45t50 46.5t2.5 46.5q-4 7 -14 12t-23 3t-26.5 -10.5t-24.5 -27.5q-16 -22 -32.5 -30t-30 -7.5t-20 13
t3.5 38.5q17 44 60 74.5t93.5 43.5t97 4.5t69.5 -47.5q13 -25 3.5 -53.5t-37 -59.5t-65 -57t-55.5 -37.5t-44 -39.5q-5 -45 -36 -50t-46.5 7t-11.5 38.5t26 47.5z" />
    <glyph glyph-name=".notdef.031" unicode="&#x1ecf;" horiz-adv-x="985" 
d="M524 1036q23 2 39.5 3t32.5 -1q111 0 183.5 -31.5t113.5 -87t51 -128t-5 -152.5t-54 -164t-97 -160q78 17 125.5 59t77.5 101q19 37 46.5 51.5t51 8t34 -31t-6.5 -63.5q-16 -41 -53 -87t-92.5 -84t-129 -62.5t-167.5 -20.5q-101 -92 -224.5 -146t-261.5 -46
q-98 6 -150 65.5t-64.5 150.5t13 202.5t83 221t145.5 207t199 156.5q47 29 110 39zM500 356q53 88 88 186.5t43 181.5t-14.5 136t-81.5 49q-46 -6 -78.5 -39.5t-53 -84t-27.5 -111t4 -120.5t40 -112.5t80 -85.5zM248 692q-62 -86 -100.5 -184t-48 -181t16 -138.5t93.5 -55.5
q59 0 115.5 34t105.5 91q-106 72 -150 191.5t-32 242.5zM644 1187q27 24 60.5 45t50 46.5t2.5 46.5q-4 7 -14 12t-23 3t-26.5 -10.5t-24.5 -27.5q-16 -22 -32.5 -30t-30 -7.5t-20 13t3.5 38.5q17 44 60 74.5t93.5 43.5t97 4.5t69.5 -47.5q13 -25 3.5 -53.5t-37 -59.5
t-65 -57t-55.5 -37.5t-44 -39.5q-5 -45 -36 -50t-46.5 7t-11.5 38.5t26 47.5z" />
    <glyph glyph-name=".notdef.092" unicode="&#x1ed0;" horiz-adv-x="1089" 
d="M932 1673q-160 0 -293 -72.5t-235.5 -190.5t-174 -269.5t-110.5 -308t-41 -308t32.5 -269.5t109.5 -190.5t192 -72.5q116 0 236 72.5t227.5 190.5t198.5 269.5t150.5 308t81 308t-8 269.5t-117.5 190.5t-248 72.5zM399 158q-75 0 -118 56t-58.5 148.5t-6.5 210t41 240.5
t83 240.5t118.5 210t148.5 148.5t173 56q72 0 109 -56t45 -148.5t-10.5 -210t-55.5 -240.5t-90 -240.5t-114.5 -210t-129 -148.5t-135.5 -56zM1196 1804q12 -37 -7 -59t-46.5 -29t-54.5 1.5t-34 31.5q-6 24 -7.5 44.5t-3.5 40.5t-6 39.5t-13 41.5q-32 -22 -53.5 -44
t-39.5 -42t-36 -39.5t-44 -36.5q-31 -20 -69.5 -26t-66 1t-35.5 26t22 50q21 21 47.5 45t63 51t85.5 56.5t115 65.5q18 8 28 8h2h2q25 0 41 -18q47 -58 70 -106t40 -102zM1288 2319q38 8 47 -18t0 -63t-33 -74t-54 -53q-26 -12 -69.5 -19.5t-96 -14t-106.5 -15.5t-99 -24
q-20 -6 -36.5 1.5t-22.5 22.5t-1.5 32t26.5 31q57 37 124 70t129 58t113.5 42.5t78.5 23.5z" />
    <glyph glyph-name=".notdef.026" unicode="&#x1ed1;" horiz-adv-x="985" 
d="M524 1036q23 2 39.5 3t32.5 -1q111 0 183.5 -31.5t113.5 -87t51 -128t-5 -152.5t-54 -164t-97 -160q78 17 125.5 59t77.5 101q19 37 46.5 51.5t51 8t34 -31t-6.5 -63.5q-16 -41 -53 -87t-92.5 -84t-129 -62.5t-167.5 -20.5q-101 -92 -224.5 -146t-261.5 -46
q-98 6 -150 65.5t-64.5 150.5t13 202.5t83 221t145.5 207t199 156.5q47 29 110 39zM500 356q53 88 88 186.5t43 181.5t-14.5 136t-81.5 49q-46 -6 -78.5 -39.5t-53 -84t-27.5 -111t4 -120.5t40 -112.5t80 -85.5zM248 692q-62 -86 -100.5 -184t-48 -181t16 -138.5t93.5 -55.5
q59 0 115.5 34t105.5 91q-106 72 -150 191.5t-32 242.5zM924 1162q12 -37 -7 -59t-46.5 -29t-54.5 1.5t-34 31.5q-6 24 -7.5 44.5t-3.5 40.5t-6 39.5t-13 41.5q-32 -22 -53.5 -44t-39.5 -42t-36 -39.5t-44 -36.5q-31 -20 -69.5 -26t-66 1t-35.5 26t22 50q21 21 47.5 45
t63 51t85.5 56.5t115 65.5q18 8 28 8h2h2q25 0 41 -18q47 -58 70 -106t40 -102zM1017 1680q38 8 47 -18t0 -63t-33 -74t-54 -53q-26 -12 -69.5 -19.5t-96 -14t-106.5 -15.5t-99 -24q-20 -6 -36.5 1.5t-22.5 22.5t-1.5 32t26.5 31q57 37 124 70t129 58t113.5 42.5t78.5 23.5z
" />
    <glyph glyph-name=".notdef.093" unicode="&#x1ed2;" horiz-adv-x="1089" 
d="M932 1673q-160 0 -293 -72.5t-235.5 -190.5t-174 -269.5t-110.5 -308t-41 -308t32.5 -269.5t109.5 -190.5t192 -72.5q116 0 236 72.5t227.5 190.5t198.5 269.5t150.5 308t81 308t-8 269.5t-117.5 190.5t-248 72.5zM399 158q-75 0 -118 56t-58.5 148.5t-6.5 210t41 240.5
t83 240.5t118.5 210t148.5 148.5t173 56q72 0 109 -56t45 -148.5t-10.5 -210t-55.5 -240.5t-90 -240.5t-114.5 -210t-129 -148.5t-135.5 -56zM1196 1804q12 -37 -7 -59t-46.5 -29t-54.5 1.5t-34 31.5q-6 24 -7.5 44.5t-3.5 40.5t-6 39.5t-13 41.5q-32 -22 -53.5 -44
t-39.5 -42t-36 -39.5t-44 -36.5q-31 -20 -69.5 -26t-66 1t-35.5 26t22 50q21 21 47.5 45t63 51t85.5 56.5t115 65.5q18 8 28 8h2h2q25 0 41 -18q47 -58 70 -106t40 -102zM857 2368q25 -10 72.5 -33t104.5 -57t116 -74t108 -83q18 -17 19.5 -34t-9 -29.5t-28.5 -18t-36 2.5
q-42 21 -94.5 37t-103 29.5t-92.5 26t-66 27.5q-27 21 -42 59.5t-16 75.5t15 60t52 11z" />
    <glyph glyph-name=".notdef.027" unicode="&#x1ed3;" horiz-adv-x="985" 
d="M524 1036q23 2 39.5 3t32.5 -1q111 0 183.5 -31.5t113.5 -87t51 -128t-5 -152.5t-54 -164t-97 -160q78 17 125.5 59t77.5 101q19 37 46.5 51.5t51 8t34 -31t-6.5 -63.5q-16 -41 -53 -87t-92.5 -84t-129 -62.5t-167.5 -20.5q-101 -92 -224.5 -146t-261.5 -46
q-98 6 -150 65.5t-64.5 150.5t13 202.5t83 221t145.5 207t199 156.5q47 29 110 39zM500 356q53 88 88 186.5t43 181.5t-14.5 136t-81.5 49q-46 -6 -78.5 -39.5t-53 -84t-27.5 -111t4 -120.5t40 -112.5t80 -85.5zM248 692q-62 -86 -100.5 -184t-48 -181t16 -138.5t93.5 -55.5
q59 0 115.5 34t105.5 91q-106 72 -150 191.5t-32 242.5zM924 1162q12 -37 -7 -59t-46.5 -29t-54.5 1.5t-34 31.5q-6 24 -7.5 44.5t-3.5 40.5t-6 39.5t-13 41.5q-32 -22 -53.5 -44t-39.5 -42t-36 -39.5t-44 -36.5q-31 -20 -69.5 -26t-66 1t-35.5 26t22 50q21 21 47.5 45
t63 51t85.5 56.5t115 65.5q18 8 28 8h2h2q25 0 41 -18q47 -58 70 -106t40 -102zM585 1727q25 -10 72.5 -33t104.5 -57t116 -74t108 -83q18 -17 19.5 -34t-9 -29.5t-28.5 -18t-36 2.5q-42 21 -94.5 37t-103 29.5t-92.5 26t-66 27.5q-27 21 -42 59.5t-16 75.5t15 60t52 11z
" />
    <glyph glyph-name=".notdef.091" unicode="&#x1ed4;" horiz-adv-x="1089" 
d="M932 1673q-160 0 -293 -72.5t-235.5 -190.5t-174 -269.5t-110.5 -308t-41 -308t32.5 -269.5t109.5 -190.5t192 -72.5q116 0 236 72.5t227.5 190.5t198.5 269.5t150.5 308t81 308t-8 269.5t-117.5 190.5t-248 72.5zM399 158q-75 0 -118 56t-58.5 148.5t-6.5 210t41 240.5
t83 240.5t118.5 210t148.5 148.5t173 56q72 0 109 -56t45 -148.5t-10.5 -210t-55.5 -240.5t-90 -240.5t-114.5 -210t-129 -148.5t-135.5 -56zM1196 1804q12 -37 -7 -59t-46.5 -29t-54.5 1.5t-34 31.5q-6 24 -7.5 44.5t-3.5 40.5t-6 39.5t-13 41.5q-32 -22 -53.5 -44
t-39.5 -42t-36 -39.5t-44 -36.5q-31 -20 -69.5 -26t-66 1t-35.5 26t22 50q21 21 47.5 45t63 51t85.5 56.5t115 65.5q18 8 28 8h2h2q25 0 41 -18q47 -58 70 -106t40 -102zM1212 1996q27 24 60.5 45t50 46.5t2.5 46.5q-4 7 -14 12t-23 3t-26.5 -10.5t-24.5 -27.5
q-16 -22 -32.5 -30t-30 -7.5t-20 13t3.5 38.5q17 44 60 74.5t93.5 43.5t97 4.5t69.5 -47.5q13 -25 3.5 -53.5t-37 -59.5t-65 -57t-55.5 -37.5t-44 -39.5q-5 -45 -36 -50t-46.5 7t-11.5 38.5t26 47.5z" />
    <glyph glyph-name=".notdef.025" unicode="&#x1ed5;" horiz-adv-x="985" 
d="M524 1036q23 2 39.5 3t32.5 -1q111 0 183.5 -31.5t113.5 -87t51 -128t-5 -152.5t-54 -164t-97 -160q78 17 125.5 59t77.5 101q19 37 46.5 51.5t51 8t34 -31t-6.5 -63.5q-16 -41 -53 -87t-92.5 -84t-129 -62.5t-167.5 -20.5q-101 -92 -224.5 -146t-261.5 -46
q-98 6 -150 65.5t-64.5 150.5t13 202.5t83 221t145.5 207t199 156.5q47 29 110 39zM500 356q53 88 88 186.5t43 181.5t-14.5 136t-81.5 49q-46 -6 -78.5 -39.5t-53 -84t-27.5 -111t4 -120.5t40 -112.5t80 -85.5zM248 692q-62 -86 -100.5 -184t-48 -181t16 -138.5t93.5 -55.5
q59 0 115.5 34t105.5 91q-106 72 -150 191.5t-32 242.5zM924 1162q12 -37 -7 -59t-46.5 -29t-54.5 1.5t-34 31.5q-6 24 -7.5 44.5t-3.5 40.5t-6 39.5t-13 41.5q-32 -22 -53.5 -44t-39.5 -42t-36 -39.5t-44 -36.5q-31 -20 -69.5 -26t-66 1t-35.5 26t22 50q21 21 47.5 45
t63 51t85.5 56.5t115 65.5q18 8 28 8h2h2q25 0 41 -18q47 -58 70 -106t40 -102zM940 1355q27 24 60.5 45t50 46.5t2.5 46.5q-4 7 -14 12t-23 3t-26.5 -10.5t-24.5 -27.5q-16 -22 -32.5 -30t-30 -7.5t-20 13t3.5 38.5q17 44 60 74.5t93.5 43.5t97 4.5t69.5 -47.5
q13 -25 3.5 -53.5t-37 -59.5t-65 -57t-55.5 -37.5t-44 -39.5q-5 -45 -36 -50t-46.5 7t-11.5 38.5t26 47.5z" />
    <glyph glyph-name=".notdef.090" unicode="&#x1ed6;" horiz-adv-x="1089" 
d="M932 1673q-160 0 -293 -72.5t-235.5 -190.5t-174 -269.5t-110.5 -308t-41 -308t32.5 -269.5t109.5 -190.5t192 -72.5q116 0 236 72.5t227.5 190.5t198.5 269.5t150.5 308t81 308t-8 269.5t-117.5 190.5t-248 72.5zM399 158q-75 0 -118 56t-58.5 148.5t-6.5 210t41 240.5
t83 240.5t118.5 210t148.5 148.5t173 56q72 0 109 -56t45 -148.5t-10.5 -210t-55.5 -240.5t-90 -240.5t-114.5 -210t-129 -148.5t-135.5 -56zM1196 1804q12 -37 -7 -59t-46.5 -29t-54.5 1.5t-34 31.5q-6 24 -7.5 44.5t-3.5 40.5t-6 39.5t-13 41.5q-32 -22 -53.5 -44
t-39.5 -42t-36 -39.5t-44 -36.5q-31 -20 -69.5 -26t-66 1t-35.5 26t22 50q21 21 47.5 45t63 51t85.5 56.5t115 65.5q18 8 28 8h2h2q25 0 41 -18q47 -58 70 -106t40 -102zM888 2213q47 39 87 50t76 6.5t65.5 -17t56 -23t49 -11t43.5 19.5q30 32 56 35.5t36 -11.5t1 -45.5
t-48 -71.5q-43 -44 -83 -58t-75.5 -12t-68 14t-61.5 24t-55.5 15.5t-48.5 -14.5q-43 -29 -69 -31.5t-32.5 14t10 48t61.5 68.5z" />
    <glyph glyph-name=".notdef.024" unicode="&#x1ed7;" horiz-adv-x="985" 
d="M524 1036q23 2 39.5 3t32.5 -1q111 0 183.5 -31.5t113.5 -87t51 -128t-5 -152.5t-54 -164t-97 -160q78 17 125.5 59t77.5 101q19 37 46.5 51.5t51 8t34 -31t-6.5 -63.5q-16 -41 -53 -87t-92.5 -84t-129 -62.5t-167.5 -20.5q-101 -92 -224.5 -146t-261.5 -46
q-98 6 -150 65.5t-64.5 150.5t13 202.5t83 221t145.5 207t199 156.5q47 29 110 39zM500 356q53 88 88 186.5t43 181.5t-14.5 136t-81.5 49q-46 -6 -78.5 -39.5t-53 -84t-27.5 -111t4 -120.5t40 -112.5t80 -85.5zM248 692q-62 -86 -100.5 -184t-48 -181t16 -138.5t93.5 -55.5
q59 0 115.5 34t105.5 91q-106 72 -150 191.5t-32 242.5zM924 1162q12 -37 -7 -59t-46.5 -29t-54.5 1.5t-34 31.5q-6 24 -7.5 44.5t-3.5 40.5t-6 39.5t-13 41.5q-32 -22 -53.5 -44t-39.5 -42t-36 -39.5t-44 -36.5q-31 -20 -69.5 -26t-66 1t-35.5 26t22 50q21 21 47.5 45
t63 51t85.5 56.5t115 65.5q18 8 28 8h2h2q25 0 41 -18q47 -58 70 -106t40 -102zM616 1571q47 39 87 50t76 6.5t65.5 -17t56 -23t49 -11t43.5 19.5q30 32 56 35.5t36 -11.5t1 -45.5t-48 -71.5q-43 -44 -83 -58t-75.5 -12t-68 14t-61.5 24t-55.5 15.5t-48.5 -14.5
q-43 -29 -69 -31.5t-32.5 14t10 48t61.5 68.5z" />
    <glyph glyph-name=".notdef.089" unicode="&#x1ed8;" horiz-adv-x="1089" 
d="M932 1673q-160 0 -293 -72.5t-235.5 -190.5t-174 -269.5t-110.5 -308t-41 -308t32.5 -269.5t109.5 -190.5t192 -72.5q116 0 236 72.5t227.5 190.5t198.5 269.5t150.5 308t81 308t-8 269.5t-117.5 190.5t-248 72.5zM399 158q-75 0 -118 56t-58.5 148.5t-6.5 210t41 240.5
t83 240.5t118.5 210t148.5 148.5t173 56q72 0 109 -56t45 -148.5t-10.5 -210t-55.5 -240.5t-90 -240.5t-114.5 -210t-129 -148.5t-135.5 -56zM1196 1804q12 -37 -7 -59t-46.5 -29t-54.5 1.5t-34 31.5q-6 24 -7.5 44.5t-3.5 40.5t-6 39.5t-13 41.5q-32 -22 -53.5 -44
t-39.5 -42t-36 -39.5t-44 -36.5q-31 -20 -69.5 -26t-66 1t-35.5 26t22 50q21 21 47.5 45t63 51t85.5 56.5t115 65.5q18 8 28 8h2h2q25 0 41 -18q47 -58 70 -106t40 -102zM228 -199q10 55 52.5 93.5t90.5 38.5q49 0 75.5 -38.5t16.5 -93.5q-12 -54 -54.5 -92.5t-90.5 -38.5
q-49 0 -75.5 38.5t-14.5 92.5z" />
    <glyph glyph-name=".notdef.023" unicode="&#x1ed9;" horiz-adv-x="985" 
d="M524 1036q23 2 39.5 3t32.5 -1q111 0 183.5 -31.5t113.5 -87t51 -128t-5 -152.5t-54 -164t-97 -160q78 17 125.5 59t77.5 101q19 37 46.5 51.5t51 8t34 -31t-6.5 -63.5q-16 -41 -53 -87t-92.5 -84t-129 -62.5t-167.5 -20.5q-101 -92 -224.5 -146t-261.5 -46
q-98 6 -150 65.5t-64.5 150.5t13 202.5t83 221t145.5 207t199 156.5q47 29 110 39zM500 356q53 88 88 186.5t43 181.5t-14.5 136t-81.5 49q-46 -6 -78.5 -39.5t-53 -84t-27.5 -111t4 -120.5t40 -112.5t80 -85.5zM248 692q-62 -86 -100.5 -184t-48 -181t16 -138.5t93.5 -55.5
q59 0 115.5 34t105.5 91q-106 72 -150 191.5t-32 242.5zM924 1162q12 -37 -7 -59t-46.5 -29t-54.5 1.5t-34 31.5q-6 24 -7.5 44.5t-3.5 40.5t-6 39.5t-13 41.5q-32 -22 -53.5 -44t-39.5 -42t-36 -39.5t-44 -36.5q-31 -20 -69.5 -26t-66 1t-35.5 26t22 50q21 21 47.5 45
t63 51t85.5 56.5t115 65.5q18 8 28 8h2h2q25 0 41 -18q47 -58 70 -106t40 -102zM48 -192q10 55 52.5 93.5t90.5 38.5q49 0 75.5 -38.5t16.5 -93.5q-12 -54 -54.5 -92.5t-90.5 -38.5q-49 0 -75.5 38.5t-14.5 92.5z" />
    <glyph glyph-name=".notdef.075" unicode="&#x1eda;" horiz-adv-x="1092" 
d="M932 1673q160 0 248 -72.5t117.5 -190.5t8 -269.5t-81 -308t-150.5 -308t-198.5 -269.5t-227.5 -190.5t-236 -72.5q-117 0 -192 72.5t-109.5 190.5t-32.5 269.5t41 308t110.5 308t174 269.5t235.5 190.5t293 72.5zM399 158q68 0 135.5 56t129 148.5t114.5 210t90 240.5
t55.5 240.5t10.5 210t-45 148.5t-109 56q-92 0 -173 -56t-148.5 -148.5t-118.5 -210t-83 -240.5t-41 -240.5t6.5 -210t58.5 -148.5t118 -56zM1507 1617q-23 -27 -56.5 -57.5t-69 -56.5t-72.5 -47t-70 -30q-55 -16 -75.5 2.5t17.5 62.5q33 38 49.5 66.5t27.5 51.5t24 45
t44 47q35 31 79.5 34.5t77.5 -11.5t43.5 -44t-19.5 -63zM1166 2006q38 8 47 -18t0 -63t-33 -74t-54 -53q-26 -12 -69.5 -19.5t-96 -14t-106.5 -15.5t-99 -24q-20 -6 -36.5 1.5t-22.5 22.5t-1.5 32t26.5 31q57 37 124 70t129 58t113.5 42.5t78.5 23.5z" />
    <glyph glyph-name=".notdef.009" unicode="&#x1edb;" 
d="M524 1036q23 2 39.5 3t32.5 -1q111 0 183.5 -31.5t113.5 -87t51 -128t-5 -152.5t-54 -164t-97 -160q78 17 125.5 59t77.5 101q19 37 46.5 51.5t51 8t34 -31t-6.5 -63.5q-16 -41 -53 -87t-92.5 -84t-129 -62.5t-167.5 -20.5q-101 -92 -224.5 -146t-261.5 -46
q-98 6 -150 65.5t-64.5 150.5t13 202.5t83 221t145.5 207t199 156.5q47 29 110 39zM500 356q53 88 88 186.5t43 181.5t-14.5 136t-81.5 49q-46 -6 -78.5 -39.5t-53 -84t-27.5 -111t4 -120.5t40 -112.5t80 -85.5zM248 692q-62 -86 -100.5 -184t-48 -181t16 -138.5t93.5 -55.5
q59 0 115.5 34t105.5 91q-106 72 -150 191.5t-32 242.5zM1143 936q-23 -27 -56.5 -57.5t-69 -56.5t-72.5 -47t-70 -30q-55 -16 -75.5 2.5t17.5 62.5q33 38 49.5 66.5t27.5 51.5t24 45t44 47q35 31 79.5 34.5t77.5 -11.5t43.5 -44t-19.5 -63zM868 1388q38 8 47 -18t0 -63
t-33 -74t-54 -53q-26 -12 -69.5 -19.5t-96 -14t-106.5 -15.5t-99 -24q-20 -6 -36.5 1.5t-22.5 22.5t-1.5 32t26.5 31q57 37 124 70t129 58t113.5 42.5t78.5 23.5z" />
    <glyph glyph-name=".notdef.076" unicode="&#x1edc;" horiz-adv-x="1092" 
d="M932 1673q160 0 248 -72.5t117.5 -190.5t8 -269.5t-81 -308t-150.5 -308t-198.5 -269.5t-227.5 -190.5t-236 -72.5q-117 0 -192 72.5t-109.5 190.5t-32.5 269.5t41 308t110.5 308t174 269.5t235.5 190.5t293 72.5zM399 158q68 0 135.5 56t129 148.5t114.5 210t90 240.5
t55.5 240.5t10.5 210t-45 148.5t-109 56q-92 0 -173 -56t-148.5 -148.5t-118.5 -210t-83 -240.5t-41 -240.5t6.5 -210t58.5 -148.5t118 -56zM1507 1617q-23 -27 -56.5 -57.5t-69 -56.5t-72.5 -47t-70 -30q-55 -16 -75.5 2.5t17.5 62.5q33 38 49.5 66.5t27.5 51.5t24 45
t44 47q35 31 79.5 34.5t77.5 -11.5t43.5 -44t-19.5 -63zM818 2046q25 -10 72.5 -33t104.5 -57t116 -74t108 -83q18 -17 19.5 -34t-9 -29.5t-28.5 -18t-36 2.5q-42 21 -94.5 37t-103 29.5t-92.5 26t-66 27.5q-27 21 -42 59.5t-16 75.5t15 60t52 11z" />
    <glyph glyph-name=".notdef.010" unicode="&#x1edd;" 
d="M524 1036q23 2 39.5 3t32.5 -1q111 0 183.5 -31.5t113.5 -87t51 -128t-5 -152.5t-54 -164t-97 -160q78 17 125.5 59t77.5 101q19 37 46.5 51.5t51 8t34 -31t-6.5 -63.5q-16 -41 -53 -87t-92.5 -84t-129 -62.5t-167.5 -20.5q-101 -92 -224.5 -146t-261.5 -46
q-98 6 -150 65.5t-64.5 150.5t13 202.5t83 221t145.5 207t199 156.5q47 29 110 39zM500 356q53 88 88 186.5t43 181.5t-14.5 136t-81.5 49q-46 -6 -78.5 -39.5t-53 -84t-27.5 -111t4 -120.5t40 -112.5t80 -85.5zM248 692q-62 -86 -100.5 -184t-48 -181t16 -138.5t93.5 -55.5
q59 0 115.5 34t105.5 91q-106 72 -150 191.5t-32 242.5zM1143 936q-23 -27 -56.5 -57.5t-69 -56.5t-72.5 -47t-70 -30q-55 -16 -75.5 2.5t17.5 62.5q33 38 49.5 66.5t27.5 51.5t24 45t44 47q35 31 79.5 34.5t77.5 -11.5t43.5 -44t-19.5 -63zM508 1405q25 -10 72.5 -33
t104.5 -57t116 -74t108 -83q18 -17 19.5 -34t-9 -29.5t-28.5 -18t-36 2.5q-42 21 -94.5 37t-103 29.5t-92.5 26t-66 27.5q-27 21 -42 59.5t-16 75.5t15 60t52 11z" />
    <glyph glyph-name=".notdef.074" unicode="&#x1ede;" horiz-adv-x="1092" 
d="M932 1673q160 0 248 -72.5t117.5 -190.5t8 -269.5t-81 -308t-150.5 -308t-198.5 -269.5t-227.5 -190.5t-236 -72.5q-117 0 -192 72.5t-109.5 190.5t-32.5 269.5t41 308t110.5 308t174 269.5t235.5 190.5t293 72.5zM399 158q68 0 135.5 56t129 148.5t114.5 210t90 240.5
t55.5 240.5t10.5 210t-45 148.5t-109 56q-92 0 -173 -56t-148.5 -148.5t-118.5 -210t-83 -240.5t-41 -240.5t6.5 -210t58.5 -148.5t118 -56zM1507 1617q-23 -27 -56.5 -57.5t-69 -56.5t-72.5 -47t-70 -30q-55 -16 -75.5 2.5t17.5 62.5q33 38 49.5 66.5t27.5 51.5t24 45
t44 47q35 31 79.5 34.5t77.5 -11.5t43.5 -44t-19.5 -63zM950 1821q27 24 60.5 45t50 46.5t2.5 46.5q-4 7 -14 12t-23 3t-26.5 -10.5t-24.5 -27.5q-16 -22 -32.5 -30t-30 -7.5t-20 13t3.5 38.5q17 44 60 74.5t93.5 43.5t97 4.5t69.5 -47.5q13 -25 3.5 -53.5t-37 -59.5
t-65 -57t-55.5 -37.5t-44 -39.5q-5 -45 -36 -50t-46.5 7t-11.5 38.5t26 47.5z" />
    <glyph glyph-name=".notdef.008" unicode="&#x1edf;" 
d="M524 1036q23 2 39.5 3t32.5 -1q111 0 183.5 -31.5t113.5 -87t51 -128t-5 -152.5t-54 -164t-97 -160q78 17 125.5 59t77.5 101q19 37 46.5 51.5t51 8t34 -31t-6.5 -63.5q-16 -41 -53 -87t-92.5 -84t-129 -62.5t-167.5 -20.5q-101 -92 -224.5 -146t-261.5 -46
q-98 6 -150 65.5t-64.5 150.5t13 202.5t83 221t145.5 207t199 156.5q47 29 110 39zM500 356q53 88 88 186.5t43 181.5t-14.5 136t-81.5 49q-46 -6 -78.5 -39.5t-53 -84t-27.5 -111t4 -120.5t40 -112.5t80 -85.5zM248 692q-62 -86 -100.5 -184t-48 -181t16 -138.5t93.5 -55.5
q59 0 115.5 34t105.5 91q-106 72 -150 191.5t-32 242.5zM1143 936q-23 -27 -56.5 -57.5t-69 -56.5t-72.5 -47t-70 -30q-55 -16 -75.5 2.5t17.5 62.5q33 38 49.5 66.5t27.5 51.5t24 45t44 47q35 31 79.5 34.5t77.5 -11.5t43.5 -44t-19.5 -63zM644 1187q27 24 60.5 45t50 46.5
t2.5 46.5q-4 7 -14 12t-23 3t-26.5 -10.5t-24.5 -27.5q-16 -22 -32.5 -30t-30 -7.5t-20 13t3.5 38.5q17 44 60 74.5t93.5 43.5t97 4.5t69.5 -47.5q13 -25 3.5 -53.5t-37 -59.5t-65 -57t-55.5 -37.5t-44 -39.5q-5 -45 -36 -50t-46.5 7t-11.5 38.5t26 47.5z" />
    <glyph glyph-name=".notdef.073" unicode="&#x1ee0;" horiz-adv-x="1092" 
d="M932 1673q160 0 248 -72.5t117.5 -190.5t8 -269.5t-81 -308t-150.5 -308t-198.5 -269.5t-227.5 -190.5t-236 -72.5q-117 0 -192 72.5t-109.5 190.5t-32.5 269.5t41 308t110.5 308t174 269.5t235.5 190.5t293 72.5zM399 158q68 0 135.5 56t129 148.5t114.5 210t90 240.5
t55.5 240.5t10.5 210t-45 148.5t-109 56q-92 0 -173 -56t-148.5 -148.5t-118.5 -210t-83 -240.5t-41 -240.5t6.5 -210t58.5 -148.5t118 -56zM1507 1617q-23 -27 -56.5 -57.5t-69 -56.5t-72.5 -47t-70 -30q-55 -16 -75.5 2.5t17.5 62.5q33 38 49.5 66.5t27.5 51.5t24 45
t44 47q35 31 79.5 34.5t77.5 -11.5t43.5 -44t-19.5 -63zM761 1887q47 39 87 50t76 6.5t65.5 -17t56 -23t49 -11t43.5 19.5q30 32 56 35.5t36 -11.5t1 -45.5t-48 -71.5q-43 -44 -83 -58t-75.5 -12t-68 14t-61.5 24t-55.5 15.5t-48.5 -14.5q-43 -29 -69 -31.5t-32.5 14t10 48
t61.5 68.5z" />
    <glyph glyph-name=".notdef.007" unicode="&#x1ee1;" 
d="M524 1036q23 2 39.5 3t32.5 -1q111 0 183.5 -31.5t113.5 -87t51 -128t-5 -152.5t-54 -164t-97 -160q78 17 125.5 59t77.5 101q19 37 46.5 51.5t51 8t34 -31t-6.5 -63.5q-16 -41 -53 -87t-92.5 -84t-129 -62.5t-167.5 -20.5q-101 -92 -224.5 -146t-261.5 -46
q-98 6 -150 65.5t-64.5 150.5t13 202.5t83 221t145.5 207t199 156.5q47 29 110 39zM500 356q53 88 88 186.5t43 181.5t-14.5 136t-81.5 49q-46 -6 -78.5 -39.5t-53 -84t-27.5 -111t4 -120.5t40 -112.5t80 -85.5zM248 692q-62 -86 -100.5 -184t-48 -181t16 -138.5t93.5 -55.5
q59 0 115.5 34t105.5 91q-106 72 -150 191.5t-32 242.5zM1143 936q-23 -27 -56.5 -57.5t-69 -56.5t-72.5 -47t-70 -30q-55 -16 -75.5 2.5t17.5 62.5q33 38 49.5 66.5t27.5 51.5t24 45t44 47q35 31 79.5 34.5t77.5 -11.5t43.5 -44t-19.5 -63zM531 1246q47 39 87 50t76 6.5
t65.5 -17t56 -23t49 -11t43.5 19.5q30 32 56 35.5t36 -11.5t1 -45.5t-48 -71.5q-43 -44 -83 -58t-75.5 -12t-68 14t-61.5 24t-55.5 15.5t-48.5 -14.5q-43 -29 -69 -31.5t-32.5 14t10 48t61.5 68.5z" />
    <glyph glyph-name=".notdef.072" unicode="&#x1ee2;" horiz-adv-x="1092" 
d="M932 1673q160 0 248 -72.5t117.5 -190.5t8 -269.5t-81 -308t-150.5 -308t-198.5 -269.5t-227.5 -190.5t-236 -72.5q-117 0 -192 72.5t-109.5 190.5t-32.5 269.5t41 308t110.5 308t174 269.5t235.5 190.5t293 72.5zM399 158q68 0 135.5 56t129 148.5t114.5 210t90 240.5
t55.5 240.5t10.5 210t-45 148.5t-109 56q-92 0 -173 -56t-148.5 -148.5t-118.5 -210t-83 -240.5t-41 -240.5t6.5 -210t58.5 -148.5t118 -56zM1507 1617q-23 -27 -56.5 -57.5t-69 -56.5t-72.5 -47t-70 -30q-55 -16 -75.5 2.5t17.5 62.5q33 38 49.5 66.5t27.5 51.5t24 45
t44 47q35 31 79.5 34.5t77.5 -11.5t43.5 -44t-19.5 -63zM228 -199q10 55 52.5 93.5t90.5 38.5q49 0 75.5 -38.5t16.5 -93.5q-12 -54 -54.5 -92.5t-90.5 -38.5q-49 0 -75.5 38.5t-14.5 92.5z" />
    <glyph glyph-name=".notdef.006" unicode="&#x1ee3;" 
d="M524 1036q23 2 39.5 3t32.5 -1q111 0 183.5 -31.5t113.5 -87t51 -128t-5 -152.5t-54 -164t-97 -160q78 17 125.5 59t77.5 101q19 37 46.5 51.5t51 8t34 -31t-6.5 -63.5q-16 -41 -53 -87t-92.5 -84t-129 -62.5t-167.5 -20.5q-101 -92 -224.5 -146t-261.5 -46
q-98 6 -150 65.5t-64.5 150.5t13 202.5t83 221t145.5 207t199 156.5q47 29 110 39zM500 356q53 88 88 186.5t43 181.5t-14.5 136t-81.5 49q-46 -6 -78.5 -39.5t-53 -84t-27.5 -111t4 -120.5t40 -112.5t80 -85.5zM248 692q-62 -86 -100.5 -184t-48 -181t16 -138.5t93.5 -55.5
q59 0 115.5 34t105.5 91q-106 72 -150 191.5t-32 242.5zM1143 936q-23 -27 -56.5 -57.5t-69 -56.5t-72.5 -47t-70 -30q-55 -16 -75.5 2.5t17.5 62.5q33 38 49.5 66.5t27.5 51.5t24 45t44 47q35 31 79.5 34.5t77.5 -11.5t43.5 -44t-19.5 -63zM48 -192q10 55 52.5 93.5
t90.5 38.5q49 0 75.5 -38.5t16.5 -93.5q-12 -54 -54.5 -92.5t-90.5 -38.5q-49 0 -75.5 38.5t-14.5 92.5z" />
    <glyph glyph-name=".notdef.084" unicode="&#x1ee4;" horiz-adv-x="1200" 
d="M1110 1622q14 35 47 44t72 -1t79 -34.5t70.5 -58.5t46 -72t5.5 -75q-9 -28 -42.5 -101t-84 -174t-109.5 -221t-117.5 -242t-108.5 -234.5t-82 -200.5t-40 -140.5t20 -52.5q47 0 98.5 49.5t99.5 118t86 141t58 117.5q19 45 47.5 60.5t52 5.5t33 -42t-9.5 -83
q-14 -35 -39.5 -85t-61.5 -107.5t-81 -114t-96.5 -101.5t-106.5 -73.5t-112 -28.5q-50 0 -80.5 24.5t-47 69.5t-19.5 107.5t3 138.5q-35 -68 -76 -129t-88 -109.5t-99 -76t-110 -27.5q-90 0 -145 51t-80.5 140.5t-24.5 208t21.5 255t59 282.5t89 288.5t108.5 274.5t120 239
q20 37 55 40t72 -16.5t72.5 -56.5t60.5 -78t33 -81t-10 -66q-54 -82 -117.5 -208t-124 -268.5t-109.5 -289t-75.5 -268t-23.5 -205.5t50 -103q33 -14 72 12.5t80 78t79.5 120t75.5 141t67 142t52 121.5q43 157 96.5 315t102.5 290t87 226t50 123zM299 -270q10 55 52.5 93.5
t90.5 38.5q49 0 75.5 -38.5t16.5 -93.5q-12 -54 -54.5 -92.5t-90.5 -38.5q-49 0 -75.5 38.5t-14.5 92.5z" />
    <glyph glyph-name=".notdef.018" unicode="&#x1ee5;" horiz-adv-x="965" 
d="M690 965q23 51 77 54t108.5 -24.5t89 -78t20.5 -105.5q-10 -37 -46 -101.5t-80 -140t-90 -153.5t-76.5 -139.5t-38 -99.5t23.5 -36q47 4 91 40t82 87t68.5 108.5t51.5 102.5q20 45 48 61.5t50.5 8.5t30.5 -39t-13 -82q-20 -51 -60 -125t-96.5 -141.5t-129 -115.5
t-158.5 -48q-49 0 -81 21.5t-48 58.5t-20.5 88t0.5 110q-35 -61 -77 -117.5t-90 -95t-101.5 -58t-110.5 -7.5q-74 14 -110 64.5t-43 125t11.5 171t53 202t84 216t104.5 216.5q18 37 50 46.5t66 -1t67.5 -37t56 -59.5t30 -68.5t-7.5 -64.5q-37 -66 -80 -138.5t-84 -144
t-76.5 -138t-57 -119t-23.5 -88.5t24 -44q35 -12 74 10.5t78 67.5t75.5 106.5t69.5 124t58.5 121t42.5 99.5q32 102 64 183t48 116zM109 -192q10 55 52.5 93.5t90.5 38.5q49 0 75.5 -38.5t16.5 -93.5q-12 -54 -54.5 -92.5t-90.5 -38.5q-49 0 -75.5 38.5t-14.5 92.5z" />
    <glyph glyph-name=".notdef.086" unicode="&#x1ee6;" horiz-adv-x="1200" 
d="M1110 1622q14 35 47 44t72 -1t79 -34.5t70.5 -58.5t46 -72t5.5 -75q-9 -28 -42.5 -101t-84 -174t-109.5 -221t-117.5 -242t-108.5 -234.5t-82 -200.5t-40 -140.5t20 -52.5q47 0 98.5 49.5t99.5 118t86 141t58 117.5q19 45 47.5 60.5t52 5.5t33 -42t-9.5 -83
q-14 -35 -39.5 -85t-61.5 -107.5t-81 -114t-96.5 -101.5t-106.5 -73.5t-112 -28.5q-50 0 -80.5 24.5t-47 69.5t-19.5 107.5t3 138.5q-35 -68 -76 -129t-88 -109.5t-99 -76t-110 -27.5q-90 0 -145 51t-80.5 140.5t-24.5 208t21.5 255t59 282.5t89 288.5t108.5 274.5t120 239
q20 37 55 40t72 -16.5t72.5 -56.5t60.5 -78t33 -81t-10 -66q-54 -82 -117.5 -208t-124 -268.5t-109.5 -289t-75.5 -268t-23.5 -205.5t50 -103q33 -14 72 12.5t80 78t79.5 120t75.5 141t67 142t52 121.5q43 157 96.5 315t102.5 290t87 226t50 123zM929 1821q27 24 60.5 45
t50 46.5t2.5 46.5q-4 7 -14 12t-23 3t-26.5 -10.5t-24.5 -27.5q-16 -22 -32.5 -30t-30 -7.5t-20 13t3.5 38.5q17 44 60 74.5t93.5 43.5t97 4.5t69.5 -47.5q13 -25 3.5 -53.5t-37 -59.5t-65 -57t-55.5 -37.5t-44 -39.5q-5 -45 -36 -50t-46.5 7t-11.5 38.5t26 47.5z" />
    <glyph glyph-name=".notdef.020" unicode="&#x1ee7;" horiz-adv-x="965" 
d="M690 965q23 51 77 54t108.5 -24.5t89 -78t20.5 -105.5q-10 -37 -46 -101.5t-80 -140t-90 -153.5t-76.5 -139.5t-38 -99.5t23.5 -36q47 4 91 40t82 87t68.5 108.5t51.5 102.5q20 45 48 61.5t50.5 8.5t30.5 -39t-13 -82q-20 -51 -60 -125t-96.5 -141.5t-129 -115.5
t-158.5 -48q-49 0 -81 21.5t-48 58.5t-20.5 88t0.5 110q-35 -61 -77 -117.5t-90 -95t-101.5 -58t-110.5 -7.5q-74 14 -110 64.5t-43 125t11.5 171t53 202t84 216t104.5 216.5q18 37 50 46.5t66 -1t67.5 -37t56 -59.5t30 -68.5t-7.5 -64.5q-37 -66 -80 -138.5t-84 -144
t-76.5 -138t-57 -119t-23.5 -88.5t24 -44q35 -12 74 10.5t78 67.5t75.5 106.5t69.5 124t58.5 121t42.5 99.5q32 102 64 183t48 116zM601 1187q27 24 60.5 45t50 46.5t2.5 46.5q-4 7 -14 12t-23 3t-26.5 -10.5t-24.5 -27.5q-16 -22 -32.5 -30t-30 -7.5t-20 13t3.5 38.5
q17 44 60 74.5t93.5 43.5t97 4.5t69.5 -47.5q13 -25 3.5 -53.5t-37 -59.5t-65 -57t-55.5 -37.5t-44 -39.5q-5 -45 -36 -50t-46.5 7t-11.5 38.5t26 47.5z" />
    <glyph glyph-name=".notdef.081" unicode="&#x1ee8;" horiz-adv-x="1190" 
d="M1110 1622q14 35 47 44t72 -1t79 -34.5t70.5 -58.5t46 -72t5.5 -75q-9 -28 -42.5 -101t-84 -174t-109.5 -221t-117.5 -242t-108.5 -234.5t-82 -200.5t-40 -140.5t20 -52.5q47 0 98.5 49.5t99.5 118t86 141t58 117.5q19 45 47.5 60.5t52 5.5t33 -42t-9.5 -83
q-14 -35 -39.5 -85t-61.5 -107.5t-81 -114t-96.5 -101.5t-106.5 -73.5t-112 -28.5q-50 0 -80.5 24.5t-47 69.5t-19.5 107.5t3 138.5q-35 -68 -76 -129t-88 -109.5t-99 -76t-110 -27.5q-90 0 -145 51t-80.5 140.5t-24.5 208t21.5 255t59 282.5t89 288.5t108.5 274.5t120 239
q20 37 55 40t72 -16.5t72.5 -56.5t60.5 -78t33 -81t-10 -66q-54 -82 -117.5 -208t-124 -268.5t-109.5 -289t-75.5 -268t-23.5 -205.5t50 -103q33 -14 72 12.5t80 78t79.5 120t75.5 141t67 142t52 121.5q43 157 96.5 315t102.5 290t87 226t50 123zM1645 1628
q-23 -27 -56.5 -57.5t-69 -56.5t-72.5 -47t-70 -30q-55 -16 -75.5 2.5t17.5 62.5q33 38 49.5 66.5t27.5 51.5t24 45t44 47q35 31 79.5 34.5t77.5 -11.5t43.5 -44t-19.5 -63zM1199 2022q38 8 47 -18t0 -63t-33 -74t-54 -53q-26 -12 -69.5 -19.5t-96 -14t-106.5 -15.5t-99 -24
q-20 -6 -36.5 1.5t-22.5 22.5t-1.5 32t26.5 31q57 37 124 70t129 58t113.5 42.5t78.5 23.5z" />
    <glyph glyph-name=".notdef.015" unicode="&#x1ee9;" horiz-adv-x="991" 
d="M690 965q23 51 77 54t108.5 -24.5t89 -78t20.5 -105.5q-10 -37 -46 -101.5t-80 -140t-90 -153.5t-76.5 -139.5t-38 -99.5t23.5 -36q47 4 91 40t82 87t68.5 108.5t51.5 102.5q20 45 48 61.5t50.5 8.5t30.5 -39t-13 -82q-20 -51 -60 -125t-96.5 -141.5t-129 -115.5
t-158.5 -48q-49 0 -81 21.5t-48 58.5t-20.5 88t0.5 110q-35 -61 -77 -117.5t-90 -95t-101.5 -58t-110.5 -7.5q-74 14 -110 64.5t-43 125t11.5 171t53 202t84 216t104.5 216.5q18 37 50 46.5t66 -1t67.5 -37t56 -59.5t30 -68.5t-7.5 -64.5q-37 -66 -80 -138.5t-84 -144
t-76.5 -138t-57 -119t-23.5 -88.5t24 -44q35 -12 74 10.5t78 67.5t75.5 106.5t69.5 124t58.5 121t42.5 99.5q32 102 64 183t48 116zM1172 966q-23 -27 -56.5 -57.5t-69 -56.5t-72.5 -47t-70 -30q-55 -16 -75.5 2.5t17.5 62.5q33 38 49.5 66.5t27.5 51.5t24 45t44 47
q35 31 79.5 34.5t77.5 -11.5t43.5 -44t-19.5 -63zM884 1385q38 8 47 -18t0 -63t-33 -74t-54 -53q-26 -12 -69.5 -19.5t-96 -14t-106.5 -15.5t-99 -24q-20 -6 -36.5 1.5t-22.5 22.5t-1.5 32t26.5 31q57 37 124 70t129 58t113.5 42.5t78.5 23.5z" />
    <glyph glyph-name=".notdef.082" unicode="&#x1eea;" horiz-adv-x="1190" 
d="M1110 1622q14 35 47 44t72 -1t79 -34.5t70.5 -58.5t46 -72t5.5 -75q-9 -28 -42.5 -101t-84 -174t-109.5 -221t-117.5 -242t-108.5 -234.5t-82 -200.5t-40 -140.5t20 -52.5q47 0 98.5 49.5t99.5 118t86 141t58 117.5q19 45 47.5 60.5t52 5.5t33 -42t-9.5 -83
q-14 -35 -39.5 -85t-61.5 -107.5t-81 -114t-96.5 -101.5t-106.5 -73.5t-112 -28.5q-50 0 -80.5 24.5t-47 69.5t-19.5 107.5t3 138.5q-35 -68 -76 -129t-88 -109.5t-99 -76t-110 -27.5q-90 0 -145 51t-80.5 140.5t-24.5 208t21.5 255t59 282.5t89 288.5t108.5 274.5t120 239
q20 37 55 40t72 -16.5t72.5 -56.5t60.5 -78t33 -81t-10 -66q-54 -82 -117.5 -208t-124 -268.5t-109.5 -289t-75.5 -268t-23.5 -205.5t50 -103q33 -14 72 12.5t80 78t79.5 120t75.5 141t67 142t52 121.5q43 157 96.5 315t102.5 290t87 226t50 123zM1645 1628
q-23 -27 -56.5 -57.5t-69 -56.5t-72.5 -47t-70 -30q-55 -16 -75.5 2.5t17.5 62.5q33 38 49.5 66.5t27.5 51.5t24 45t44 47q35 31 79.5 34.5t77.5 -11.5t43.5 -44t-19.5 -63zM790 2076q25 -10 72.5 -33t104.5 -57t116 -74t108 -83q18 -17 19.5 -34t-9 -29.5t-28.5 -18
t-36 2.5q-42 21 -94.5 37t-103 29.5t-92.5 26t-66 27.5q-27 21 -42 59.5t-16 75.5t15 60t52 11z" />
    <glyph glyph-name=".notdef.016" unicode="&#x1eeb;" horiz-adv-x="991" 
d="M690 965q23 51 77 54t108.5 -24.5t89 -78t20.5 -105.5q-10 -37 -46 -101.5t-80 -140t-90 -153.5t-76.5 -139.5t-38 -99.5t23.5 -36q47 4 91 40t82 87t68.5 108.5t51.5 102.5q20 45 48 61.5t50.5 8.5t30.5 -39t-13 -82q-20 -51 -60 -125t-96.5 -141.5t-129 -115.5
t-158.5 -48q-49 0 -81 21.5t-48 58.5t-20.5 88t0.5 110q-35 -61 -77 -117.5t-90 -95t-101.5 -58t-110.5 -7.5q-74 14 -110 64.5t-43 125t11.5 171t53 202t84 216t104.5 216.5q18 37 50 46.5t66 -1t67.5 -37t56 -59.5t30 -68.5t-7.5 -64.5q-37 -66 -80 -138.5t-84 -144
t-76.5 -138t-57 -119t-23.5 -88.5t24 -44q35 -12 74 10.5t78 67.5t75.5 106.5t69.5 124t58.5 121t42.5 99.5q32 102 64 183t48 116zM1172 966q-23 -27 -56.5 -57.5t-69 -56.5t-72.5 -47t-70 -30q-55 -16 -75.5 2.5t17.5 62.5q33 38 49.5 66.5t27.5 51.5t24 45t44 47
q35 31 79.5 34.5t77.5 -11.5t43.5 -44t-19.5 -63zM451 1420q25 -10 72.5 -33t104.5 -57t116 -74t108 -83q18 -17 19.5 -34t-9 -29.5t-28.5 -18t-36 2.5q-42 21 -94.5 37t-103 29.5t-92.5 26t-66 27.5q-27 21 -42 59.5t-16 75.5t15 60t52 11z" />
    <glyph glyph-name=".notdef.080" unicode="&#x1eec;" horiz-adv-x="1190" 
d="M1110 1622q14 35 47 44t72 -1t79 -34.5t70.5 -58.5t46 -72t5.5 -75q-9 -28 -42.5 -101t-84 -174t-109.5 -221t-117.5 -242t-108.5 -234.5t-82 -200.5t-40 -140.5t20 -52.5q47 0 98.5 49.5t99.5 118t86 141t58 117.5q19 45 47.5 60.5t52 5.5t33 -42t-9.5 -83
q-14 -35 -39.5 -85t-61.5 -107.5t-81 -114t-96.5 -101.5t-106.5 -73.5t-112 -28.5q-50 0 -80.5 24.5t-47 69.5t-19.5 107.5t3 138.5q-35 -68 -76 -129t-88 -109.5t-99 -76t-110 -27.5q-90 0 -145 51t-80.5 140.5t-24.5 208t21.5 255t59 282.5t89 288.5t108.5 274.5t120 239
q20 37 55 40t72 -16.5t72.5 -56.5t60.5 -78t33 -81t-10 -66q-54 -82 -117.5 -208t-124 -268.5t-109.5 -289t-75.5 -268t-23.5 -205.5t50 -103q33 -14 72 12.5t80 78t79.5 120t75.5 141t67 142t52 121.5q43 157 96.5 315t102.5 290t87 226t50 123zM1645 1628
q-23 -27 -56.5 -57.5t-69 -56.5t-72.5 -47t-70 -30q-55 -16 -75.5 2.5t17.5 62.5q33 38 49.5 66.5t27.5 51.5t24 45t44 47q35 31 79.5 34.5t77.5 -11.5t43.5 -44t-19.5 -63zM929 1821q27 24 60.5 45t50 46.5t2.5 46.5q-4 7 -14 12t-23 3t-26.5 -10.5t-24.5 -27.5
q-16 -22 -32.5 -30t-30 -7.5t-20 13t3.5 38.5q17 44 60 74.5t93.5 43.5t97 4.5t69.5 -47.5q13 -25 3.5 -53.5t-37 -59.5t-65 -57t-55.5 -37.5t-44 -39.5q-5 -45 -36 -50t-46.5 7t-11.5 38.5t26 47.5z" />
    <glyph glyph-name=".notdef.014" unicode="&#x1eed;" horiz-adv-x="991" 
d="M690 965q23 51 77 54t108.5 -24.5t89 -78t20.5 -105.5q-10 -37 -46 -101.5t-80 -140t-90 -153.5t-76.5 -139.5t-38 -99.5t23.5 -36q47 4 91 40t82 87t68.5 108.5t51.5 102.5q20 45 48 61.5t50.5 8.5t30.5 -39t-13 -82q-20 -51 -60 -125t-96.5 -141.5t-129 -115.5
t-158.5 -48q-49 0 -81 21.5t-48 58.5t-20.5 88t0.5 110q-35 -61 -77 -117.5t-90 -95t-101.5 -58t-110.5 -7.5q-74 14 -110 64.5t-43 125t11.5 171t53 202t84 216t104.5 216.5q18 37 50 46.5t66 -1t67.5 -37t56 -59.5t30 -68.5t-7.5 -64.5q-37 -66 -80 -138.5t-84 -144
t-76.5 -138t-57 -119t-23.5 -88.5t24 -44q35 -12 74 10.5t78 67.5t75.5 106.5t69.5 124t58.5 121t42.5 99.5q32 102 64 183t48 116zM1172 966q-23 -27 -56.5 -57.5t-69 -56.5t-72.5 -47t-70 -30q-55 -16 -75.5 2.5t17.5 62.5q33 38 49.5 66.5t27.5 51.5t24 45t44 47
q35 31 79.5 34.5t77.5 -11.5t43.5 -44t-19.5 -63zM601 1187q27 24 60.5 45t50 46.5t2.5 46.5q-4 7 -14 12t-23 3t-26.5 -10.5t-24.5 -27.5q-16 -22 -32.5 -30t-30 -7.5t-20 13t3.5 38.5q17 44 60 74.5t93.5 43.5t97 4.5t69.5 -47.5q13 -25 3.5 -53.5t-37 -59.5t-65 -57
t-55.5 -37.5t-44 -39.5q-5 -45 -36 -50t-46.5 7t-11.5 38.5t26 47.5z" />
    <glyph glyph-name=".notdef.079" unicode="&#x1eee;" horiz-adv-x="1190" 
d="M1110 1622q14 35 47 44t72 -1t79 -34.5t70.5 -58.5t46 -72t5.5 -75q-9 -28 -42.5 -101t-84 -174t-109.5 -221t-117.5 -242t-108.5 -234.5t-82 -200.5t-40 -140.5t20 -52.5q47 0 98.5 49.5t99.5 118t86 141t58 117.5q19 45 47.5 60.5t52 5.5t33 -42t-9.5 -83
q-14 -35 -39.5 -85t-61.5 -107.5t-81 -114t-96.5 -101.5t-106.5 -73.5t-112 -28.5q-50 0 -80.5 24.5t-47 69.5t-19.5 107.5t3 138.5q-35 -68 -76 -129t-88 -109.5t-99 -76t-110 -27.5q-90 0 -145 51t-80.5 140.5t-24.5 208t21.5 255t59 282.5t89 288.5t108.5 274.5t120 239
q20 37 55 40t72 -16.5t72.5 -56.5t60.5 -78t33 -81t-10 -66q-54 -82 -117.5 -208t-124 -268.5t-109.5 -289t-75.5 -268t-23.5 -205.5t50 -103q33 -14 72 12.5t80 78t79.5 120t75.5 141t67 142t52 121.5q43 157 96.5 315t102.5 290t87 226t50 123zM1645 1628
q-23 -27 -56.5 -57.5t-69 -56.5t-72.5 -47t-70 -30q-55 -16 -75.5 2.5t17.5 62.5q33 38 49.5 66.5t27.5 51.5t24 45t44 47q35 31 79.5 34.5t77.5 -11.5t43.5 -44t-19.5 -63zM791 1862q47 39 87 50t76 6.5t65.5 -17t56 -23t49 -11t43.5 19.5q30 32 56 35.5t36 -11.5t1 -45.5
t-48 -71.5q-43 -44 -83 -58t-75.5 -12t-68 14t-61.5 24t-55.5 15.5t-48.5 -14.5q-43 -29 -69 -31.5t-32.5 14t10 48t61.5 68.5z" />
    <glyph glyph-name=".notdef.013" unicode="&#x1eef;" horiz-adv-x="991" 
d="M690 965q23 51 77 54t108.5 -24.5t89 -78t20.5 -105.5q-10 -37 -46 -101.5t-80 -140t-90 -153.5t-76.5 -139.5t-38 -99.5t23.5 -36q47 4 91 40t82 87t68.5 108.5t51.5 102.5q20 45 48 61.5t50.5 8.5t30.5 -39t-13 -82q-20 -51 -60 -125t-96.5 -141.5t-129 -115.5
t-158.5 -48q-49 0 -81 21.5t-48 58.5t-20.5 88t0.5 110q-35 -61 -77 -117.5t-90 -95t-101.5 -58t-110.5 -7.5q-74 14 -110 64.5t-43 125t11.5 171t53 202t84 216t104.5 216.5q18 37 50 46.5t66 -1t67.5 -37t56 -59.5t30 -68.5t-7.5 -64.5q-37 -66 -80 -138.5t-84 -144
t-76.5 -138t-57 -119t-23.5 -88.5t24 -44q35 -12 74 10.5t78 67.5t75.5 106.5t69.5 124t58.5 121t42.5 99.5q32 102 64 183t48 116zM1172 966q-23 -27 -56.5 -57.5t-69 -56.5t-72.5 -47t-70 -30q-55 -16 -75.5 2.5t17.5 62.5q33 38 49.5 66.5t27.5 51.5t24 45t44 47
q35 31 79.5 34.5t77.5 -11.5t43.5 -44t-19.5 -63zM453 1221q47 39 87 50t76 6.5t65.5 -17t56 -23t49 -11t43.5 19.5q30 32 56 35.5t36 -11.5t1 -45.5t-48 -71.5q-43 -44 -83 -58t-75.5 -12t-68 14t-61.5 24t-55.5 15.5t-48.5 -14.5q-43 -29 -69 -31.5t-32.5 14t10 48
t61.5 68.5z" />
    <glyph glyph-name=".notdef.078" unicode="&#x1ef0;" horiz-adv-x="1190" 
d="M1110 1622q14 35 47 44t72 -1t79 -34.5t70.5 -58.5t46 -72t5.5 -75q-9 -28 -42.5 -101t-84 -174t-109.5 -221t-117.5 -242t-108.5 -234.5t-82 -200.5t-40 -140.5t20 -52.5q47 0 98.5 49.5t99.5 118t86 141t58 117.5q19 45 47.5 60.5t52 5.5t33 -42t-9.5 -83
q-14 -35 -39.5 -85t-61.5 -107.5t-81 -114t-96.5 -101.5t-106.5 -73.5t-112 -28.5q-50 0 -80.5 24.5t-47 69.5t-19.5 107.5t3 138.5q-35 -68 -76 -129t-88 -109.5t-99 -76t-110 -27.5q-90 0 -145 51t-80.5 140.5t-24.5 208t21.5 255t59 282.5t89 288.5t108.5 274.5t120 239
q20 37 55 40t72 -16.5t72.5 -56.5t60.5 -78t33 -81t-10 -66q-54 -82 -117.5 -208t-124 -268.5t-109.5 -289t-75.5 -268t-23.5 -205.5t50 -103q33 -14 72 12.5t80 78t79.5 120t75.5 141t67 142t52 121.5q43 157 96.5 315t102.5 290t87 226t50 123zM1645 1628
q-23 -27 -56.5 -57.5t-69 -56.5t-72.5 -47t-70 -30q-55 -16 -75.5 2.5t17.5 62.5q33 38 49.5 66.5t27.5 51.5t24 45t44 47q35 31 79.5 34.5t77.5 -11.5t43.5 -44t-19.5 -63zM299 -270q10 55 52.5 93.5t90.5 38.5q49 0 75.5 -38.5t16.5 -93.5q-12 -54 -54.5 -92.5
t-90.5 -38.5q-49 0 -75.5 38.5t-14.5 92.5z" />
    <glyph glyph-name=".notdef.012" unicode="&#x1ef1;" horiz-adv-x="991" 
d="M690 965q23 51 77 54t108.5 -24.5t89 -78t20.5 -105.5q-10 -37 -46 -101.5t-80 -140t-90 -153.5t-76.5 -139.5t-38 -99.5t23.5 -36q47 4 91 40t82 87t68.5 108.5t51.5 102.5q20 45 48 61.5t50.5 8.5t30.5 -39t-13 -82q-20 -51 -60 -125t-96.5 -141.5t-129 -115.5
t-158.5 -48q-49 0 -81 21.5t-48 58.5t-20.5 88t0.5 110q-35 -61 -77 -117.5t-90 -95t-101.5 -58t-110.5 -7.5q-74 14 -110 64.5t-43 125t11.5 171t53 202t84 216t104.5 216.5q18 37 50 46.5t66 -1t67.5 -37t56 -59.5t30 -68.5t-7.5 -64.5q-37 -66 -80 -138.5t-84 -144
t-76.5 -138t-57 -119t-23.5 -88.5t24 -44q35 -12 74 10.5t78 67.5t75.5 106.5t69.5 124t58.5 121t42.5 99.5q32 102 64 183t48 116zM1172 966q-23 -27 -56.5 -57.5t-69 -56.5t-72.5 -47t-70 -30q-55 -16 -75.5 2.5t17.5 62.5q33 38 49.5 66.5t27.5 51.5t24 45t44 47
q35 31 79.5 34.5t77.5 -11.5t43.5 -44t-19.5 -63zM109 -192q10 55 52.5 93.5t90.5 38.5q49 0 75.5 -38.5t16.5 -93.5q-12 -54 -54.5 -92.5t-90.5 -38.5q-49 0 -75.5 38.5t-14.5 92.5z" />
    <glyph glyph-name=".notdef.071" unicode="&#x1ef2;" horiz-adv-x="856" 
d="M854 1604q23 51 70 51t91 -33t70.5 -87t12.5 -110q-8 -26 -37 -99t-73 -174t-100.5 -226t-122 -256t-136 -261t-142.5 -243q43 8 100.5 27.5t118 55.5t118 92t102.5 140q20 37 47.5 53.5t49 10.5t30 -33t-10.5 -74q-28 -71 -82.5 -133.5t-124 -115t-146.5 -94.5
t-147.5 -72.5t-129 -50t-90.5 -27.5q-13 -2 -21 0q-18 0 -35.5 10t-26 28.5t-6 44t20.5 54.5q41 65 84 150t84 180.5t82 199t80 207.5q-72 -96 -153 -153.5t-169 -38.5q-74 14 -109.5 64t-42 125t11 170t53.5 200.5t85 217.5t102 218q19 37 50.5 46t65.5 -1t68 -36.5
t56.5 -59.5t30.5 -69t-8 -64q-54 -101 -121.5 -212.5t-119.5 -209.5t-73.5 -167t17.5 -83q34 -12 74 10.5t81 67.5t80 104.5t74 122t63.5 120.5t47.5 99q40 121 67 204t39 110zM645 2031q25 -10 72.5 -33t104.5 -57t116 -74t108 -83q18 -17 19.5 -34t-9 -29.5t-28.5 -18
t-36 2.5q-42 21 -94.5 37t-103 29.5t-92.5 26t-66 27.5q-27 21 -42 59.5t-16 75.5t15 60t52 11z" />
    <glyph glyph-name=".notdef.005" unicode="&#x1ef3;" horiz-adv-x="946" 
d="M698 977q13 35 39.5 44t58 1t63.5 -30.5t54.5 -54.5t31.5 -67.5t-5 -68.5q-10 -23 -36.5 -88.5t-67.5 -157.5t-94.5 -203.5t-116.5 -226.5q61 39 113.5 85t95.5 93t75.5 93t51.5 87q18 39 44.5 52.5t48 5t32 -34t-4.5 -62.5q-18 -45 -58 -111.5t-109.5 -139t-168 -141
t-233.5 -118.5q-70 -108 -146.5 -203.5t-158.5 -160t-166 -91t-168 0.5q-84 26 -116.5 89.5t8 140.5t165.5 154t357 132q8 12 14 25.5t12 27.5q-43 -33 -92 -47t-102 -4q-74 14 -110 64.5t-43 125t11.5 171t53.5 202t84 216t104 216.5q19 37 50.5 46.5t65.5 -1t67.5 -37
t56 -59.5t30 -68.5t-7.5 -64.5q-37 -66 -80 -138.5t-84 -144t-76.5 -138t-57 -119t-23.5 -88.5t24 -44q45 -16 94.5 24t97.5 107.5t91 150.5t76 154q37 95 75.5 195t79.5 209zM-76 -397q60 -25 129.5 40.5t153.5 206.5q-119 -34 -188.5 -73t-100.5 -74t-26.5 -61.5
t32.5 -38.5zM444 1405q25 -10 72.5 -33t104.5 -57t116 -74t108 -83q18 -17 19.5 -34t-9 -29.5t-28.5 -18t-36 2.5q-42 21 -94.5 37t-103 29.5t-92.5 26t-66 27.5q-27 21 -42 59.5t-16 75.5t15 60t52 11z" />
    <glyph glyph-name=".notdef.067" unicode="&#x1ef4;" horiz-adv-x="918" 
d="M854 1604q23 51 70 51t91 -33t70.5 -87t12.5 -110q-8 -26 -37 -99t-73 -174t-100.5 -226t-122 -256t-136 -261t-142.5 -243q43 8 100.5 27.5t118 55.5t118 92t102.5 140q20 37 47.5 53.5t49 10.5t30 -33t-10.5 -74q-28 -71 -82.5 -133.5t-124 -115t-146.5 -94.5
t-147.5 -72.5t-129 -50t-90.5 -27.5q-13 -2 -21 0q-18 0 -35.5 10t-26 28.5t-6 44t20.5 54.5q41 65 84 150t84 180.5t82 199t80 207.5q-72 -96 -153 -153.5t-169 -38.5q-74 14 -109.5 64t-42 125t11 170t53.5 200.5t85 217.5t102 218q19 37 50.5 46t65.5 -1t68 -36.5
t56.5 -59.5t30.5 -69t-8 -64q-54 -101 -121.5 -212.5t-119.5 -209.5t-73.5 -167t17.5 -83q34 -12 74 10.5t81 67.5t80 104.5t74 122t63.5 120.5t47.5 99q40 121 67 204t39 110zM128 -267q10 55 52.5 93.5t90.5 38.5q49 0 75.5 -38.5t16.5 -93.5q-12 -54 -54.5 -92.5
t-90.5 -38.5q-49 0 -75.5 38.5t-14.5 92.5z" />
    <glyph glyph-name=".notdef.001" unicode="&#x1ef5;" horiz-adv-x="950" 
d="M698 977q13 35 39.5 44t58 1t63.5 -30.5t54.5 -54.5t31.5 -67.5t-5 -68.5q-10 -23 -36.5 -88.5t-67.5 -157.5t-94.5 -203.5t-116.5 -226.5q61 39 113.5 85t95.5 93t75.5 93t51.5 87q18 39 44.5 52.5t48 5t32 -34t-4.5 -62.5q-18 -45 -58 -111.5t-109.5 -139t-168 -141
t-233.5 -118.5q-70 -108 -146.5 -203.5t-158.5 -160t-166 -91t-168 0.5q-84 26 -116.5 89.5t8 140.5t165.5 154t357 132q8 12 14 25.5t12 27.5q-43 -33 -92 -47t-102 -4q-74 14 -110 64.5t-43 125t11.5 171t53.5 202t84 216t104 216.5q19 37 50.5 46.5t65.5 -1t67.5 -37
t56 -59.5t30 -68.5t-7.5 -64.5q-37 -66 -80 -138.5t-84 -144t-76.5 -138t-57 -119t-23.5 -88.5t24 -44q33 -12 69 7.5t71.5 59.5t71.5 93t67 113q36 67 72 146q78 195 163 421zM505 -243q10 55 52.5 93.5t90.5 38.5q49 0 75.5 -38.5t16.5 -93.5q-12 -54 -54.5 -92.5
t-90.5 -38.5q-49 0 -75.5 38.5t-14.5 92.5zM-76 -397q60 -25 129.5 40.5t153.5 206.5q-119 -34 -188.5 -73t-100.5 -74t-26.5 -61.5t32.5 -38.5z" />
    <glyph glyph-name=".notdef.069" unicode="&#x1ef6;" horiz-adv-x="918" 
d="M854 1604q23 51 70 51t91 -33t70.5 -87t12.5 -110q-8 -26 -37 -99t-73 -174t-100.5 -226t-122 -256t-136 -261t-142.5 -243q43 8 100.5 27.5t118 55.5t118 92t102.5 140q20 37 47.5 53.5t49 10.5t30 -33t-10.5 -74q-28 -71 -82.5 -133.5t-124 -115t-146.5 -94.5
t-147.5 -72.5t-129 -50t-90.5 -27.5q-13 -2 -21 0q-18 0 -35.5 10t-26 28.5t-6 44t20.5 54.5q41 65 84 150t84 180.5t82 199t80 207.5q-72 -96 -153 -153.5t-169 -38.5q-74 14 -109.5 64t-42 125t11 170t53.5 200.5t85 217.5t102 218q19 37 50.5 46t65.5 -1t68 -36.5
t56.5 -59.5t30.5 -69t-8 -64q-54 -101 -121.5 -212.5t-119.5 -209.5t-73.5 -167t17.5 -83q34 -12 74 10.5t81 67.5t80 104.5t74 122t63.5 120.5t47.5 99q40 121 67 204t39 110zM757 1821q27 24 60.5 45t50 46.5t2.5 46.5q-4 7 -14 12t-23 3t-26.5 -10.5t-24.5 -27.5
q-16 -22 -32.5 -30t-30 -7.5t-20 13t3.5 38.5q17 44 60 74.5t93.5 43.5t97 4.5t69.5 -47.5q13 -25 3.5 -53.5t-37 -59.5t-65 -57t-55.5 -37.5t-44 -39.5q-5 -45 -36 -50t-46.5 7t-11.5 38.5t26 47.5z" />
    <glyph glyph-name=".notdef.003" unicode="&#x1ef7;" horiz-adv-x="950" 
d="M698 977q13 35 39.5 44t58 1t63.5 -30.5t54.5 -54.5t31.5 -67.5t-5 -68.5q-10 -23 -36.5 -88.5t-67.5 -157.5t-94.5 -203.5t-116.5 -226.5q61 39 113.5 85t95.5 93t75.5 93t51.5 87q18 39 44.5 52.5t48 5t32 -34t-4.5 -62.5q-18 -45 -58 -111.5t-109.5 -139t-168 -141
t-233.5 -118.5q-70 -108 -146.5 -203.5t-158.5 -160t-166 -91t-168 0.5q-84 26 -116.5 89.5t8 140.5t165.5 154t357 132q8 12 14 25.5t12 27.5q-43 -33 -92 -47t-102 -4q-74 14 -110 64.5t-43 125t11.5 171t53.5 202t84 216t104 216.5q19 37 50.5 46.5t65.5 -1t67.5 -37
t56 -59.5t30 -68.5t-7.5 -64.5q-37 -66 -80 -138.5t-84 -144t-76.5 -138t-57 -119t-23.5 -88.5t24 -44q33 -12 69 7.5t71.5 59.5t71.5 93t67 113q36 67 72 146q78 195 163 421zM601 1187q27 24 60.5 45t50 46.5t2.5 46.5q-4 7 -14 12t-23 3t-26.5 -10.5t-24.5 -27.5
q-16 -22 -32.5 -30t-30 -7.5t-20 13t3.5 38.5q17 44 60 74.5t93.5 43.5t97 4.5t69.5 -47.5q13 -25 3.5 -53.5t-37 -59.5t-65 -57t-55.5 -37.5t-44 -39.5q-5 -45 -36 -50t-46.5 7t-11.5 38.5t26 47.5zM-76 -397q60 -25 129.5 40.5t153.5 206.5q-119 -34 -188.5 -73
t-100.5 -74t-26.5 -61.5t32.5 -38.5z" />
    <glyph glyph-name=".notdef.068" unicode="&#x1ef8;" horiz-adv-x="918" 
d="M854 1604q23 51 70 51t91 -33t70.5 -87t12.5 -110q-8 -26 -37 -99t-73 -174t-100.5 -226t-122 -256t-136 -261t-142.5 -243q43 8 100.5 27.5t118 55.5t118 92t102.5 140q20 37 47.5 53.5t49 10.5t30 -33t-10.5 -74q-28 -71 -82.5 -133.5t-124 -115t-146.5 -94.5
t-147.5 -72.5t-129 -50t-90.5 -27.5q-13 -2 -21 0q-18 0 -35.5 10t-26 28.5t-6 44t20.5 54.5q41 65 84 150t84 180.5t82 199t80 207.5q-72 -96 -153 -153.5t-169 -38.5q-74 14 -109.5 64t-42 125t11 170t53.5 200.5t85 217.5t102 218q19 37 50.5 46t65.5 -1t68 -36.5
t56.5 -59.5t30.5 -69t-8 -64q-54 -101 -121.5 -212.5t-119.5 -209.5t-73.5 -167t17.5 -83q34 -12 74 10.5t81 67.5t80 104.5t74 122t63.5 120.5t47.5 99q40 121 67 204t39 110zM616 1856q47 39 87 50t76 6.5t65.5 -17t56 -23t49 -11t43.5 19.5q30 32 56 35.5t36 -11.5
t1 -45.5t-48 -71.5q-43 -44 -83 -58t-75.5 -12t-68 14t-61.5 24t-55.5 15.5t-48.5 -14.5q-43 -29 -69 -31.5t-32.5 14t10 48t61.5 68.5z" />
    <glyph glyph-name=".notdef.002" unicode="&#x1ef9;" horiz-adv-x="950" 
d="M698 977q13 35 39.5 44t58 1t63.5 -30.5t54.5 -54.5t31.5 -67.5t-5 -68.5q-10 -23 -36.5 -88.5t-67.5 -157.5t-94.5 -203.5t-116.5 -226.5q61 39 113.5 85t95.5 93t75.5 93t51.5 87q18 39 44.5 52.5t48 5t32 -34t-4.5 -62.5q-18 -45 -58 -111.5t-109.5 -139t-168 -141
t-233.5 -118.5q-70 -108 -146.5 -203.5t-158.5 -160t-166 -91t-168 0.5q-84 26 -116.5 89.5t8 140.5t165.5 154t357 132q8 12 14 25.5t12 27.5q-43 -33 -92 -47t-102 -4q-74 14 -110 64.5t-43 125t11.5 171t53.5 202t84 216t104 216.5q19 37 50.5 46.5t65.5 -1t67.5 -37
t56 -59.5t30 -68.5t-7.5 -64.5q-37 -66 -80 -138.5t-84 -144t-76.5 -138t-57 -119t-23.5 -88.5t24 -44q33 -12 69 7.5t71.5 59.5t71.5 93t67 113q36 67 72 146q78 195 163 421zM-76 -397q60 -25 129.5 40.5t153.5 206.5q-119 -34 -188.5 -73t-100.5 -74t-26.5 -61.5
t32.5 -38.5zM450 1230q47 39 87 50t76 6.5t65.5 -17t56 -23t49 -11t43.5 19.5q30 32 56 35.5t36 -11.5t1 -45.5t-48 -71.5q-43 -44 -83 -58t-75.5 -12t-68 14t-61.5 24t-55.5 15.5t-48.5 -14.5q-43 -29 -69 -31.5t-32.5 14t10 48t61.5 68.5z" />
    <glyph glyph-name="quoteleft" unicode="&#x2018;" horiz-adv-x="485" 
d="M168 987q2 37 23.5 89t53 116.5t70.5 140.5t76 160q15 31 38.5 36t44 -5.5t31.5 -33t1 -48.5q-23 -58 -31 -115t-13 -110.5t-9 -102.5t-17 -88q-14 -43 -60 -72.5t-93 -39t-83 7t-32 65.5z" />
    <glyph glyph-name="quoteright" unicode="&#x2019;" horiz-adv-x="451" 
d="M520 1440q-4 -37 -24.5 -89.5t-52 -117t-70.5 -141t-76 -158.5q-14 -31 -37.5 -36t-44 5t-32 32.5t-1.5 49.5q23 57 31 114.5t13 111t9.5 101.5t16.5 89q14 43 60 72.5t93.5 39t83 -7t31.5 -65.5z" />
    <glyph glyph-name="quotedblleft" unicode="&#x201c;" horiz-adv-x="793" 
d="M475 987q2 37 23.5 89t53.5 116.5t71 140.5t75 160q15 31 38.5 36t44 -5.5t31.5 -33t1 -48.5q-22 -58 -30.5 -115t-13.5 -110.5t-9 -102.5t-17 -88q-14 -43 -60 -72.5t-93 -39t-83 7t-32 65.5zM168 987q2 37 23.5 89t53 116.5t70.5 140.5t76 160q15 31 38.5 36t44 -5.5
t31.5 -33t1 -48.5q-23 -58 -31 -115t-13 -110.5t-9 -102.5t-17 -88q-14 -43 -60 -72.5t-93 -39t-83 7t-32 65.5z" />
    <glyph glyph-name="quotedblright" unicode="&#x201d;" horiz-adv-x="727" 
d="M520 1440q-4 -37 -24.5 -89.5t-52 -117t-70.5 -141t-76 -158.5q-14 -31 -37.5 -36t-44 5t-32 32.5t-1.5 49.5q23 57 31 114.5t13 111t9.5 101.5t16.5 89q14 43 60 72.5t93.5 39t83 -7t31.5 -65.5zM827 1440q-4 -37 -24.5 -89.5t-52 -117t-70.5 -141t-76 -158.5
q-14 -31 -37.5 -36t-44 5t-32 32.5t-1.5 49.5q23 57 31 114.5t13.5 111t9.5 101.5t16 89q14 43 60.5 72.5t93.5 39t82.5 -7t31.5 -65.5z" />
    <glyph glyph-name="ellipsis" unicode="&#x2026;" horiz-adv-x="1376" 
d="M299 125q0 -49 -35 -84t-84 -35t-84 35t-35 84t35 84t84 35t84 -35t35 -84zM758 125q0 -49 -35 -84t-84 -35t-84 35t-35 84t35 84t84 35t84 -35t35 -84zM1217 125q0 -49 -35 -84t-84 -35t-84 35t-35 84t35 84t84 35t84 -35t35 -84z" />
    <glyph glyph-name="ugrave" horiz-adv-x="582" 
 />
    <glyph glyph-name="uacute" horiz-adv-x="580" 
 />
    <glyph glyph-name="yacute" horiz-adv-x="629" 
 />
    </font>
</defs>
</svg>
