<svg id="Layer_1" data-name="Layer 1" xmlns="http://www.w3.org/2000/svg" viewBox="0 0 49.74 49.37"><defs><style>.cls-1{fill:#eaeaea;}.cls-2,.cls-3{fill:none;stroke:#7f7f7f;stroke-linejoin:bevel;}.cls-2{stroke-width:0.69px;}.cls-3{stroke-width:0.35px;}</style></defs><title>HP Diamonds</title><path class="cls-1" d="M24.24,0.25c-9.7,0-17.56,7-17.56,15.72,0,21,17.56,32.65,17.56,32.65S41.79,36.86,41.79,16C41.79,7.29,33.93.25,24.24,0.25ZM36.69,24.07l-5.6,4.56L27.68,39.08l-3.76-3.56L21.21,39l-3.42-10s-5.56-4.68-5.68-4.81,2.1-5.69,2.1-5.69l-3.06-6.11,4.8-1.63,2.19-5.4L24.59,8.4,31,5.08l1.45,5.61,5.13,1.85,0.2,0.07-3.45,6Z"/><path class="cls-2" d="M42,16c0,20.89-17.56,32.65-17.56,32.65S6.9,36.95,6.9,16C6.9,7.29,14.76.25,24.46,0.25S42,7.29,42,16Z"/><polygon class="cls-3" points="24.46 0.26 18.16 5.34 24.46 8.36 31.01 5.31 24.46 0.26"/><polyline class="cls-3" points="40.91 10.47 37.72 12.52 38.1 6.08 31.01 5.31"/><polygon class="cls-3" points="37.72 12.52 32.45 10.61 34.27 18.54 37.72 12.52"/><polyline class="cls-3" points="37.72 12.52 41.96 17.96 36.61 23.97 30.98 28.65 23.97 35.55 17.71 28.84 17.71 28.84 12.03 24.03 6.98 18.34 10.9 12.24 14.17 18.15 16.36 10.46"/><polyline class="cls-3" points="15.79 2.3 18.16 5.34 16.36 10.46 24.46 8.36 32.45 10.61 31.01 5.31 32.69 2.08"/><polyline class="cls-3" points="7.95 10.61 10.9 12.24 10.58 6.35"/><polyline class="cls-3" points="14.13 18.34 24.46 48.62 34.27 18.54 36.61 23.97"/><path class="cls-3" d="M8.08,25.21c0,0.1,4-1.18,4-1.18l0.15,11,8.95,3.8L17.9,42.76"/><polyline class="cls-3" points="40.73 25.6 36.61 23.97 36.84 34.85 27.61 38.98 30.74 43.04"/><polyline class="cls-3" points="21.13 38.86 23.97 35.55 27.61 38.98"/><line class="cls-3" x1="12.03" y1="24.03" x2="14.17" y2="18.15"/><line class="cls-3" x1="10.9" y1="12.24" x2="16.35" y2="10.46"/><polyline class="cls-3" points="24.46 8.36 18.16 5.34 10.9 5.99"/></svg>