<svg id="Layer_1" data-name="Layer 1" xmlns="http://www.w3.org/2000/svg" viewBox="0 0 50 50"><defs><style>.cls-1,.cls-2{fill:#eaeaea;stroke-linejoin:bevel;}.cls-1,.cls-2,.cls-3{stroke:#7f7f7f;}.cls-1{stroke-width:0.68px;}.cls-2,.cls-3{stroke-width:0.34px;}.cls-3{fill:#fff;stroke-miterlimit:10;}</style></defs><title>Untitled-1</title><path class="cls-1" d="M39.34,49.85H12.48A0.8,0.8,0,0,1,12,49.71L8.28,47.13A0.62,0.62,0,0,1,8,46.62V4.05A0.63,0.63,0,0,1,8.3,3.52L12.36,1A0.81,0.81,0,0,1,12.79.84H39.86a0.81,0.81,0,0,1,.43.12L44,3.3a0.63,0.63,0,0,1,.31.53V46.09a0.62,0.62,0,0,1-.26.5L39.81,49.7A0.8,0.8,0,0,1,39.34,49.85Z"/><polygon class="cls-2" points="37.77 46.78 14.12 46.78 10.47 44.22 10.47 6.3 14.4 3.78 38.19 3.78 41.8 6.11 41.8 43.75 37.77 46.78"/><polygon class="cls-3" points="35.93 43.73 16.02 43.73 12.95 41.52 12.95 8.69 16.26 6.51 36.28 6.51 39.32 8.52 39.32 41.11 35.93 43.73"/><rect class="cls-3" x="16.23" y="10" width="19.82" height="31"/></svg>