<svg id="Layer_1" data-name="Layer 1" xmlns="http://www.w3.org/2000/svg" viewBox="0 0 49.74 49.37"><defs><style>.cls-1{fill:#eaeaea;}.cls-2,.cls-3{fill:none;stroke:#787878;stroke-linejoin:bevel;}.cls-2{stroke-width:0.35px;}.cls-3{stroke-width:0.69px;}</style></defs><title>HP Diamonds</title><path class="cls-1" d="M43.06,1H8.25L3,5.94V43.23L8.25,49H43.06L48,44V5.18ZM42.64,40l-6.16-.89,2.11,5.19-13-3.53L12.23,44.11l2.18-5-6,.81,5.25-15.1L8.38,9.54l6,0.81L12.3,5.46,25.12,8.63,38.49,5.46s-2.32,5-2,4.89L43,9.19,37.3,24.59Z"/><polyline class="cls-2" points="8.38 24.27 8.38 9.54 11.63 5.46 38.49 5.46 42.96 8.93 42.96 24.27"/><line class="cls-2" x1="3.26" y1="5.94" x2="8.38" y2="9.54"/><polyline class="cls-2" points="12.35 5.58 25.12 8.63 14.41 10.35 13.62 24.78 8.38 9.54 14.41 10.35 12.23 5.32 8.26 0.68"/><line class="cls-2" x1="48.08" y1="5.18" x2="42.96" y2="9.19"/><polyline class="cls-2" points="38.49 5.46 25.12 8.63 36.48 10.35 37.3 24.59 42.96 9.04 36.48 10.35 38.66 5.32 43.06 0.68"/><polyline class="cls-3" points="3.26 23.96 3.26 42.29 8.26 48.74 43.06 48.74 48.08 44.24 48.08 24.27"/><polyline class="cls-2" points="8.38 24.08 8.38 39.88 12.23 44.1 38.59 44.26 42.64 39.96 42.96 24.27"/><line class="cls-2" x1="3.26" y1="42.29" x2="8.38" y2="39.88"/><polyline class="cls-2" points="12.23 44.1 25.67 40.76 14.41 39.07 13.62 24.78 8.38 39.88 14.41 39.07 12.23 44.1 8.26 48.74"/><line class="cls-2" x1="48.08" y1="44.24" x2="42.51" y2="39.88"/><polyline class="cls-2" points="38.66 44.1 25.54 40.73 36.48 39.07 37.3 24.59 42.51 39.88 36.48 39.07 38.66 44.1 42.64 48.74"/><polyline class="cls-3" points="3.26 24.27 3.26 5.94 8.58 0.51 43.06 0.68 48.09 5.17 48.08 24.59"/></svg>