<svg id="Layer_1" data-name="Layer 1" xmlns="http://www.w3.org/2000/svg" viewBox="0 0 49.74 49.37"><defs><style>.cls-1,.cls-2{fill:#eaeaea;}.cls-1,.cls-2,.cls-3{stroke:#7f7f7f;stroke-linejoin:bevel;}.cls-1{stroke-width:0.81px;}.cls-2,.cls-3{stroke-width:0.41px;}.cls-3{fill:#fff;}</style></defs><title>HP_diamonds_cushion</title><rect class="cls-1" x="0.41" y="0.41" width="48.92" height="48.56" rx="17.11" ry="17.11"/><path class="cls-2" d="M0.66,27L6.4,19.94,4.17,8.2l10.36-.65s11.16-6,11.35-6S36,7.24,36,7.24L47,9.4l-2,9,4.64,7.48-4.64,8.38L44.6,44.58l-10.29.48L26,50.13,17.35,45.2,5.14,44.68l2.5-10.12L0.66,27" transform="translate(-0.25 -1.17)"/><path class="cls-3" d="M14.68,7.27C15.13,7.4,25.12,12,25.12,12L36,7.27l0.3,7.93,8.69,3.19L39.7,26.85,44.94,34l-7.79,4.38-2.85,6.2-7.64-3.84-9.23,4.61-2-6.75L7.63,34.52l4.64-7.44L6.44,19.71l8.09-4.51Z" transform="translate(-0.25 -1.17)"/><polygon class="cls-3" points="14.28 14.03 24.87 10.85 36 14.03 39.45 25.68 36.9 37.21 26.41 39.58 15.17 37.43 12.03 25.91 14.28 14.03"/><line class="cls-3" x1="12.03" y1="1.5" x2="14.28" y2="6.5"/><line class="cls-3" x1="37.95" y1="1.59" x2="35.7" y2="6.1"/><line class="cls-3" x1="44.69" y1="17.22" x2="49.33" y2="18.41"/><line class="cls-3" x1="44.69" y1="32.83" x2="49.33" y2="32.2"/><line class="cls-3" x1="34.05" y1="43.41" x2="37.95" y2="47.78"/><line class="cls-3" x1="17.1" y1="43.91" x2="14.28" y2="48.17"/><line class="cls-3" x1="8.04" y1="32.93" x2="0.17" y2="32.02"/><line class="cls-3" x1="6.18" y1="18.54" x2="0.41" y2="19.8"/></svg>