<svg id="Layer_1" data-name="Layer 1" xmlns="http://www.w3.org/2000/svg" viewBox="0 0 50 50"><defs><style>.cls-1,.cls-4,.cls-7{fill:#fff;}.cls-2,.cls-3{fill:#eaeaea;}.cls-2,.cls-3,.cls-4,.cls-5,.cls-6,.cls-7{stroke:#7f7f7f;}.cls-2,.cls-3,.cls-4,.cls-5{stroke-linejoin:round;}.cls-2{stroke-width:0.58px;}.cls-3,.cls-4,.cls-5,.cls-6,.cls-7{stroke-width:0.29px;}.cls-5,.cls-6{fill:none;}.cls-6,.cls-7{stroke-miterlimit:10;}</style></defs><title>Untitled-1</title><polyline class="cls-1" points="17.03 12.31 25 10.34 33.61 12.36"/><path class="cls-2" d="M25,7.19A17.94,17.94,0,0,1,35.94,3.11c5.48,0,13.63,3.27,13.63,13.34C49.57,30.7,25,49.17,25,49.17S0.43,30.7.43,16.45C0.43,6.38,8.58,3.11,14.06,3.11A17.94,17.94,0,0,1,25,7.19Z"/><polygon class="cls-3" points="16.89 3.5 9.44 9.77 1.98 10.49 6.54 17.68 11.9 21.2 11.75 28.18 12.04 36.88 21.31 37.67 25 48.54 28.98 37.67 38.14 37.25 38.14 27.89 38.46 20.91 43.89 17.82 48.47 10.69 40.85 9.69 33.54 3.3 25 10.34 16.89 3.5"/><polygon class="cls-4" points="9.44 14.95 16.82 12.36 25 14.59 33.61 12.36 40.85 14.95 38.46 20.91 30.28 31.24 25 35.04 19.71 31.24 11.9 21.2 9.44 14.95"/><polygon class="cls-4" points="16.71 12.39 25 10.34 33.61 12.36 25 14.74 16.71 12.39"/><polygon class="cls-5" points="46.98 25.39 30.28 31.24 28.98 37.67 25 35.04 21.31 37.67 19.71 31.24 3.02 25.39 6.93 17.93 9.44 14.95 9.44 9.77 16.82 12.36 25 10.34 33.61 12.36 40.85 9.69 40.85 14.95 43.52 18.03 46.98 25.39"/><polyline class="cls-6" points="25 14.59 25 10.34 25 7.19"/><line class="cls-6" x1="28.98" y1="37.67" x2="33.24" y2="42.14"/><line class="cls-6" x1="21.31" y1="37.67" x2="16.76" y2="42.14"/><line class="cls-6" x1="40.85" y1="9.69" x2="43.14" y2="4.92"/><polygon class="cls-4" points="11.9 21.29 11.78 28.53 19.71 31.24 11.9 21.29"/><path class="cls-4" d="M38.46,20.92L30.37,31.12s7.77-2.64,7.77-2.64Z"/><polygon class="cls-4" points="28.35 32.63 25 35.04 19.73 31.32 21.29 37.62 25 35.04 28.98 37.57 30.27 31.32 28.35 32.63"/><polyline class="cls-6" points="9.44 14.95 16.71 12.39 9.44 9.77 7.48 4.92"/><path class="cls-7" d="M16.71,12.39S9.44,9.83,9.44,9.83l0.05,5Z"/><polyline class="cls-7" points="40.85 9.69 33.61 12.36 40.85 14.9 40.85 9.69"/></svg>