<svg id="Layer_1" data-name="Layer 1" xmlns="http://www.w3.org/2000/svg" viewBox="0 0 50 50"><defs><style>.cls-1,.cls-2{fill:#eaeaea;}.cls-1,.cls-2,.cls-3{stroke:#7f7f7f;stroke-miterlimit:10;}.cls-1{stroke-width:0.69px;}.cls-2,.cls-3{stroke-width:0.35px;}.cls-3{fill:#fff;}</style></defs><title>Untitled-1</title><ellipse class="cls-1" cx="25" cy="24.94" rx="24.34" ry="24.5"/><polyline class="cls-2" points="10.29 31.34 7.95 41.88 18.78 39.8"/><polyline class="cls-2" points="18.88 9.73 8.16 7.78 9.98 18.86"/><polyline class="cls-2" points="39.61 18.26 42.05 7.99 31.23 10.04"/><polyline class="cls-2" points="31.02 39.79 41.84 42.1 40.04 30.93"/><polyline class="cls-2" points="9.98 18.86 1.04 24.79 10.29 31.5"/><polyline class="cls-2" points="18.78 39.8 24.85 49.05 31.02 39.79"/><polyline class="cls-2" points="31.23 10.04 25.15 0.82 19.06 9.73"/><polyline class="cls-2" points="39.87 31 48.96 25.09 39.73 18.04"/><polygon class="cls-3" points="18.88 9.73 16.32 16.23 25.55 12.4 18.88 9.73"/><polygon class="cls-3" points="39.61 18.02 33.58 15.61 37.19 24.17 39.61 18.02"/><polygon class="cls-3" points="33.43 33.69 24.78 37.3 31.02 39.79 33.43 33.69"/><polygon class="cls-3" points="10.29 31.5 16.3 33.9 12.71 25.36 10.29 31.5"/><polygon class="cls-3" points="18.78 39.8 24.78 37.3 16.3 33.9 18.78 39.8"/><polygon class="cls-3" points="9.98 18.86 12.71 25.36 16.32 16.23 9.98 18.86"/><polygon class="cls-3" points="31.23 10.04 25.55 12.4 33.58 15.61 31.23 10.04"/><polygon class="cls-3" points="40.04 30.93 37.19 24.17 33.43 33.69 40.04 30.93"/><polygon class="cls-3" points="37.19 24.17 33.58 15.61 25.55 12.4 16.32 16.23 12.71 25.36 16.3 33.9 24.78 37.3 33.43 33.69 37.19 24.17"/><line class="cls-2" x1="19.06" y1="9.73" x2="15.85" y2="2.23"/><line class="cls-2" x1="31.11" y1="10.28" x2="34.8" y2="2.51"/><line class="cls-2" x1="39.61" y1="18.02" x2="47.24" y2="15.61"/><line class="cls-2" x1="39.87" y1="31" x2="47.36" y2="34.64"/><line class="cls-2" x1="31.02" y1="39.79" x2="34.27" y2="47.6"/><line class="cls-2" x1="18.78" y1="39.8" x2="15.29" y2="47.41"/><line class="cls-2" x1="10.29" y1="31.5" x2="2.43" y2="34.14"/><line class="cls-2" x1="9.98" y1="18.86" x2="2.49" y2="15.61"/></svg>