<svg id="Layer_1" data-name="Layer 1" xmlns="http://www.w3.org/2000/svg" viewBox="0 0 49.32 49.66"><defs><style>.cls-1,.cls-2,.cls-4{fill:#eaeaea;}.cls-1,.cls-2,.cls-3,.cls-4,.cls-5{stroke:#7f7f7f;}.cls-1,.cls-3{stroke-miterlimit:10;}.cls-1{stroke-width:0.75px;}.cls-2,.cls-5{stroke-linejoin:round;}.cls-2,.cls-3,.cls-4,.cls-5{stroke-width:0.38px;}.cls-3,.cls-5{fill:#fff;}.cls-4{stroke-linejoin:bevel;}</style></defs><title>Untitled-1</title><rect class="cls-1" x="0.38" y="0.38" width="48.57" height="48.91"/><polyline class="cls-2" points="12.95 34.87 13.63 41.98 0.38 49.28 7.09 34.18 12.95 34.8"/><polygon class="cls-3" points="24.22 11.87 23.92 11.91 24.22 12.03 24.53 11.91 24.22 11.87"/><polygon class="cls-3" points="24.73 36.87 24.85 36.86 24.73 36.8 24.61 36.86 24.73 36.87"/><polygon class="cls-4" points="24.53 11.91 24.22 12.03 36.63 13.72 42.52 14.52 42.49 15.75 48.94 0.38 36.09 7.51 36.63 13.56 24.53 11.91"/><polygon class="cls-4" points="12.54 13.67 24.22 12.03 23.92 11.91 12.54 13.51 13.16 7.51 12.87 7.4 0.38 0.38 6.43 14.52 6.43 14.52 12.54 13.67"/><polygon class="cls-4" points="42.08 34.98 36.75 35.54 24.73 36.8 24.85 36.86 36.75 35.61 36.07 42.72 48.63 49.28 42.08 34.98"/><polygon class="cls-3" points="6.43 14.52 6.97 34.69 7.33 34.73 11.28 25.47 6.43 14.52"/><polygon class="cls-3" points="11.28 25.47 7.33 34.73 12.37 35.33 11.28 25.47"/><polygon class="cls-3" points="12.54 13.67 6.43 14.52 6.43 14.52 11.28 25.47 12.54 13.67"/><polygon class="cls-3" points="42.08 34.98 42.08 34.98 42.49 15.75 37.73 25.47 42.08 34.98"/><polygon class="cls-3" points="36.63 13.72 37.73 25.47 42.49 15.75 42.52 14.52 36.63 13.72"/><polygon class="cls-3" points="36.75 35.54 42.08 34.98 37.73 25.47 36.75 35.54"/><polygon class="cls-3" points="24.22 12.03 13.16 7.51 12.54 13.67 24.22 12.03"/><polygon class="cls-3" points="24.15 12.06 36.65 13.9 36.09 7.51 35.99 7.54 24.15 12.06"/><polygon class="cls-3" points="36.63 13.72 24.22 12.03 12.54 13.67 11.28 25.47 12.37 35.33 24.73 36.8 36.75 35.54 37.73 25.47 36.63 13.72"/><polygon class="cls-5" points="13.04 42.05 13.04 42.05 36.06 42.56 24.43 36.56 13.04 42.05"/><polygon class="cls-5" points="12.37 35.33 13.04 42.05 24.43 36.56 12.37 35.33"/><polygon class="cls-5" points="35.99 7.54 36.09 7.51 12.87 7.4 24.29 12.1 35.99 7.54"/><path class="cls-3" d="M24.66,36.68l11.41,6,0.68-7.11-12.06.92A0.08,0.08,0,0,0,24.66,36.68Z"/></svg>