<svg id="Layer_1" data-name="Layer 1" xmlns="http://www.w3.org/2000/svg" viewBox="0 0 50 50"><defs><style>.cls-1,.cls-2,.cls-3{fill:#eaeaea;}.cls-1,.cls-2,.cls-3,.cls-4{stroke:#7f7f7f;}.cls-1,.cls-2,.cls-4{stroke-linejoin:bevel;}.cls-1{stroke-width:0.62px;}.cls-2,.cls-3,.cls-4{stroke-width:0.31px;}.cls-3{stroke-miterlimit:10;}.cls-4{fill:#fff;}</style></defs><title>Untitled-1</title><path class="cls-1" d="M39.23,24.21c0,15.3-14.3,25.33-14.3,25.33S10.63,40.26,10.63,25,24.93,0.31,24.93.31,39.23,8.91,39.23,24.21Z"/><polyline class="cls-2" points="11.92 18.11 14.58 18.52 10.63 24.97 14.58 31.68 11.94 31.88"/><polyline class="cls-2" points="15.77 40.37 25.33 44.69 33.51 40.53"/><polyline class="cls-2" points="21.88 46.83 25.33 44.69 27.67 46.88"/><polyline class="cls-3" points="16.08 9.42 25.03 5.67 22.12 2.87"/><polyline class="cls-2" points="28.36 3.2 25.03 5.67 34.22 9.39"/><polyline class="cls-2" points="38.12 18.11 36.07 18.68 39.23 24.21 36.07 30.71 37.92 31.06"/><path class="cls-4" d="M28.18,12.82L25,5.67a67.89,67.89,0,0,1-2.69,7.2l3-2.17Z"/><path class="cls-4" d="M14.58,31.68l7.44,5L17.3,25.15C15.75,28.89,14.58,31.68,14.58,31.68Z"/><polygon class="cls-4" points="33.51 24.89 28.84 36.18 36.07 30.71 33.51 24.89"/><path class="cls-4" d="M14.58,18.52l2.72,6.63c1.55-3.74,3.49-8.43,5-12.28Z"/><polygon class="cls-4" points="22.02 36.63 25.33 44.69 28.84 36.18 25.33 38.84 22.02 36.63"/><polygon class="cls-4" points="36.07 18.68 28.18 12.82 33.51 24.89 36.07 18.68"/><path class="cls-4" d="M28.18,12.82L25.33,10.7l-3,2.17c-1.55,3.85-3.48,8.54-5,12.28L22,36.64l3.31,2.2,3.52-2.66,4.66-11.29Z"/></svg>