<svg id="Layer_1" data-name="Layer 1" xmlns="http://www.w3.org/2000/svg" viewBox="0 0 49.74 49.37"><defs><style>.cls-1{fill:#eaeaea;}.cls-2,.cls-3{fill:none;stroke:#787878;stroke-linejoin:round;}.cls-2{stroke-width:0.35px;}.cls-3{stroke-width:0.69px;}</style></defs><title>HP Diamonds</title><polygon class="cls-1" points="25.27 48.43 12.21 48.43 0.74 38.79 0.74 26.19 8.69 26.12 8.61 33.89 16.34 40.6 25.44 40.6 25.27 48.43"/><path class="cls-1" d="M25.17,1.41H10.54L0.65,12.6V27.24L8.6,27.31,9,16.77,15.27,9s9.91,0.31,9.9.12C25.09,7.58,25.17,1.41,25.17,1.41Z"/><path class="cls-1" d="M24.26,48.43H37.86L49,38.74V24.11H41.21v9.8L33.3,40.68s-9-.15-8.92,0S24.26,48.43,24.26,48.43Z"/><path class="cls-1" d="M49.2,26.12V12.53L39.5,1.41H24.87V9.17h9.8l6.78,7.91s-0.15,9,0,8.92S49.2,26.12,49.2,26.12Z"/><polyline class="cls-2" points="24.65 13.1 32 13.1 37.29 19.33 37.29 26.01"/><polyline class="cls-2" points="24.65 9.17 34.52 9.17 41.23 16.91 41.23 26.01"/><polyline class="cls-2" points="24.65 5.31 36.93 5.31 45.08 14.49 45.08 25.97"/><polyline class="cls-3" points="49 26.12 49 12.53 39.3 1.41 24.67 1.41"/><line class="cls-2" x1="32" y1="13.1" x2="39.28" y2="1.41"/><line class="cls-2" x1="37.41" y1="19.33" x2="48.98" y2="12.53"/><polyline class="cls-2" points="25.17 13.1 17.82 13.1 12.53 19.33 12.53 26.01"/><polyline class="cls-2" points="25.17 9.17 15.49 8.95 8.78 16.69 8.59 26.01"/><polyline class="cls-2" points="25.17 5.31 12.89 5.31 4.74 14.49 4.74 25.97"/><polyline class="cls-3" points="25.17 1.41 10.54 1.41 0.84 12.53 0.84 26.12"/><line class="cls-2" x1="17.82" y1="13.1" x2="10.54" y2="1.41"/><line class="cls-2" x1="12.41" y1="19.33" x2="0.84" y2="12.53"/><polyline class="cls-2" points="12.53 24.02 12.53 31.37 18.76 36.78 25.44 36.78"/><polyline class="cls-2" points="8.61 24.02 8.61 33.89 16.34 40.6 25.44 40.6"/><polyline class="cls-2" points="4.74 24.02 4.74 36.3 13.96 44.3 25.44 44.3"/><polyline class="cls-3" points="0.84 24.02 0.84 38.65 11.96 48.35 25.56 48.35"/><line class="cls-2" x1="12.53" y1="31.37" x2="0.84" y2="38.65"/><line class="cls-2" x1="18.76" y1="36.78" x2="11.96" y2="48.35"/><polyline class="cls-2" points="37.29 24.02 37.29 31.37 31.05 36.78 24.38 36.78"/><polyline class="cls-2" points="41.21 24.02 41.21 33.89 33.48 40.6 24.38 40.6"/><polyline class="cls-2" points="45.08 24.02 45.08 36.3 35.86 44.3 24.38 44.3"/><polyline class="cls-3" points="48.98 24.02 48.98 38.65 37.85 48.35 24.26 48.35"/><line class="cls-2" x1="37.29" y1="31.37" x2="48.98" y2="38.65"/><line class="cls-2" x1="31.05" y1="36.78" x2="37.86" y2="48.35"/></svg>