<svg id="Layer_1" data-name="Layer 1" xmlns="http://www.w3.org/2000/svg" viewBox="0 0 49.74 49.37"><defs><style>.cls-1{fill:#eaeaea;}.cls-2,.cls-3{fill:none;stroke:#7f7f7f;stroke-linejoin:bevel;}.cls-2{stroke-width:0.69px;}.cls-3{stroke-width:0.35px;}</style></defs><title>HP Diamonds</title><path class="cls-1" d="M25.18,0.58C15.75,0.58,8.1,11.25,8.1,24.41s7.65,23.83,17.09,23.83S42.27,37.57,42.27,24.41,34.62,0.58,25.18.58Zm6.3,35.27-0.65,6.1-5.65-.73-6,1-0.32-6.13L12.94,31.6l3-7.42-3.21-7.26,5.25-4L17.68,7.17l6.8,0.48,6.39-1.55,0,6.35L36.7,16.9l-3.35,7,3.45,7.4Z"/><ellipse class="cls-2" cx="25.18" cy="24.41" rx="17.09" ry="23.83"/><polygon class="cls-3" points="8.1 24.78 12.73 17.14 24.49 7.66 36.7 16.9 42.01 24.05 36.81 31.31 25.18 41.22 12.94 31.6 8.1 24.78"/><path class="cls-3" d="M9.08,16.41s3.65,0.72,3.65.72S12.11,9.05,12.15,9s5.53-1.82,5.53-1.82l6.38-6.55,6.82,5.48,6.54,1.65L36.7,16.9l4.35-1.36"/><path class="cls-3" d="M16.2,4.14c0.06-.05,1.49,3,1.49,3l6.8,0.48,6.39-1.55,1.28-3.47"/><polyline class="cls-3" points="15.93 24.44 17.97 12.92 17.68 7.17"/><polyline class="cls-3" points="36.7 16.9 33.35 23.91 30.84 12.46 30.88 6.11"/><path class="cls-3" d="M15.93,24.63s3,11.7,3,11.64l0.28,6,6.29,6,5.37-6.29L33.77,45"/><path class="cls-3" d="M9.24,33s3.7-1.4,3.7-1.4l3-7-3.2-7.5"/><polyline class="cls-3" points="41.3 32.34 36.81 31.31 33.35 23.91 31.49 35.85 30.84 41.95"/><polyline class="cls-3" points="36.81 31.31 38.6 39.16 30.84 41.95 25.18 41.22 19.18 42.24 12.43 40.27 12.94 31.6"/><line class="cls-3" x1="16.95" y1="45.29" x2="19.18" y2="42.24"/></svg>