<?xml version="1.0" encoding="iso-8859-1"?>
<!-- Generator: Adobe Illustrator 16.0.0, SVG Export Plug-In . SVG Version: 6.00 Build 0)  -->
<!DOCTYPE svg PUBLIC "-//W3C//DTD SVG 1.1//EN" "http://www.w3.org/Graphics/SVG/1.1/DTD/svg11.dtd">
<svg version="1.1" id="Layer_1" xmlns="http://www.w3.org/2000/svg" xmlns:xlink="http://www.w3.org/1999/xlink" x="0px" y="0px"
	 width="36px" height="32px" viewBox="0 0 36 32" style="enable-background:new 0 0 36 32;" xml:space="preserve">
<polygon style="fill:#0066ff;" points="8.999,32 0,16 8.999,0 27,0 36,16 27,32 "/>
<g>
	<path style="fill-rule:evenodd;clip-rule:evenodd;fill:#FFFFFF;" d="M9.897,11.826c0.006-1.49,0.492-2.764,1.469-3.853
		c0.32-0.358,0.651-0.701,1.062-0.956c0.243-0.151,0.5-0.267,0.789-0.299c0.342-0.038,0.652,0.055,0.884,0.302
		c0.78,0.832,1.45,1.74,1.825,2.833c0.124,0.359,0.181,0.73,0.1,1.111c-0.064,0.3-0.213,0.549-0.452,0.743
		c-0.378,0.307-0.756,0.614-1.134,0.92c-0.275,0.223-0.466,0.498-0.51,0.855c-0.038,0.31,0.028,0.606,0.148,0.891
		c0.182,0.432,0.426,0.828,0.688,1.214c0.685,1.012,1.505,1.901,2.438,2.689c0.256,0.217,0.505,0.438,0.813,0.582
		c0.369,0.172,0.748,0.249,1.146,0.114c0.313-0.106,0.553-0.313,0.757-0.567c0.226-0.282,0.489-0.523,0.796-0.717
		c0.351-0.221,0.728-0.36,1.148-0.343c0.324,0.015,0.622,0.115,0.888,0.301c0.675,0.471,1.328,0.969,1.922,1.541
		c0.191,0.185,0.383,0.37,0.518,0.604c0.277,0.484,0.268,0.973-0.111,1.416c-0.789,0.922-1.74,1.595-2.905,1.95
		c-0.925,0.282-1.854,0.286-2.792,0.039c-1.349-0.355-2.557-0.983-3.652-1.842c-0.645-0.506-1.207-1.097-1.757-1.701
		c-0.741-0.813-1.462-1.644-2.118-2.528c-0.371-0.5-0.7-1.024-0.956-1.595c-0.249-0.552-0.523-1.092-0.691-1.678
		C10.014,13.181,9.902,12.497,9.897,11.826z"/>
	<path style="fill-rule:evenodd;clip-rule:evenodd;fill:#FFFFFF;" d="M25.664,15.907c-0.498,0-0.987,0-1.486,0
		c-0.012-0.122-0.022-0.254-0.039-0.387c-0.17-1.345-0.628-2.571-1.51-3.617c-0.726-0.861-1.646-1.426-2.716-1.758
		c-0.674-0.209-1.368-0.305-2.071-0.34c-0.027-0.001-0.053-0.003-0.086-0.005c0-0.51,0-1.017,0-1.534c0.061,0,0.125-0.003,0.189,0
		c1.073,0.065,2.108,0.298,3.1,0.714c1.367,0.575,2.496,1.446,3.318,2.694c0.561,0.852,0.922,1.786,1.112,2.784
		c0.086,0.454,0.127,0.916,0.188,1.375C25.666,15.851,25.664,15.869,25.664,15.907z"/>
	<path style="fill-rule:evenodd;clip-rule:evenodd;fill:#FFFFFF;" d="M22.624,15.953c-0.501,0-0.996,0-1.496,0
		c-0.095-0.856-0.376-1.629-1.008-2.238c-0.636-0.614-1.428-0.823-2.301-0.845c0-0.505,0-1.005,0-1.526
		c1.093,0.041,2.109,0.335,3.001,1.005C21.995,13.231,22.511,14.587,22.624,15.953z"/>
</g>
</svg>
